<svg viewBox="0 0 864 1232" version="1.1" xmlns="http://www.w3.org/2000/svg" desc="Created with imagetracer.js version 1.2.6" ><path fill="rgb(63,63,63)" stroke="rgb(63,63,63)" stroke-width="0" opacity="1" d="M 441.5 209 Q 443.8 208.3 443 210.5 Q 445.3 211.7 444 216.5 L 446.5 222 L 450 211.5 L 451.5 210 L 454 210 L 454 216.5 L 453 217.5 L 453 232.5 L 452 235.5 L 454 240.5 L 455 252.5 L 457 258.5 L 458 267.5 L 463 278.5 L 463 280.5 L 467 286.5 Q 467.9 292.1 471 295.5 L 474 306.5 L 480 318.5 L 493.5 332 L 498.5 335 L 513.5 349 L 516.5 350 L 517.5 349 L 523.5 348 L 530.5 342 L 539.5 342 L 544 346.5 L 548 359.5 L 549.5 361 L 553 358.5 Q 564.7 337.7 582.5 323 L 597.5 311 L 603.5 308 L 612.5 307 L 618 309 L 619 311.5 L 619 317.5 L 620 318.5 L 619 319.5 L 619 326.5 L 618 327.5 L 618 332.5 L 617 333.5 L 616 341.5 L 611 352.5 L 609 360.5 L 602 372.5 L 602 378.5 L 601 379.5 L 600 386.5 L 601 386.5 L 604 380.5 L 604 378.5 L 619 350.5 L 626.5 342 L 633.5 338 L 638.5 337 L 643.5 339 L 646 341.5 L 648 345.5 L 648 354.5 L 646 360.5 L 646.5 361 L 657.5 350 L 673.5 338 L 679.5 335 L 686.5 335 L 690 337.5 L 692 342.5 L 692 360.5 L 691 361.5 L 691 365.5 L 690 366.5 L 689 374.5 L 685 383.5 L 685 385.5 L 674 405.5 L 670 411.5 L 664 417.5 L 664 419 Q 666.6 419.8 667.5 418 L 679.5 418 Q 680.3 416.3 683.5 417 L 691 410.5 L 701 396.5 L 704 390.5 L 707 379.5 L 711 371.5 L 714.5 368 L 717 370.5 L 718.5 377 Q 719.8 373.3 724 374 L 723 385.5 L 722 386.5 L 721 393.5 L 719 396.5 L 719 399.5 L 705.5 417 L 694.5 423 L 691.5 423 L 668.5 435 L 666.5 435 L 658 440.5 Q 658.8 442.8 656.5 442 L 652.5 447 L 649 449.5 L 648 452.5 L 648 460.5 L 647 461.5 L 647 466.5 L 646 467.5 Q 646.7 471.7 645 473.5 L 646 476.5 L 645 477.5 L 645 482.5 L 644 483.5 L 643 491.5 L 643.5 492 L 647 488.5 L 658 473.5 L 668.5 463 L 682.5 452 L 691.5 443 L 716.5 422 L 729.5 414 L 737.5 410 L 744.5 408 L 747 405.5 L 751.5 399 L 764.5 389 Q 767.1 387 772 388 L 773 390.5 L 773 393.5 L 768 399.5 L 765 406.5 L 766.5 406 L 775.5 403 L 788.5 402 L 791 405.5 L 791 407.5 L 787.5 411 L 773 418.5 L 773.5 420 L 779.5 420 L 787 423 L 788 427 L 793.5 427 L 796.5 428 L 814.5 437 L 825.5 445 L 839 458.5 L 848 473.5 L 852 482.5 L 854 484.5 L 857 493.5 L 856 496 L 853.5 496 L 849.5 494 L 830.5 494 L 818.5 498 L 813.5 501 L 811.5 501 L 798.5 508 Q 790.7 512.7 785 519.5 L 776 533.5 L 776 535.5 L 772 543.5 L 772 546.5 L 768 554.5 L 766 562.5 L 763.5 566 L 760.5 565 L 745.5 551 L 728.5 544 L 719.5 544 L 712.5 547 L 707 552.5 L 699 564.5 L 692 587.5 L 689.5 590 L 679.5 586 Q 674 578.5 663.5 576 L 663 576.5 L 666 579.5 L 667 585.5 L 668 586.5 L 669 609.5 L 668 610.5 L 667 618.5 L 664 624.5 L 664 627.5 L 665.5 630 Q 672.5 618.5 682.5 610 Q 685 608 690.5 609 L 697 613.5 L 706 633.5 L 711 649.5 L 710 650.5 L 710 653.5 L 709 656 Q 704.8 656.8 702.5 655 L 694 647.5 L 691.5 644 L 690 644.5 Q 692 645.5 690 646.5 L 690 648.5 L 684 661.5 L 674.5 672 L 670.5 674 L 663.5 674 Q 649.3 668.2 641 656.5 L 634.5 648 L 629.5 652 L 619.5 657 L 613.5 659 L 610 659 L 610 664.5 L 611 665.5 L 611 670.5 L 612 671.5 L 613 678.5 L 619 690.5 L 624.5 696 L 629.5 699 L 631.5 699 L 634 701.5 Q 635.8 703.7 635 708.5 L 633 713.5 L 632 725.5 L 631 726.5 L 631 732.5 L 630 733.5 L 630 737.5 L 628 742.5 L 627 755.5 Q 625.3 756.2 626 759.5 L 624.5 761 L 622.5 762 L 617 757.5 L 614 749.5 L 612 735.5 L 610 731.5 L 610 729 Q 598.9 726.4 593 717.5 L 587 709.5 L 581 697.5 L 579 691.5 L 579 688.5 L 578 687.5 L 578 683.5 L 577 682.5 L 575 671.5 L 574 670.5 L 573 659.5 L 571.5 658 L 551.5 646 L 536 630.5 Q 524.8 618.7 518 602.5 L 515 593.5 L 515 589.5 L 513 584.5 L 513 580.5 L 505.5 573 L 496.5 568 Q 493.3 568.8 492.5 567 L 486.5 567 L 485.5 566 L 477.5 566 L 476.5 567 L 467.5 567 Q 466.5 569 462.5 568 L 455.5 571 L 453 570 L 452 567.5 L 452 558.5 Q 449.7 557.3 451 552.5 L 450 551.5 L 450 547.5 L 449 546.5 L 448 540.5 L 444 533.5 L 435.5 523 L 421.5 516 L 409.5 512 L 402.5 512 L 399 508.5 L 399 500.5 L 400 499.5 L 400 493.5 L 401 492.5 L 401 443.5 L 400 441.5 Q 401.7 440.8 401 437.5 L 400 436.5 L 400 419.5 L 399 418.5 L 399 410.5 L 398 409.5 L 398 399.5 L 396.5 398 L 392 395.5 Q 390.5 391.1 393.5 392 L 396.5 390 L 403.5 389 L 407.5 391 L 410 391 L 407.5 386 L 401 380.5 Q 400.3 375.8 403.5 375 L 409.5 375 L 418.5 380 L 419 378.5 L 415 373.5 L 415 370.5 L 416 368 Q 427.1 367.5 432 374.5 L 439 393 L 440.5 393 L 444.5 396 L 461 412.5 L 482 441.5 L 496.5 472 L 503 449.5 L 507 441.5 L 510 438.5 L 510 437 L 516 434 L 516 432.5 L 525 417.5 L 527 408.5 L 534 393.5 L 535 388.5 L 542 376.5 L 542 372.5 L 537 362.5 L 534.5 360 L 532.5 361 L 520.5 361 L 519.5 360 L 512.5 359 L 500.5 353 L 497.5 350 L 494.5 349 L 484.5 342 L 474 331.5 L 465 319.5 L 461 311.5 L 461 309.5 L 455 296.5 L 451 281.5 L 447 272.5 L 447 269.5 L 442 256.5 L 442 252.5 L 440 248.5 L 440 243.5 L 438 237.5 L 438 219.5 Q 440.3 218.3 439 213.5 L 441.5 209 Z M 443 223 L 441 226 Q 440 229 442 230 L 442 237 L 443 238 L 443 242 L 444 243 L 444 247 L 446 252 L 446 255 L 457 287 L 458 293 L 461 298 L 465 310 L 470 320 L 481 333 Q 490 342 503 348 L 506 348 L 495 337 L 489 333 Q 480 326 474 317 Q 473 311 470 308 L 466 294 L 457 277 L 454 268 L 454 265 L 453 264 L 453 259 L 451 253 L 451 245 Q 449 243 450 239 L 449 238 L 449 227 L 448 227 Q 449 231 445 229 L 443 223 Z M 608 311 L 598 316 Q 591 324 582 330 L 572 340 L 552 367 L 539 391 L 537 398 L 531 410 L 529 419 L 525 427 L 522 432 L 511 443 L 511 444 L 516 444 L 517 440 L 520 438 L 519 441 L 520 446 L 522 440 L 525 438 L 525 441 L 523 445 L 523 448 Q 528 450 530 456 L 538 452 L 541 453 L 543 456 L 547 453 L 552 454 L 555 460 Q 554 463 556 464 L 556 470 L 555 471 L 555 474 L 553 480 L 550 486 L 547 489 L 535 489 L 526 486 L 523 486 L 519 484 L 515 480 L 515 475 L 519 466 L 517 465 L 515 467 L 513 473 Q 514 475 511 474 Q 510 471 512 471 L 512 468 L 511 470 L 509 472 L 508 472 Q 508 465 511 463 L 510 462 L 508 460 Q 507 457 504 457 L 502 469 L 501 470 L 501 474 L 499 479 L 499 484 L 498 485 L 498 507 L 499 508 L 500 516 L 504 524 L 516 536 L 517 541 L 519 544 L 516 545 L 516 550 L 517 552 L 520 553 L 522 552 Q 523 546 520 545 Q 519 541 522 542 L 525 547 Q 524 551 528 549 Q 529 551 526 553 L 526 557 L 530 559 Q 531 561 532 559 Q 533 553 529 552 Q 528 549 533 550 L 536 556 Q 537 553 543 554 Q 546 556 546 560 Q 549 561 550 559 L 555 559 Q 558 560 557 563 L 560 562 Q 567 561 570 565 L 573 564 L 579 565 L 582 567 L 582 566 Q 583 562 588 563 L 589 565 L 590 562 Q 595 561 597 564 Q 599 565 598 563 L 602 560 Q 606 562 605 558 L 611 553 L 612 552 L 613 546 Q 615 544 615 542 L 620 540 L 622 540 L 623 533 L 626 531 L 624 528 L 624 523 L 626 522 L 633 512 L 638 498 L 638 494 L 640 489 L 640 485 L 641 484 L 641 474 Q 643 472 642 468 L 643 467 L 643 461 L 644 460 L 644 451 L 645 448 L 645 447 L 642 450 L 639 450 L 640 447 L 646 441 L 648 435 L 653 426 L 676 394 L 684 377 L 686 366 L 687 365 L 687 361 L 688 360 L 688 344 Q 686 343 687 340 L 685 339 L 676 342 L 657 364 L 640 392 L 635 403 L 635 405 L 632 409 L 628 418 L 627 425 L 626 426 L 626 430 L 625 431 L 625 435 L 630 438 Q 635 439 637 436 Q 639 435 638 439 L 633 442 L 628 442 L 623 440 L 621 436 L 621 429 L 622 428 L 623 420 L 625 416 L 625 413 L 630 405 L 632 398 L 638 386 L 642 381 L 651 365 L 654 362 L 654 360 L 624 392 L 616 404 L 607 413 L 598 426 L 598 428 L 593 438 L 592 443 Q 591 446 589 443 L 589 436 Q 591 435 590 432 L 588 432 L 581 429 L 578 429 L 574 427 L 565 426 L 560 424 L 556 424 L 555 423 L 546 423 L 545 424 Q 541 425 542 423 L 547 419 L 559 419 L 560 420 Q 564 419 567 421 L 573 413 L 573 410 L 580 402 L 579 385 L 578 384 L 578 360 L 579 359 L 580 351 Q 583 346 589 344 Q 595 343 598 345 Q 601 348 603 353 Q 602 357 605 359 L 607 351 L 611 344 L 612 337 L 613 336 L 613 332 L 614 331 L 614 326 L 616 321 L 615 319 L 615 312 L 613 311 L 608 311 Z M 638 342 L 638 344 L 638 356 Q 636 356 637 360 L 631 368 L 629 375 L 626 380 L 627 381 L 635 372 L 636 369 L 641 363 L 645 352 L 644 346 L 641 342 L 638 342 Z M 632 344 L 630 345 L 622 354 L 619 361 L 615 366 L 609 377 L 608 382 L 598 402 L 595 417 L 594 418 L 594 422 L 592 426 L 593 428 L 595 422 L 601 414 L 601 410 L 605 401 L 607 393 L 611 386 L 612 380 L 625 361 L 625 359 L 627 359 Q 628 356 633 355 L 635 351 Q 636 347 634 346 Q 635 343 632 344 Z M 533 346 L 531 348 L 537 355 L 544 368 Q 543 370 546 369 L 547 367 L 547 365 L 543 359 L 543 356 L 540 349 Q 538 345 533 346 Z M 589 349 L 587 350 L 584 353 Q 585 356 583 357 L 583 368 L 582 369 L 582 380 L 583 381 L 583 388 L 584 389 L 584 407 L 585 408 L 585 418 Q 585 418 588 418 L 589 417 Q 588 412 590 412 L 590 401 L 588 395 L 588 381 L 587 380 L 587 374 L 586 373 L 587 372 L 587 361 Q 589 360 588 357 L 589 354 L 592 351 Q 593 348 589 349 Z M 527 351 L 519 355 L 515 356 L 520 356 L 521 357 L 532 357 Q 532 357 532 355 L 529 351 L 527 351 Z M 598 351 Q 596 354 598 356 L 597 359 L 597 367 L 596 368 L 597 382 L 597 377 L 598 376 L 598 371 L 599 370 L 599 355 L 598 351 Z M 593 354 L 591 358 L 591 363 L 590 364 L 592 381 L 592 371 L 593 370 L 593 354 Z M 632 359 L 626 365 L 618 377 L 615 383 L 614 388 L 610 395 L 609 401 L 607 405 L 608 406 L 616 394 L 619 385 L 625 375 L 626 370 L 632 361 L 632 359 Z M 419 372 L 419 374 L 424 381 L 425 387 L 427 388 L 433 389 L 432 385 L 430 382 L 430 380 Q 427 378 428 376 L 419 372 Z M 714 374 L 708 391 L 706 394 L 706 396 L 693 415 L 689 419 L 690 419 L 697 418 L 703 414 L 708 409 L 715 399 L 719 387 L 719 384 L 720 383 L 720 381 Q 718 383 716 383 L 714 374 Z M 407 380 Q 405 381 409 382 L 412 386 L 415 393 Q 416 396 414 397 L 405 394 L 398 395 L 400 396 L 404 396 L 405 397 L 410 397 L 413 398 L 423 406 L 446 433 L 456 448 L 467 469 L 467 473 L 466 473 L 460 465 L 459 466 L 453 466 L 450 467 L 442 471 L 422 485 L 418 490 L 418 491 L 431 481 L 443 475 L 447 476 L 438 480 L 419 494 Q 412 499 409 507 L 411 508 L 417 509 L 420 511 L 431 514 L 436 517 L 447 530 L 452 539 L 454 545 L 459 534 L 462 525 L 469 517 Q 474 510 483 506 L 488 507 L 480 511 L 466 525 L 462 533 L 463 535 L 468 526 Q 472 519 480 516 L 483 517 L 479 519 L 469 529 L 461 544 L 461 547 L 459 551 L 459 556 L 458 557 L 458 561 Q 456 562 457 565 L 460 564 L 463 564 L 464 563 L 468 563 L 469 562 L 478 562 L 479 561 L 484 561 L 485 562 L 492 562 Q 492 564 496 563 L 503 566 L 510 571 L 512 573 L 512 573 Q 513 569 511 569 L 511 558 L 512 557 Q 513 553 511 553 L 511 550 Q 513 548 513 546 L 511 547 L 506 544 L 506 540 L 510 535 L 507 532 L 499 524 L 495 512 L 495 508 L 494 507 L 494 485 L 495 484 L 495 478 L 494 475 L 480 447 L 465 425 L 452 410 L 438 397 L 426 392 L 422 393 L 429 396 L 433 401 L 433 404 L 430 403 L 420 396 L 417 393 L 417 391 L 420 388 Q 416 381 407 380 Z M 768 392 Q 756 398 749 408 L 754 409 L 755 412 L 753 417 L 742 423 L 737 428 L 735 427 L 737 423 L 750 414 Q 752 415 751 412 L 741 413 L 720 425 L 666 471 L 641 499 L 638 509 L 630 522 Q 629 524 632 523 L 633 526 L 633 529 L 629 532 L 631 532 L 634 537 L 632 543 L 631 544 L 626 544 L 626 550 L 625 553 L 622 556 L 620 556 L 620 560 L 618 564 L 616 566 L 613 567 L 610 566 L 609 571 Q 608 574 602 573 Q 600 570 599 574 Q 594 575 593 573 L 589 576 L 585 575 L 583 573 L 578 577 L 571 575 Q 570 573 569 575 Q 564 576 562 574 L 558 570 L 558 569 L 555 572 L 551 572 L 545 568 L 541 568 L 537 566 Q 534 565 534 562 L 532 563 L 527 562 L 523 558 L 522 556 L 518 556 L 515 555 L 516 577 L 518 581 L 518 588 Q 520 588 519 593 L 528 613 L 536 624 L 555 642 L 569 651 L 577 654 Q 576 657 578 658 L 578 666 L 581 675 L 581 678 L 582 679 L 582 682 L 583 683 L 583 686 L 584 687 L 584 691 L 588 701 L 595 712 L 605 721 L 613 725 L 616 732 L 617 740 L 618 741 L 618 745 L 622 755 L 623 753 L 623 744 L 625 738 L 625 734 L 626 733 Q 625 728 627 727 L 627 719 L 628 718 L 628 714 L 629 713 L 630 706 L 623 701 Q 615 696 611 687 L 611 685 L 607 676 L 607 670 L 605 665 L 605 659 L 603 659 L 601 657 Q 602 654 606 655 Q 607 651 609 654 L 613 654 L 619 652 L 631 645 Q 632 642 629 643 L 629 639 L 632 639 L 642 650 L 644 654 L 658 666 L 665 669 Q 669 670 672 668 L 680 659 L 689 640 L 689 638 L 692 634 L 693 635 L 693 640 L 705 650 L 706 651 L 706 647 L 703 641 L 702 636 L 699 631 L 698 626 L 694 618 L 691 614 Q 686 613 684 615 L 669 632 L 669 635 L 672 639 Q 673 642 671 642 L 666 638 L 664 634 L 655 623 L 655 621 L 658 621 L 660 624 L 662 620 L 663 612 L 664 611 L 664 585 L 661 576 L 660 574 L 651 573 L 640 569 L 635 569 L 632 567 L 634 564 L 641 564 L 652 568 L 656 568 L 661 570 L 664 570 L 673 574 L 682 581 L 687 583 L 688 584 L 682 573 L 683 570 L 680 561 L 680 558 L 679 557 L 678 549 L 677 548 L 676 535 L 675 534 L 675 520 L 674 519 Q 673 514 675 514 L 675 507 L 676 506 L 676 504 L 672 508 Q 670 514 666 518 L 663 517 L 663 515 L 670 504 L 693 477 L 720 452 L 739 439 L 762 429 L 777 428 L 778 427 Q 783 429 782 425 Q 779 426 779 424 L 767 424 L 766 423 Q 762 424 763 422 L 776 412 L 782 409 L 784 409 L 786 407 L 786 406 L 783 407 L 778 407 L 777 408 L 773 408 L 762 413 Q 760 415 759 413 L 763 401 L 769 393 L 768 392 Z M 402 400 L 402 405 L 403 406 L 403 415 L 404 416 L 404 422 L 405 423 Q 406 426 404 427 Q 403 430 405 432 L 405 449 L 406 450 L 405 496 L 404 497 L 404 504 L 403 505 L 405 507 L 407 504 L 405 503 L 408 495 L 419 483 L 444 465 L 451 462 L 458 462 L 448 444 L 426 417 L 412 403 L 408 401 L 405 401 L 402 400 Z M 580 409 L 577 413 L 579 421 Q 580 422 581 420 L 581 414 L 580 409 Z M 573 418 L 572 421 Q 571 423 575 422 L 576 423 L 575 421 Q 576 417 573 418 Z M 586 422 L 584 425 Q 585 427 588 426 Q 589 423 586 422 Z M 669 422 L 662 425 L 655 432 L 651 440 L 652 442 L 662 433 L 670 429 L 672 429 L 683 423 L 669 422 Z M 784 430 L 778 432 L 770 432 L 769 433 L 763 433 L 760 434 L 740 443 L 725 453 Q 722 454 724 455 L 737 455 L 738 454 L 754 454 L 755 453 L 763 453 L 764 454 L 778 454 L 779 455 L 788 456 L 792 458 L 803 460 L 807 462 L 810 462 L 831 472 L 843 480 L 850 487 L 850 487 L 836 462 Q 825 448 810 439 L 793 431 L 787 431 L 784 430 Z M 513 448 L 507 452 L 510 457 L 516 461 Q 524 463 526 458 L 524 454 L 523 457 L 520 459 L 516 456 L 516 449 L 513 448 Z M 538 457 L 530 461 L 523 468 L 520 473 Q 521 476 519 477 L 520 480 L 526 482 L 529 482 L 533 484 L 545 485 L 548 481 L 552 469 L 551 462 L 549 458 L 547 458 L 540 465 L 537 465 L 537 461 L 538 460 L 538 457 Z M 753 457 L 752 458 L 739 459 L 774 459 L 775 460 L 786 461 L 787 462 L 794 463 L 803 466 Q 805 467 804 468 L 800 468 L 791 465 L 787 465 L 786 464 Q 781 465 780 463 L 770 463 L 769 462 L 714 463 L 696 480 L 703 481 L 717 488 L 729 496 L 737 505 L 748 521 L 759 544 L 763 556 L 767 548 L 772 532 L 779 520 L 792 507 L 816 494 L 828 490 L 831 490 L 832 489 L 847 489 L 836 479 L 815 468 L 813 468 L 807 465 L 796 463 L 792 461 L 789 461 L 785 459 L 781 459 L 780 458 L 770 458 L 769 457 L 753 457 Z M 695 481 L 681 496 L 681 501 L 679 505 Q 680 509 678 511 L 678 526 L 679 527 L 680 546 L 682 551 L 682 555 L 684 560 L 684 563 L 687 571 L 687 574 L 690 579 L 691 577 L 691 574 L 694 565 L 700 554 L 711 543 L 714 541 L 720 540 L 721 539 L 728 539 L 733 541 L 736 541 L 743 545 L 745 545 L 759 557 L 760 558 L 758 550 L 750 532 L 748 530 L 744 521 L 736 510 L 725 498 L 714 491 L 702 485 L 698 484 L 695 481 Z M 411 497 L 409 500 Q 410 501 411 499 L 411 497 Z M 409 500 L 407 503 Q 408 504 409 502 L 409 500 Z M 629 525 L 627 527 L 630 528 L 629 525 Z M 626 535 Q 625 539 628 540 Q 631 541 629 537 L 626 535 Z M 512 538 L 509 542 Q 510 544 513 543 L 513 538 L 512 538 Z M 620 544 L 615 550 Q 616 553 621 552 L 623 549 L 622 546 Q 623 543 620 544 Z M 614 555 L 611 557 Q 608 558 609 562 Q 610 564 614 563 L 616 561 Q 615 557 617 557 Q 617 555 614 555 Z M 539 557 L 537 559 L 538 563 L 543 564 L 542 558 L 539 557 Z M 550 562 Q 547 563 548 567 L 550 568 L 554 568 L 555 566 L 554 564 Q 553 561 550 562 Z M 605 563 Q 604 565 601 564 Q 600 567 602 568 L 602 569 L 606 569 L 607 567 L 606 565 Q 607 562 605 563 Z M 597 565 L 594 566 Q 593 570 596 571 L 598 570 L 597 565 Z M 560 566 L 560 568 L 566 572 L 568 571 L 567 568 L 566 566 L 560 566 Z M 586 566 L 585 570 L 588 572 L 589 571 L 588 568 Q 589 565 586 566 Z M 571 567 L 571 571 L 574 573 L 579 573 L 580 571 L 577 568 L 571 567 Z " /><path fill="rgb(63,63,63)" stroke="rgb(63,63,63)" stroke-width="0" opacity="1" d="M 419 420 L 423.5 421 L 436 433.5 L 449 451.5 L 450 455.5 Q 449 457 448 454.5 L 442 445.5 L 419 421.5 L 419 420 Z " /><path fill="rgb(63,63,63)" stroke="rgb(63,63,63)" stroke-width="0" opacity="1" d="M 589 452 L 592 452 L 592 453.5 L 590 457.5 L 590 461 L 593 461 L 593 459.5 Q 595.9 457.6 596 454 L 599 455.5 L 594 463.5 L 603 471.5 L 604 475.5 L 603 478 L 596.5 481 L 586 482 L 585 489.5 L 583 495 Q 579.3 496.4 581 490.5 L 582 489.5 L 582 485.5 Q 584 484.4 583 481 L 579 480 L 577 488.5 L 574.5 491 L 574 486.5 L 575 485.5 L 576 479 L 573.5 479 L 564 472.5 Q 562.5 468.1 565.5 469 L 577.5 475 L 585.5 476 L 586.5 477 L 593.5 477 L 599 475 L 599 473.5 L 595.5 470 L 593.5 473 Q 588.9 472.1 587 468.5 Q 588.5 464.1 585.5 465 L 584.5 464 L 572.5 464 L 566.5 467 Q 564.5 466.5 565 463.5 L 567.5 461 L 572.5 459 L 583.5 459 L 585.5 460 L 587 458.5 L 587 456.5 L 589 452 Z " /><path fill="rgb(63,63,63)" stroke="rgb(63,63,63)" stroke-width="0" opacity="1" d="M 530.5 468 Q 532.5 468.5 532 471.5 L 528.5 477 L 526 475.5 L 526 472.5 Q 528.5 471.5 528 469 L 530.5 468 Z " /><path fill="rgb(63,63,63)" stroke="rgb(63,63,63)" stroke-width="0" opacity="1" d="M 542.5 471 L 544 471.5 L 544 476.5 Q 542.3 477.4 543 480 L 540 478.5 Q 539.2 472.7 542.5 471 Z " /><path fill="rgb(63,63,63)" stroke="rgb(63,63,63)" stroke-width="0" opacity="1" d="M 701 476 L 703.5 476 L 712.5 481 L 718.5 483 L 735 495.5 L 748 510.5 L 749 513.5 L 756 522.5 L 761 533.5 L 762 539.5 Q 761 541 760 538.5 Q 748.8 509.8 726.5 492 L 719.5 487 L 703.5 480 L 701 477.5 L 701 476 Z " /><path fill="rgb(63,63,63)" stroke="rgb(63,63,63)" stroke-width="0" opacity="1" d="M 523 489 L 527.5 489 L 535.5 494 L 541.5 494 L 551.5 490 L 553 491.5 L 553 501.5 L 551 507 L 547 507 L 547 505.5 L 541.5 498 Q 535.3 499.2 532.5 497 L 527.5 502 L 522.5 503 Q 519.8 501.8 521 496.5 L 522 495.5 L 522 491.5 L 523 489 Z M 527 494 Q 524 495 525 498 Q 528 499 529 496 L 527 494 Z M 548 496 L 546 498 L 549 502 L 550 499 Q 551 495 548 496 Z " /><path fill="rgb(63,63,63)" stroke="rgb(63,63,63)" stroke-width="0" opacity="1" d="M 271.5 495 L 275.5 495 L 280 498.5 L 285 510.5 L 286 518.5 L 287 519.5 L 287 523.5 L 288 524.5 L 289 539.5 L 290 540.5 L 290 551.5 L 291 552.5 L 291 563.5 L 292 564.5 L 292 580.5 L 293 583.5 L 292 586.5 L 293 587.5 L 293 630.5 L 294 633.5 L 293 634.5 L 293 652 L 302.5 653 L 307.5 655 L 314.5 655 L 320.5 658 L 323 658 L 324 655.5 L 324 652.5 L 331 639.5 L 331 637.5 L 335 628.5 L 335 625.5 L 338 618.5 L 339 611.5 L 342 603.5 L 342 599.5 L 343 598.5 L 343 594.5 L 344 593.5 L 346 582.5 L 350 570.5 L 355 561.5 L 359 548.5 L 364 537.5 L 370.5 530 Q 372.7 528.2 377.5 529 L 382 532.5 L 385 539.5 Q 384 543.5 386 544.5 L 386 553.5 L 387 554.5 L 387 564.5 L 388 565.5 L 388 594.5 L 387 595.5 L 387 609.5 L 386 610.5 L 386 618.5 L 385 619.5 L 385 624.5 L 384 625.5 Q 385.3 630.3 383 631.5 L 382 643.5 L 377 658.5 L 377 662.5 L 376 663.5 L 376 666.5 L 375 667.5 L 375 670.5 L 374 671.5 L 374 674.5 L 373 675.5 L 373 678.5 L 372 679.5 L 371 686 Q 378.3 684.6 382 678.5 L 383.5 676 L 386 677.5 Q 384.8 683.3 380.5 686 L 376.5 689 L 373 689 L 381 705.5 L 382 714.5 L 383 715.5 L 383 730 Q 385.7 731.1 385 728.5 L 402 706.5 L 425.5 683 L 446.5 666 L 469.5 652 L 475.5 650 L 478 647.5 L 486.5 637 L 497.5 630 L 500.5 629 L 506 629 L 507 631.5 L 506 634.5 L 501.5 639 L 494 645.5 L 493 647.5 L 497.5 648 L 505.5 643 L 514.5 641 Q 515.3 642.8 518.5 642 L 521 644.5 L 521 647.5 L 518.5 651 L 510.5 655 L 500 664.5 Q 499.2 667.1 502.5 666 L 514.5 670 L 522 675.5 L 523 679.5 L 505 699.5 Q 502.7 705.7 498 709.5 L 489 727.5 L 489 729.5 L 487 732.5 L 482 747.5 L 482 750.5 L 480 754.5 L 480 757.5 L 477 766.5 L 476 776.5 L 475 777.5 L 475 789.5 Q 473.2 790.3 474 793.5 L 472.5 795 L 469.5 794 L 463.5 794 L 461.5 793 L 460.5 794 L 445.5 794 L 444.5 795 L 437.5 796 Q 424.9 801.9 417 812.5 L 410 825.5 L 407 836.5 L 403.5 841 L 401.5 841 L 399.5 839 L 394.5 838 L 389.5 835 L 383.5 834 L 382.5 833 Q 378.5 834 377.5 832 L 360.5 832 L 351.5 835 L 341 841.5 L 338 850.5 L 336 853.5 L 336 855.5 L 342.5 862 L 344 862 L 344 863.5 L 348 868.5 L 348 874.5 Q 346 875.5 347 879.5 L 343.5 883 L 338.5 883 L 328.5 878 L 321.5 873 L 318 876.5 L 318 879.5 Q 323.5 886.5 331.5 891 L 345.5 898 L 353.5 900 L 357.5 898 L 360.5 898 L 375.5 890 L 392.5 890 L 393.5 891 L 402.5 891 L 403.5 892 L 406.5 892 L 410.5 894 L 413.5 894 L 422.5 897 L 428.5 897 L 440 892 L 440 895.5 L 433 904.5 L 440.5 905 L 446.5 903 L 453 903 L 453 905.5 L 445.5 913 L 434.5 919 Q 430.3 918.3 428.5 920 L 427.5 919 L 423.5 919 L 422.5 918 L 416.5 917 L 392.5 905 L 383.5 903 L 373.5 909 L 366.5 909 L 361.5 911 L 355.5 911 L 354.5 910 L 350.5 910 L 349.5 909 L 346.5 909 L 340.5 907 L 328.5 901 Q 323.7 895.8 316.5 893 L 308.5 885 L 305.5 888 L 291.5 897 L 277.5 903 L 274.5 903 L 273 904.5 L 276 906.5 L 285.5 922 Q 290.8 915.3 299.5 912 L 305.5 911 L 306.5 910 L 310.5 910 L 314 912.5 L 315 915.5 L 312 921.5 L 286.5 949 L 281.5 953 L 277.5 955 L 274.5 955 L 269 950.5 L 264 939.5 L 256 927.5 L 239.5 909 L 227.5 906 L 219.5 902 L 197.5 885 L 186 873.5 L 179.5 864 L 172.5 862 L 171.5 863 L 168.5 863 L 160.5 866 L 152.5 867 L 151.5 868 L 141.5 868 L 135 863.5 L 131 855.5 L 130 847.5 L 129 846.5 L 128 834.5 L 127 833.5 L 127 819.5 L 126 818.5 L 126 792.5 Q 127 790 131.5 791 L 136 796.5 L 140 804.5 L 140 806.5 L 142 809.5 L 143 816.5 L 144 817.5 L 145 825.5 L 146.5 827 L 148.5 827 L 157.5 823 L 174 820 L 175 813.5 L 182 800.5 L 183 796.5 L 185.5 794 L 187 793.5 L 182.5 793 L 181.5 794 L 177.5 794 L 171.5 796 L 168.5 798 L 161.5 798 L 158.5 799 L 156 796.5 L 156 788.5 L 155 787.5 L 155 777.5 L 154 776.5 L 154 770.5 L 153 769.5 L 153 761.5 L 145 743.5 L 138.5 736 L 128.5 731 Q 124.5 732 123.5 730 L 109.5 730 L 94.5 737 L 88.5 738 L 87 736.5 L 86 729.5 L 85 728.5 L 84 715.5 L 83 714.5 L 83 706.5 L 82 705.5 L 81 695.5 L 75 677.5 L 65 662.5 L 47.5 644 L 37.5 636 L 22.5 629 L 14.5 628 L 11 625.5 L 11 623.5 L 15 618.5 L 15 617 L 18 615.5 L 36.5 595 L 45.5 589 L 60.5 582 L 66.5 580 L 69.5 580 L 73.5 578 L 77.5 578 L 78.5 577 L 87.5 577 Q 88.5 575 92.5 576 Q 93.3 577.8 96.5 577 L 99.5 574 L 102.5 573 L 107.5 573 L 108.5 574 Q 112.7 573.3 114.5 575 L 115 574.5 L 113 572.5 L 108.5 567 L 101 560.5 Q 99 557.9 100 553 L 102.5 552 L 105.5 552 L 117.5 558 L 124.5 564 L 126 564 L 125 561.5 L 125 558.5 L 121 550.5 L 121 547.5 L 124.5 543 Q 130.7 545.3 134 550.5 L 141 560.5 L 144 566.5 L 145 572 L 146.5 572 L 150.5 575 L 161 584.5 L 174 599.5 L 198 636.5 L 210 652.5 L 220 670.5 L 223 679.5 L 228.5 690 L 229 679.5 L 230 678.5 L 230 673.5 L 232 667.5 L 220 658.5 L 219 653 L 220.5 653 L 228.5 661 L 232 662 L 232 656.5 L 224 647.5 L 224 644 L 225.5 644 L 230 648.5 L 232.5 652 L 233 645.5 L 234 644.5 L 234 635.5 L 235 634.5 L 235 626.5 L 236 625.5 L 236 618.5 L 237 617.5 L 237 608.5 L 238 607.5 L 239 593.5 L 240 592.5 L 240 585.5 L 241 584.5 L 241 577.5 L 242 576.5 L 242 568.5 L 243 567.5 L 243 562.5 L 244 561.5 L 244 557.5 L 246 552.5 L 246 548.5 L 247 547.5 L 249 536.5 L 251 532.5 L 251 529.5 L 255 517.5 L 257 514.5 L 257 512.5 L 261 504.5 L 269.5 496 L 271.5 495 Z M 273 499 L 271 500 L 264 507 L 258 521 L 267 536 L 268 541 L 271 547 L 274 559 L 274 554 L 275 553 L 275 535 L 276 534 L 276 518 L 275 517 L 275 504 L 273 499 Z M 279 504 Q 277 507 279 508 L 279 549 L 278 550 L 278 566 L 277 567 L 276 588 L 275 589 L 275 600 L 274 601 L 274 606 L 272 612 L 272 616 L 271 617 L 270 631 L 267 640 L 267 643 L 263 653 L 259 656 Q 254 657 252 655 L 246 649 L 241 636 L 241 626 L 243 624 L 244 628 L 244 635 Q 246 635 245 639 L 250 649 L 254 652 L 259 651 L 261 648 L 262 642 L 265 635 L 265 631 L 266 630 L 266 621 L 264 618 L 251 606 L 242 603 Q 243 606 241 608 L 241 615 L 240 616 L 240 626 Q 238 627 239 632 L 238 633 L 238 641 L 237 642 L 236 663 L 235 664 L 235 670 L 234 671 L 234 677 L 233 678 L 233 686 L 232 687 L 232 700 L 231 701 L 232 722 L 234 725 L 235 735 L 236 736 L 236 739 L 239 748 L 247 763 L 258 777 L 270 787 L 280 792 L 288 794 L 296 798 L 307 800 L 308 801 L 317 801 L 319 802 Q 320 800 321 802 L 323 801 L 331 801 Q 332 799 337 800 L 338 799 L 344 798 L 356 791 L 359 788 Q 356 786 357 784 L 362 785 Q 363 782 361 782 L 363 779 L 366 780 L 372 773 L 376 765 L 377 759 L 378 758 L 378 748 L 379 747 L 379 718 L 378 717 L 378 711 L 371 694 L 367 689 L 367 683 L 369 679 L 369 675 L 372 666 L 372 663 L 373 662 L 373 659 L 374 658 L 374 655 L 375 654 L 375 651 L 378 643 L 378 638 L 380 632 L 380 626 L 360 636 L 349 645 L 349 649 L 351 653 L 351 656 L 355 663 L 360 666 L 365 665 L 368 661 L 371 658 L 371 659 L 371 661 L 368 667 L 364 670 Q 359 671 357 669 L 349 661 L 346 652 L 346 649 L 345 648 L 345 637 Q 347 635 346 631 L 347 630 L 347 625 L 348 624 L 349 608 Q 351 606 350 602 L 351 601 L 351 596 L 352 595 L 352 590 L 353 589 L 353 584 L 359 566 L 359 562 L 351 580 L 351 583 L 348 591 L 348 595 L 347 596 L 347 600 L 344 609 L 344 612 L 342 616 L 342 619 L 340 623 L 340 626 L 338 630 L 338 633 L 336 636 L 335 641 L 327 656 L 326 660 L 329 661 L 333 666 L 333 667 L 330 667 L 326 664 L 324 664 L 316 660 L 302 658 L 301 657 L 297 657 L 296 656 L 289 656 L 290 654 L 289 652 Q 288 647 290 647 L 290 636 L 289 635 Q 291 633 290 629 Q 288 628 290 627 L 289 625 L 289 580 L 288 579 L 288 561 L 287 560 L 287 549 L 286 548 L 286 539 L 285 538 L 285 529 L 283 523 L 283 519 L 282 518 L 282 514 L 279 504 Z M 258 524 L 253 536 L 251 547 L 250 548 L 248 562 L 247 563 L 247 568 L 253 569 L 263 581 L 271 596 L 271 589 L 272 588 L 272 580 L 273 579 L 273 568 L 271 564 L 271 560 L 269 555 L 269 552 L 263 534 L 258 524 Z M 377 534 L 371 541 L 367 550 L 366 556 L 363 563 L 363 566 L 359 576 L 357 587 L 356 588 L 356 594 L 355 595 L 356 597 L 359 590 L 359 588 L 362 583 L 383 557 L 382 544 L 379 536 L 377 534 Z M 126 548 L 125 551 L 128 556 L 129 565 L 130 566 L 131 572 Q 131 574 128 573 L 125 570 L 118 563 L 106 557 Q 103 556 104 559 L 113 566 L 114 566 Q 117 574 124 579 L 124 581 L 119 581 L 111 578 L 102 579 L 127 590 L 136 598 L 155 619 L 176 649 L 193 680 L 193 682 L 196 687 L 196 689 L 198 692 L 198 694 L 200 697 L 203 706 L 201 709 L 198 707 L 196 698 L 193 690 L 191 695 L 191 702 Q 189 703 190 707 L 188 712 L 187 720 L 185 724 L 185 727 L 184 728 L 184 732 L 183 733 L 183 737 L 182 738 L 182 742 L 180 747 L 180 750 L 174 768 L 170 775 L 169 782 Q 167 788 161 792 L 162 794 L 173 790 L 181 789 L 182 788 L 187 788 L 188 787 Q 191 786 192 788 L 201 788 L 202 789 Q 206 790 208 788 Q 210 790 217 789 L 222 791 Q 223 794 221 795 Q 216 796 216 794 L 199 794 L 198 793 Q 192 792 190 794 L 186 800 L 185 805 L 180 814 L 178 820 Q 177 823 179 824 L 178 825 L 171 825 Q 170 827 166 826 L 165 827 L 155 829 L 149 832 L 145 832 L 141 828 L 139 817 L 136 808 L 131 798 L 130 798 Q 129 801 131 803 L 131 826 L 132 827 L 132 837 L 134 843 L 134 849 L 137 858 L 144 863 L 154 862 L 163 859 L 166 859 L 170 857 L 177 857 L 183 860 L 186 864 L 187 868 L 202 882 L 223 898 L 234 903 L 242 904 L 243 905 L 247 905 Q 250 906 249 909 L 247 910 L 260 925 L 268 937 L 275 949 L 278 949 L 281 947 L 295 933 Q 301 923 309 917 L 309 915 L 295 920 L 288 927 L 284 927 L 281 925 L 274 912 L 268 905 L 264 907 L 257 907 L 257 903 L 261 903 L 282 896 L 302 885 L 305 882 L 296 863 L 292 851 L 291 844 L 290 843 L 290 839 L 289 838 L 289 834 L 288 833 L 288 829 L 287 828 L 287 817 L 288 816 L 288 811 L 286 813 L 286 815 L 277 833 L 255 858 L 255 859 L 254 859 Q 247 865 239 869 L 237 869 L 231 872 L 223 872 L 220 869 L 227 863 L 222 861 L 220 859 L 223 856 L 229 855 L 241 848 L 250 839 L 250 838 Q 246 837 246 839 L 234 839 L 224 835 L 221 833 L 218 826 L 217 815 L 223 809 L 237 807 L 238 806 L 242 806 L 243 805 L 258 804 L 265 801 L 255 793 L 244 783 L 234 765 L 231 756 L 231 753 L 230 752 L 230 748 L 229 747 L 229 729 L 228 728 Q 227 724 229 724 Q 230 719 228 718 L 228 695 L 218 676 L 218 674 L 215 668 L 207 655 L 187 628 L 170 602 L 156 586 L 146 577 L 138 574 L 138 576 L 148 587 L 151 594 L 148 595 L 146 590 Q 138 584 134 576 L 135 571 L 141 570 Q 136 557 126 548 Z M 360 559 L 359 562 L 360 562 L 360 559 Z M 384 562 L 374 573 L 363 588 Q 359 599 353 608 Q 354 612 352 614 L 353 618 L 355 615 L 372 599 L 383 592 L 384 591 Q 383 586 385 585 L 384 562 Z M 246 570 Q 247 573 245 574 L 245 584 L 244 585 L 244 591 L 243 592 L 243 599 L 252 602 L 263 611 L 267 616 L 269 609 L 269 600 L 264 591 L 264 589 L 258 580 L 250 571 L 246 570 Z M 84 581 L 83 582 L 76 582 L 75 583 L 72 583 L 63 586 L 43 596 L 19 620 L 20 620 L 30 615 L 39 612 L 46 611 L 47 610 L 51 610 L 52 609 L 57 609 L 58 608 L 66 608 L 67 607 L 69 608 L 92 608 L 93 609 L 106 610 L 107 611 L 110 611 L 118 614 L 124 615 L 127 617 L 132 618 L 135 620 L 140 621 L 143 623 L 155 627 L 156 628 L 147 616 L 125 594 L 105 585 L 101 582 Q 96 583 96 581 L 84 581 Z M 383 596 L 367 608 L 351 625 L 350 634 L 349 635 L 350 640 L 354 636 L 365 629 Q 372 627 378 622 L 380 622 L 382 618 L 382 612 L 383 611 L 383 596 Z M 66 611 L 65 612 L 58 612 L 57 613 L 52 613 L 46 615 L 42 615 L 38 617 L 35 617 L 30 620 L 28 620 L 20 624 L 29 626 L 41 632 L 52 641 L 68 659 L 77 672 L 81 680 L 84 689 L 84 692 L 85 693 L 86 702 L 87 703 L 87 711 L 88 712 L 88 721 L 89 722 L 90 728 L 93 717 L 100 703 L 108 692 L 124 676 L 138 667 L 140 667 L 149 663 L 156 662 L 157 661 L 163 661 L 164 660 L 176 659 L 177 660 L 165 640 L 161 636 L 151 634 L 147 632 L 144 632 L 109 620 L 105 620 L 100 618 L 94 618 L 93 617 L 82 617 L 81 616 L 72 616 L 71 614 L 93 614 L 94 615 L 100 615 L 101 616 L 110 617 L 118 620 L 121 620 L 131 624 L 133 624 L 117 617 L 106 615 L 105 614 L 101 614 L 100 613 L 93 613 L 92 612 L 73 612 L 72 611 L 66 611 Z M 134 624 L 134 625 L 136 625 L 134 624 Z M 137 625 L 137 626 L 139 626 L 137 625 Z M 501 633 L 488 641 L 482 648 L 489 648 L 491 644 Q 495 637 503 634 L 501 633 Z M 511 646 L 502 650 L 499 653 L 500 655 L 498 659 L 499 660 L 508 652 L 514 649 L 516 647 L 511 646 Z M 482 653 L 469 658 L 462 663 L 452 668 L 420 695 L 405 710 L 384 737 L 383 752 L 382 753 L 382 760 L 377 773 L 369 783 Q 368 786 371 787 L 371 789 Q 368 790 367 787 Q 363 786 365 791 Q 367 792 365 793 L 362 791 L 358 795 L 352 798 L 348 802 L 349 803 Q 350 806 348 808 L 348 820 L 347 821 L 347 824 L 346 825 L 346 828 L 344 832 L 344 834 L 349 832 L 351 832 L 355 829 L 361 828 L 362 827 L 378 827 Q 379 829 384 828 L 385 829 L 391 830 L 396 833 L 398 833 L 402 835 L 402 825 L 403 824 L 403 814 L 402 813 L 402 808 L 401 807 L 400 799 L 393 786 L 388 781 L 389 779 L 391 780 L 396 786 L 402 796 L 403 802 L 404 803 L 404 807 L 405 808 L 406 817 L 407 817 L 407 813 L 406 812 L 406 807 L 405 806 L 405 801 L 404 800 L 404 795 L 403 792 L 396 780 L 388 771 L 381 777 Q 379 777 379 774 L 384 769 L 385 769 L 386 766 L 389 762 L 396 756 Q 399 756 399 758 L 396 760 Q 391 763 389 769 L 391 769 L 399 778 L 407 793 L 408 804 L 409 805 L 411 815 L 414 809 Q 422 798 435 792 L 441 790 L 445 790 L 446 789 L 460 789 L 461 788 L 462 789 L 466 789 L 464 782 L 460 774 Q 454 769 451 762 L 441 752 L 435 747 L 436 746 L 438 746 L 443 749 L 454 761 L 458 768 L 462 771 L 462 771 L 457 761 L 448 750 L 435 736 L 426 732 Q 421 730 422 734 L 417 739 L 415 738 L 415 735 L 431 716 L 449 699 L 461 690 L 479 680 L 482 679 L 491 679 L 493 677 L 516 677 L 512 674 L 501 671 L 494 667 L 498 662 L 498 660 L 491 663 L 481 665 L 478 667 L 471 667 L 471 663 L 474 663 L 484 659 L 494 657 L 495 654 L 493 653 L 482 653 Z M 178 662 L 174 664 L 165 664 L 164 665 L 158 665 L 157 666 L 154 666 L 153 667 L 150 667 L 144 669 Q 132 674 124 681 Q 112 691 104 704 L 97 717 L 96 722 L 93 728 L 93 731 L 93 732 L 109 725 L 126 725 L 127 726 L 131 726 L 134 728 L 136 728 L 141 731 L 147 738 L 154 751 L 158 763 L 159 781 L 160 782 L 161 787 L 168 773 L 168 771 L 172 763 L 177 748 L 178 741 L 179 740 L 179 735 L 180 734 L 180 730 L 183 721 L 183 718 L 184 717 L 184 714 L 185 713 L 185 710 L 186 709 L 186 705 L 187 704 Q 186 699 188 698 L 188 683 L 189 682 L 180 664 L 178 662 Z M 501 681 L 500 682 L 490 682 Q 488 684 485 683 L 475 687 L 457 699 L 443 711 L 426 729 L 433 730 L 439 734 L 450 746 L 461 760 L 471 779 L 472 768 L 475 759 L 475 755 L 484 728 L 495 706 L 508 689 L 510 687 L 510 686 L 479 696 L 467 702 L 446 717 L 437 725 Q 434 726 435 724 Q 449 709 467 698 L 490 688 L 510 682 L 501 681 Z M 233 742 L 232 745 L 233 745 L 233 742 Z M 234 745 L 233 749 L 235 753 L 236 759 L 246 779 L 262 793 L 276 801 L 278 801 L 280 798 Q 282 799 281 796 L 276 795 L 268 791 L 247 771 L 240 760 L 234 745 Z M 463 771 L 463 775 Q 464 777 465 776 L 463 771 Z M 467 778 L 466 781 L 467 781 L 467 778 Z M 468 781 Q 466 784 468 785 Q 466 790 470 789 L 470 787 L 468 781 Z M 286 799 L 284 800 Q 280 803 278 808 L 272 813 L 266 816 L 261 817 L 252 822 L 246 823 L 245 824 L 238 824 L 237 825 L 226 825 Q 225 823 222 824 L 223 829 L 230 833 L 233 834 L 240 834 L 241 835 Q 243 833 248 834 L 257 831 L 268 824 L 277 815 L 286 801 L 286 799 Z M 291 800 L 288 806 Q 289 808 293 807 L 294 803 L 291 800 Z M 270 803 L 268 805 L 261 808 L 255 808 L 254 809 L 245 809 L 244 810 L 234 811 L 233 812 L 227 812 L 223 814 Q 220 815 221 818 L 226 820 L 229 820 L 236 815 L 242 813 L 246 813 L 247 812 L 258 812 L 259 813 L 265 811 L 274 806 L 270 803 Z M 302 804 L 301 805 L 303 808 L 303 810 L 305 811 L 317 811 L 331 806 L 331 805 Q 327 804 327 806 L 311 806 L 310 805 L 302 804 Z M 344 804 L 338 808 L 336 808 L 327 813 L 318 816 L 311 817 L 314 822 L 316 829 L 320 837 L 327 847 L 332 851 L 333 851 L 335 846 L 335 842 L 338 838 L 342 826 L 343 819 L 344 818 L 344 804 Z M 298 805 L 297 809 L 295 811 L 298 820 L 298 823 L 299 824 L 299 827 L 303 836 L 303 838 L 309 849 L 311 855 L 320 865 L 321 868 L 327 872 L 341 879 Q 345 880 345 877 L 335 872 L 327 866 L 318 856 L 307 834 L 298 805 Z M 292 814 L 291 819 L 290 820 L 292 834 L 293 835 L 294 843 L 297 851 L 298 857 L 305 871 L 306 875 L 311 882 L 318 888 Q 324 890 328 895 L 346 904 L 349 904 L 334 897 L 321 888 Q 313 882 309 873 L 309 871 L 307 868 L 306 863 L 302 854 L 301 848 Q 298 846 302 845 L 297 834 L 295 828 L 295 825 L 294 824 L 294 820 L 292 814 Z M 281 815 L 276 822 Q 269 830 259 834 L 254 840 L 242 852 L 236 856 L 231 858 L 234 859 L 234 861 L 230 865 Q 231 867 229 866 L 229 867 L 232 867 L 241 862 L 243 862 L 250 857 L 261 846 Q 265 838 271 834 L 281 817 L 281 815 Z M 244 816 L 243 817 L 240 817 L 234 819 L 234 820 Q 237 821 239 819 L 246 819 L 252 817 L 244 816 Z M 307 816 L 306 819 L 309 828 L 311 831 L 311 833 L 321 852 L 326 859 L 336 867 L 344 871 L 344 870 L 320 845 L 312 831 L 311 826 L 307 816 Z M 309 857 L 308 860 L 313 871 L 313 873 L 315 874 L 319 870 Q 312 865 309 857 Z M 384 893 L 383 894 L 375 894 L 365 900 L 359 902 L 361 903 Q 365 902 367 904 L 373 904 L 379 901 L 386 894 L 384 893 Z M 395 895 L 389 897 L 386 900 L 389 901 L 396 902 L 409 909 L 427 915 L 434 915 L 445 909 L 445 908 Q 440 907 440 909 L 426 909 L 426 905 L 428 905 L 431 902 L 431 901 Q 426 900 426 902 L 425 901 L 421 901 L 420 900 L 416 900 L 411 898 L 408 898 L 400 895 L 395 895 Z M 350 904 L 350 905 L 352 905 L 350 904 Z " /><path fill="rgb(63,63,63)" stroke="rgb(63,63,63)" stroke-width="0" opacity="1" d="M 671.5 524 L 673 525.5 L 673 531.5 L 674 532.5 Q 672.7 537.3 675 538.5 L 675 544.5 L 676 545.5 L 676 549.5 L 677 550.5 L 677 553.5 L 680 562.5 L 680 566.5 Q 679 568 678 565.5 L 676 555.5 L 675 554.5 L 675 551.5 L 674 550.5 L 673 540.5 L 672 539.5 L 672 533.5 L 671 532.5 L 671.5 524 Z " /><path fill="rgb(63,63,63)" stroke="rgb(63,63,63)" stroke-width="0" opacity="1" d="M 169.5 654 Q 172.5 653.5 173 655.5 Q 173.8 657.8 171.5 657 L 170.5 658 L 163.5 658 L 162.5 659 L 154.5 659 L 153.5 660 L 150.5 660 L 141.5 663 L 120.5 675 L 106 687.5 L 96.5 700 L 96 698.5 Q 101.2 686.3 111.5 679 L 118.5 673 L 138.5 661 L 153.5 656 L 161.5 656 L 162.5 655 L 168.5 655 L 169.5 654 Z " /><path fill="rgb(63,63,63)" stroke="rgb(63,63,63)" stroke-width="0" opacity="1" d="M 279.5 681 L 281.5 681 L 285 683.5 L 283.5 686 L 275.5 686 Q 274.4 688 271 687 L 271 684 L 272.5 684 L 279.5 681 Z " /><path fill="rgb(63,63,63)" stroke="rgb(63,63,63)" stroke-width="0" opacity="1" d="M 350 697 Q 355.7 696 358 699.5 Q 359.3 703.3 355.5 702 L 350 698.5 L 350 697 Z " /><path fill="rgb(63,63,63)" stroke="rgb(63,63,63)" stroke-width="0" opacity="1" d="M 274.5 700 L 279.5 700 L 284 704.5 L 286 709.5 L 286 713.5 L 288 717.5 L 288 721.5 L 283 736.5 L 277.5 742 L 270.5 742 L 263 736.5 L 260 728.5 L 260 723.5 L 261 722.5 L 261 719.5 L 264 710.5 L 270.5 702 L 274.5 700 Z M 277 704 L 272 707 L 267 714 L 265 720 L 265 723 L 264 724 L 266 734 L 273 738 L 278 737 L 281 733 L 284 724 L 284 718 L 282 714 Q 283 709 281 708 L 277 704 Z " /><path fill="rgb(63,63,63)" stroke="rgb(63,63,63)" stroke-width="0" opacity="1" d="M 307.5 707 Q 313.9 707.1 316 711.5 L 317.5 714 L 322.5 710 L 328.5 710 L 335 715.5 L 338 723.5 L 338 733.5 L 335 740.5 L 335 743.5 L 342 752.5 L 342 754.5 Q 341.5 757.5 337.5 757 L 330.5 754 L 328 751.5 Q 327.4 747.6 324.5 746 Q 320.5 745 319.5 747 L 310.5 747 L 302.5 744 L 297.5 747 L 289.5 748 L 285 745.5 Q 284.3 741.8 286.5 741 L 292.5 740 L 297 737.5 L 295 734.5 L 294 728.5 L 298 716.5 L 304.5 709 L 307.5 707 Z M 309 711 L 302 718 L 298 730 L 299 735 L 301 738 L 305 741 L 311 743 Q 314 744 315 742 L 326 742 L 331 740 L 333 738 L 334 732 L 335 731 Q 333 728 334 723 L 332 719 L 328 714 L 324 714 L 318 722 L 316 721 L 314 715 Q 312 712 309 711 Z " /><path fill="rgb(63,63,63)" stroke="rgb(63,63,63)" stroke-width="0" opacity="1" d="M 191.5 711 L 192 714.5 L 191 715.5 L 190 726.5 L 189 727.5 L 188 735.5 L 184 747.5 L 184 750.5 L 181 756.5 L 178 767.5 L 175 773.5 L 172.5 776 L 172 774.5 L 182 748.5 L 182 745.5 L 184 741.5 L 184 738.5 L 186 733.5 L 186 729.5 L 189 720.5 L 190 712.5 L 191.5 711 Z " /><path fill="rgb(63,63,63)" stroke="rgb(63,63,63)" stroke-width="0" opacity="1" d="M 351.5 712 Q 358.9 713.1 362 718.5 L 365 724.5 L 367 737.5 L 366 738.5 L 366 743.5 L 365 746.5 L 360.5 754 L 355.5 755 Q 349.3 752.7 346 747.5 L 344 743.5 L 343 733.5 L 344 732.5 L 344 727.5 L 345 724.5 L 351.5 712 Z M 354 717 L 351 720 L 351 722 L 348 727 L 348 734 L 347 735 L 348 743 L 350 747 L 357 751 L 359 750 L 362 743 L 362 737 L 363 736 L 361 726 L 359 722 L 354 717 Z " /><path fill="rgb(63,63,63)" stroke="rgb(63,63,63)" stroke-width="0" opacity="1" d="M 274.5 714 L 278 716.5 Q 279.7 718.3 279 722.5 L 275.5 727 L 271 723.5 L 270 719.5 L 272 715 L 274.5 714 Z " /><path fill="rgb(63,63,63)" stroke="rgb(63,63,63)" stroke-width="0" opacity="1" d="M 306 721 Q 310.9 719.2 309 725.5 L 308 726.5 L 308 730.5 L 307 733 L 304 731.5 L 305 723.5 L 306 721 Z " /><path fill="rgb(63,63,63)" stroke="rgb(63,63,63)" stroke-width="0" opacity="1" d="M 326.5 724 L 328 724 L 328 728.5 L 327 729.5 L 327 734 L 324 734 L 324 726.5 L 326.5 724 Z " /><path fill="rgb(63,63,63)" stroke="rgb(63,63,63)" stroke-width="0" opacity="1" d="M 353.5 728 L 358 729 L 360 735.5 L 359 738.5 L 356.5 741 Q 352.5 741.5 352 738.5 Q 350.2 736.3 351 731.5 L 353.5 728 Z " /><path fill="rgb(63,63,63)" stroke="rgb(63,63,63)" stroke-width="0" opacity="1" d="M 304.5 747 L 306.5 747 L 313.5 752 L 320.5 752 L 323.5 750 L 326 752.5 L 327 755.5 L 327 763.5 L 325 768 L 323.5 768 L 319 763.5 L 316 756 L 311.5 757 L 302.5 766 L 300.5 766 Q 298.5 765.5 299 762.5 L 303 751.5 L 303 748.5 L 304.5 747 Z M 307 752 L 305 754 L 304 760 L 305 760 L 310 755 L 307 752 Z M 323 755 L 320 756 L 323 762 L 324 760 L 323 755 Z " /><path fill="rgb(254,254,254)" stroke="rgb(254,254,254)" stroke-width="0" opacity="1" d="M 0 0 L 864 0 L 864 1232 L 0 1232 L 0 0 Z M 442 209 L 439 214 Q 440 218 438 220 L 438 238 L 440 244 L 440 249 L 442 253 L 442 257 L 447 270 L 447 273 L 451 282 L 455 297 L 461 310 L 461 312 L 465 320 L 474 332 L 485 342 L 495 349 L 498 350 L 501 353 L 513 359 L 520 360 L 521 361 L 533 361 L 535 360 L 537 363 L 542 373 L 542 377 L 535 389 L 534 394 L 527 409 L 525 418 L 516 433 L 516 434 L 510 437 L 510 439 L 507 442 L 503 450 L 497 472 L 482 442 L 461 413 L 445 396 L 441 393 L 439 393 L 432 375 Q 427 368 416 368 L 415 371 L 415 374 L 419 380 L 420 381 L 413 376 L 410 375 L 404 375 Q 400 376 401 381 L 408 386 L 410 391 L 408 391 L 404 389 L 397 390 L 394 392 Q 390 391 392 396 L 397 398 L 398 400 L 398 410 L 399 411 L 399 419 L 400 420 L 400 437 L 401 438 Q 402 441 400 442 L 401 444 L 401 493 L 400 494 L 400 500 L 399 501 L 399 509 L 403 512 L 410 512 L 422 516 L 436 523 L 444 534 L 448 541 L 449 547 L 450 548 L 450 552 L 451 553 Q 450 557 452 559 L 452 568 L 453 570 L 456 571 L 463 568 Q 466 569 468 567 L 477 567 L 478 566 L 486 566 L 487 567 L 493 567 Q 493 569 497 568 L 506 573 L 513 581 L 513 585 L 515 590 L 515 594 L 518 603 Q 525 619 536 631 L 552 646 L 572 658 L 573 660 L 574 671 L 575 672 L 577 683 L 578 684 L 578 688 L 579 689 L 579 692 L 581 698 L 587 710 L 593 718 Q 599 726 610 729 L 610 732 L 612 736 L 614 750 L 617 758 L 623 762 L 625 761 L 626 760 Q 625 756 627 756 L 628 743 L 630 738 L 630 734 L 631 733 L 631 727 L 632 726 L 633 714 L 635 709 Q 636 704 634 702 L 632 699 L 630 699 L 625 696 L 619 691 L 613 679 L 612 672 L 611 671 L 611 666 L 610 665 L 610 659 L 614 659 L 620 657 L 630 652 L 635 648 L 641 657 Q 649 668 664 674 L 671 674 L 675 672 L 684 662 L 690 649 L 690 647 Q 692 646 690 645 L 692 644 L 694 648 L 703 655 Q 705 657 709 656 L 710 654 L 710 651 L 711 650 L 706 634 L 697 614 L 691 609 Q 685 608 683 610 Q 672 618 666 630 L 664 628 L 664 625 L 667 619 L 668 611 L 669 610 L 668 587 L 667 586 L 666 580 L 663 577 L 664 576 Q 674 578 680 586 L 690 590 L 692 588 L 699 565 L 707 553 L 713 547 L 720 544 L 729 544 L 746 551 L 761 565 L 764 566 L 766 563 L 768 555 L 772 547 L 772 544 L 776 536 L 776 534 L 785 520 Q 791 513 799 508 L 812 501 L 814 501 L 819 498 L 831 494 L 850 494 L 854 496 L 856 496 L 857 494 L 854 485 L 852 483 L 848 474 L 839 459 L 826 445 L 815 437 L 797 428 L 794 427 L 788 427 L 787 423 L 780 420 L 774 420 L 773 419 L 788 411 L 791 408 L 791 406 L 789 402 L 776 403 L 767 406 L 765 407 L 768 400 L 773 394 L 773 391 L 772 388 Q 767 387 765 389 L 752 399 L 747 406 L 745 408 L 738 410 L 730 414 L 717 422 L 692 443 L 683 452 L 669 463 L 658 474 L 647 489 L 643 493 L 642 493 L 644 488 L 644 484 L 645 483 L 645 478 L 646 477 L 645 474 Q 647 472 646 468 L 647 467 L 647 462 L 648 461 L 648 453 L 649 450 L 653 447 L 657 442 Q 659 443 658 441 L 667 435 L 669 435 L 692 423 L 695 423 L 706 417 L 719 400 L 719 397 L 721 394 L 722 387 L 723 386 L 724 374 Q 720 373 719 377 L 717 371 L 715 368 L 711 372 L 707 380 L 704 391 L 701 397 L 691 411 L 684 417 Q 680 416 680 418 L 668 418 L 665 419 L 663 420 L 674 406 L 685 386 L 685 384 L 689 375 L 690 367 L 691 366 L 691 362 L 692 361 L 692 343 L 690 338 L 687 335 L 680 335 L 674 338 L 658 350 L 647 361 L 646 361 L 648 355 L 648 346 L 646 342 L 644 339 L 639 337 L 634 338 L 627 342 L 619 351 L 604 379 L 604 381 L 601 387 L 600 387 L 601 380 L 602 379 L 602 373 L 609 361 L 611 353 L 616 342 L 617 334 L 618 333 L 618 328 L 619 327 L 619 320 L 620 319 L 619 318 L 619 312 L 618 309 L 613 307 L 604 308 L 598 311 L 583 323 Q 565 338 553 359 L 550 361 L 548 360 L 544 347 L 540 342 L 531 342 L 524 348 L 518 349 L 517 350 L 514 349 L 499 335 L 494 332 L 480 319 L 474 307 L 471 296 Q 468 292 467 287 L 463 281 L 463 279 L 458 268 L 457 259 L 455 253 L 454 241 L 452 236 L 453 233 L 453 218 L 454 217 L 454 210 L 452 210 L 450 212 L 447 222 L 444 217 Q 445 212 443 211 Q 444 208 442 209 Z M 272 495 L 270 496 L 261 505 L 257 513 L 257 515 L 255 518 L 251 530 L 251 533 L 249 537 L 247 548 L 246 549 L 246 553 L 244 558 L 244 562 L 243 563 L 243 568 L 242 569 L 242 577 L 241 578 L 241 585 L 240 586 L 240 593 L 239 594 L 238 608 L 237 609 L 237 618 L 236 619 L 236 626 L 235 627 L 235 635 L 234 636 L 234 645 L 233 646 L 233 652 L 230 649 L 226 644 L 224 644 L 224 648 L 232 657 L 232 662 L 229 661 L 221 653 L 219 653 L 220 659 L 232 668 L 230 674 L 230 679 L 229 680 L 229 690 L 223 680 L 220 671 L 210 653 L 198 637 L 174 600 L 161 585 L 151 575 L 147 572 L 145 572 L 144 567 L 141 561 L 134 551 Q 131 545 125 543 L 121 548 L 121 551 L 125 559 L 125 562 L 126 564 L 125 564 L 118 558 L 106 552 L 103 552 L 100 553 Q 99 558 101 561 L 109 567 L 113 573 L 115 575 L 115 575 Q 113 573 109 574 L 108 573 L 103 573 L 100 574 L 97 577 Q 93 578 93 576 Q 88 575 88 577 L 79 577 L 78 578 L 74 578 L 70 580 L 67 580 L 61 582 L 46 589 L 37 595 L 18 616 L 15 617 L 15 619 L 11 624 L 11 626 L 15 628 L 23 629 L 38 636 L 48 644 L 65 663 L 75 678 L 81 696 L 82 706 L 83 707 L 83 715 L 84 716 L 85 729 L 86 730 L 87 737 L 89 738 L 95 737 L 110 730 L 124 730 Q 124 732 129 731 L 139 736 L 145 744 L 153 762 L 153 770 L 154 771 L 154 777 L 155 778 L 155 788 L 156 789 L 156 797 L 159 799 L 162 798 L 169 798 L 172 796 L 178 794 L 182 794 L 183 793 L 187 794 L 186 794 L 183 797 L 182 801 L 175 814 L 174 820 L 158 823 L 149 827 L 147 827 L 145 826 L 144 818 L 143 817 L 142 810 L 140 807 L 140 805 L 136 797 L 132 791 Q 127 790 126 793 L 126 819 L 127 820 L 127 834 L 128 835 L 129 847 L 130 848 L 131 856 L 135 864 L 142 868 L 152 868 L 153 867 L 161 866 L 169 863 L 172 863 L 173 862 L 180 864 L 186 874 L 198 885 L 220 902 L 228 906 L 240 909 L 256 928 L 264 940 L 269 951 L 275 955 L 278 955 L 282 953 L 287 949 L 312 922 L 315 916 L 314 913 L 311 910 L 307 910 L 306 911 L 300 912 Q 291 915 286 922 L 276 907 L 273 905 L 275 903 L 278 903 L 292 897 L 306 888 L 309 885 L 317 893 Q 324 896 329 901 L 341 907 L 347 909 L 350 909 L 351 910 L 355 910 L 356 911 L 362 911 L 367 909 L 374 909 L 384 903 L 393 905 L 417 917 L 423 918 L 424 919 L 428 919 L 429 920 Q 430 918 435 919 L 446 913 L 453 906 L 453 903 L 447 903 L 441 905 L 433 905 L 440 896 L 440 892 L 429 897 L 423 897 L 414 894 L 411 894 L 407 892 L 404 892 L 403 891 L 394 891 L 393 890 L 376 890 L 361 898 L 358 898 L 354 900 L 346 898 L 332 891 Q 324 887 318 880 L 318 877 L 322 873 L 329 878 L 339 883 L 344 883 L 347 880 Q 346 875 348 875 L 348 869 L 344 864 L 344 862 L 343 862 L 336 856 L 336 854 L 338 851 L 341 842 L 352 835 L 361 832 L 378 832 Q 379 834 383 833 L 384 834 L 390 835 L 395 838 L 400 839 L 402 841 L 404 841 L 407 837 L 410 826 L 417 813 Q 425 802 438 796 L 445 795 L 446 794 L 461 794 L 462 793 L 464 794 L 470 794 L 473 795 L 474 794 Q 473 790 475 790 L 475 778 L 476 777 L 477 767 L 480 758 L 480 755 L 482 751 L 482 748 L 487 733 L 489 730 L 489 728 L 498 710 Q 503 706 505 700 L 523 680 L 522 676 L 515 670 L 503 666 Q 499 667 500 665 L 511 655 L 519 651 L 521 648 L 521 645 L 519 642 Q 515 643 515 641 L 506 643 L 498 648 L 493 648 L 494 646 L 502 639 L 506 635 L 507 632 L 506 629 L 501 629 L 498 630 L 487 637 L 478 648 L 476 650 L 470 652 L 447 666 L 426 683 L 402 707 L 385 729 Q 386 731 383 730 L 383 716 L 382 715 L 381 706 L 373 689 L 377 689 L 381 686 Q 385 683 386 678 L 384 676 L 382 679 Q 378 685 371 686 L 372 680 L 373 679 L 373 676 L 374 675 L 374 672 L 375 671 L 375 668 L 376 667 L 376 664 L 377 663 L 377 659 L 382 644 L 383 632 Q 385 630 384 626 L 385 625 L 385 620 L 386 619 L 386 611 L 387 610 L 387 596 L 388 595 L 388 566 L 387 565 L 387 555 L 386 554 L 386 545 Q 384 543 385 540 L 382 533 L 378 529 Q 373 528 371 530 L 364 538 L 359 549 L 355 562 L 350 571 L 346 583 L 344 594 L 343 595 L 343 599 L 342 600 L 342 604 L 339 612 L 338 619 L 335 626 L 335 629 L 331 638 L 331 640 L 324 653 L 324 656 L 323 658 L 321 658 L 315 655 L 308 655 L 303 653 L 293 652 L 293 635 L 294 634 L 293 631 L 293 588 L 292 587 L 293 584 L 292 581 L 292 565 L 291 564 L 291 553 L 290 552 L 290 541 L 289 540 L 288 525 L 287 524 L 287 520 L 286 519 L 285 511 L 280 499 L 276 495 L 272 495 Z " /><path fill="rgb(254,254,254)" stroke="rgb(254,254,254)" stroke-width="0" opacity="1" d="M 442.5 223 L 445 229 Q 449.1 230.7 448 226.5 L 449 226.5 L 449 237.5 L 450 238.5 Q 448.8 243.2 451 244.5 L 451 252.5 L 453 258.5 L 453 263.5 L 454 264.5 L 454 267.5 L 457 276.5 L 466 293.5 L 470 307.5 Q 473.1 310.9 474 316.5 Q 479.7 326.3 488.5 333 L 494.5 337 L 506 347.5 L 502.5 348 Q 489.8 342.2 481 332.5 L 470 319.5 L 465 309.5 L 461 297.5 L 458 292.5 L 457 286.5 L 446 254.5 L 446 251.5 L 444 246.5 L 444 242.5 L 443 241.5 L 443 237.5 L 442 236.5 L 442 229.5 Q 440.3 228.8 441 225.5 L 442.5 223 Z " /><path fill="rgb(254,254,254)" stroke="rgb(254,254,254)" stroke-width="0" opacity="1" d="M 607.5 311 L 612.5 311 L 615 312 L 615 318.5 L 616 320.5 L 614 325.5 L 614 330.5 L 613 331.5 L 613 335.5 L 612 336.5 L 611 343.5 L 607 350.5 L 604.5 359 Q 602.3 357.3 603 352.5 Q 601.3 347.7 597.5 345 Q 594.7 342.8 588.5 344 Q 583 346 580 350.5 L 579 358.5 L 578 359.5 L 578 383.5 L 579 384.5 L 580 401.5 L 573 409.5 L 573 412.5 L 566.5 421 Q 564.3 419.2 559.5 420 L 558.5 419 L 546.5 419 L 542 422.5 Q 541.2 425.1 544.5 424 L 545.5 423 L 554.5 423 L 555.5 424 L 559.5 424 L 564.5 426 L 573.5 427 L 577.5 429 L 580.5 429 L 587.5 432 L 590 432 Q 590.8 434.6 589 435.5 L 589 442.5 Q 590.5 445.5 592 442.5 L 593 437.5 L 598 427.5 L 598 425.5 L 607 412.5 L 616 403.5 L 624 391.5 L 657.5 356 L 658 356.5 L 654 360.5 L 638 385.5 L 632 397.5 L 630 404.5 L 625 412.5 L 625 415.5 L 623 419.5 L 622 427.5 L 621 428.5 L 621 435.5 L 623 440 L 627.5 442 L 632.5 442 L 638 438.5 Q 639.1 435.2 636.5 436 Q 634.8 438.8 629.5 438 L 625 434.5 L 625 430.5 L 626 429.5 L 626 425.5 L 627 424.5 L 628 417.5 L 632 408.5 L 635 404.5 L 635 402.5 L 640 391.5 L 657 363.5 L 675.5 342 L 684.5 339 L 687 340 Q 686.3 342.6 688 343.5 L 688 359.5 L 687 360.5 L 687 364.5 L 686 365.5 L 684 376.5 L 676 393.5 L 653 425.5 L 648 434.5 L 646 440.5 L 640 446.5 L 639 449.5 L 641.5 450 L 644.5 447 L 645 447.5 L 644 450.5 L 644 459.5 L 643 460.5 L 643 466.5 L 642 467.5 Q 643.3 472.3 641 473.5 L 641 483.5 L 640 484.5 L 640 488.5 L 638 493.5 L 638 497.5 L 633 511.5 L 625.5 522 L 624 522.5 L 624 527.5 L 626 530.5 L 623 532.5 L 622 540 L 619.5 540 L 615 542 Q 615.5 544.5 613 545.5 L 612 551.5 L 610.5 553 L 605 557.5 Q 606.3 561.7 601.5 560 L 598 562.5 Q 598.8 564.8 596.5 564 Q 595.1 560.8 590 562 L 588.5 565 L 588 563 Q 583.3 562 582 565.5 L 581.5 567 L 578.5 565 L 572.5 564 L 569.5 565 Q 567.3 560.7 559.5 562 L 557 563 Q 557.5 560.1 554.5 559 L 549.5 559 Q 548.6 560.8 546 560 Q 545.8 556 542.5 554 Q 537.2 553.2 535.5 556 L 532.5 550 Q 528.1 548.5 529 551.5 Q 533 552.5 532 558.5 Q 530.8 561.3 529.5 559 L 526 556.5 L 526 552.5 Q 528.5 551.5 528 549 Q 523.9 550.7 525 546.5 L 521.5 542 Q 518.9 541.2 520 544.5 Q 522.8 546.2 522 551.5 L 519.5 553 L 517 552 L 516 549.5 L 516 545 L 519 543.5 L 517 540.5 L 516 535.5 L 504 523.5 L 500 515.5 L 499 507.5 L 498 506.5 L 498 484.5 L 499 483.5 L 499 478.5 L 501 473.5 L 501 469.5 L 502 468.5 L 504 457 Q 506.9 456.5 508 459.5 L 509.5 462 L 511 462.5 Q 508 465.5 508 471.5 L 508.5 472 L 511 469.5 L 511.5 468 L 512 470.5 Q 510.2 471.4 511 474 Q 513.7 475.1 513 472.5 L 515 466.5 L 516.5 465 L 519 465.5 L 515 474.5 L 515 479.5 L 518.5 484 L 522.5 486 L 525.5 486 L 534.5 489 L 546.5 489 L 550 485.5 L 553 479.5 L 555 473.5 L 555 470.5 L 556 469.5 L 556 463.5 Q 554.3 462.8 555 459.5 L 551.5 454 L 546.5 453 L 542.5 456 L 541 453 L 537.5 452 L 529.5 456 Q 527.7 450.2 523 447.5 L 523 444.5 L 525 440.5 L 525 438 L 522 439.5 L 519.5 446 L 519 440.5 L 520 438 L 517 439.5 L 516 444 L 511 444 L 511 442.5 L 522 431.5 L 525 426.5 L 529 418.5 L 531 409.5 L 537 397.5 L 539 390.5 L 552 366.5 L 572 339.5 L 581.5 330 Q 590.6 324.1 597.5 316 L 607.5 311 Z M 589 452 L 587 457 L 587 459 L 586 460 L 584 459 L 573 459 L 568 461 L 565 464 Q 565 467 567 467 L 573 464 L 585 464 L 586 465 Q 588 464 587 469 Q 589 472 594 473 L 596 470 L 599 474 L 599 475 L 594 477 L 587 477 L 586 476 L 578 475 L 566 469 Q 563 468 564 473 L 574 479 L 576 479 L 575 486 L 574 487 L 575 491 L 577 489 L 579 480 L 583 481 Q 584 484 582 486 L 582 490 L 581 491 Q 579 496 583 495 L 585 490 L 586 482 L 597 481 L 603 478 L 604 476 L 603 472 L 594 464 L 599 456 L 596 454 Q 596 458 593 460 L 593 461 L 590 461 L 590 458 L 592 454 L 592 452 L 589 452 Z M 523 489 L 522 492 L 522 496 L 521 497 Q 520 502 523 503 L 528 502 L 533 497 Q 535 499 542 498 L 547 506 L 547 507 L 551 507 L 553 502 L 553 492 L 552 490 L 542 494 L 536 494 L 528 489 L 523 489 Z " /><path fill="rgb(254,254,254)" stroke="rgb(254,254,254)" stroke-width="0" opacity="1" d="M 637.5 342 L 640.5 342 L 644 345.5 L 645 351.5 L 641 362.5 L 636 368.5 L 635 371.5 L 625.5 382 L 626 380.5 L 631 369.5 L 631 367.5 L 637 359.5 Q 636.3 356.3 638 355.5 L 638 343.5 L 637.5 342 Z " /><path fill="rgb(254,254,254)" stroke="rgb(254,254,254)" stroke-width="0" opacity="1" d="M 631.5 344 Q 634.8 342.9 634 345.5 Q 636 346.5 635 350.5 L 632.5 355 Q 628.3 355.8 626.5 359 L 625 359 L 625 360.5 L 612 379.5 L 611 385.5 L 607 392.5 L 605 400.5 L 601 409.5 L 601 413.5 L 595 421.5 L 592.5 428 L 592 425.5 L 594 421.5 L 594 417.5 L 595 416.5 L 598 401.5 L 608 381.5 L 609 376.5 L 615 365.5 L 619 360.5 L 622 353.5 L 629.5 345 L 631.5 344 Z " /><path fill="rgb(254,254,254)" stroke="rgb(254,254,254)" stroke-width="0" opacity="1" d="M 532.5 346 Q 538.3 345.2 540 348.5 L 543 355.5 L 543 358.5 L 547 364.5 L 547 366.5 L 546 369 Q 543.3 370.1 544 367.5 L 537 354.5 L 531 347.5 L 532.5 346 Z " /><path fill="rgb(254,254,254)" stroke="rgb(254,254,254)" stroke-width="0" opacity="1" d="M 588.5 349 Q 592.9 347.5 592 350.5 L 589 353.5 L 588 356.5 Q 588.8 359.7 587 360.5 L 587 371.5 L 586 372.5 L 587 373.5 L 587 379.5 L 588 380.5 L 588 394.5 L 590 400.5 L 590 411.5 Q 588 412.5 589 416.5 L 587.5 418 Q 584.8 418.3 585 417.5 L 585 407.5 L 584 406.5 L 584 388.5 L 583 387.5 L 583 380.5 L 582 379.5 L 582 368.5 L 583 367.5 L 583 356.5 Q 584.8 355.8 584 352.5 L 586.5 350 L 588.5 349 Z " /><path fill="rgb(254,254,254)" stroke="rgb(254,254,254)" stroke-width="0" opacity="1" d="M 526.5 351 L 528.5 351 L 532 354.5 Q 532.3 357.3 531.5 357 L 520.5 357 L 513 354.5 L 514.5 354 Q 515.3 355.8 518.5 355 L 526.5 351 Z " /><path fill="rgb(254,254,254)" stroke="rgb(254,254,254)" stroke-width="0" opacity="1" d="M 597.5 351 L 599 354.5 L 599 369.5 L 598 370.5 L 598 375.5 L 597 376.5 L 596.5 382 L 596 367.5 L 597 366.5 L 597 358.5 L 598 355.5 Q 595.9 354.4 597.5 351 Z " /><path fill="rgb(254,254,254)" stroke="rgb(254,254,254)" stroke-width="0" opacity="1" d="M 592.5 354 L 593 369.5 L 592 370.5 L 591.5 381 L 590 363.5 L 591 362.5 L 591 357.5 L 592.5 354 Z " /><path fill="rgb(254,254,254)" stroke="rgb(254,254,254)" stroke-width="0" opacity="1" d="M 631.5 359 L 632 360.5 L 626 369.5 L 625 374.5 L 619 384.5 L 616 393.5 L 607.5 406 L 607 404.5 L 609 400.5 L 610 394.5 L 614 387.5 L 615 382.5 L 618 376.5 L 626 364.5 L 631.5 359 Z " /><path fill="rgb(254,254,254)" stroke="rgb(254,254,254)" stroke-width="0" opacity="1" d="M 419 372 L 428 376 Q 427.5 378.5 430 379.5 L 430 381.5 L 432 384.5 L 433 389 L 426.5 388 L 425 386.5 L 424 380.5 L 419 373.5 L 419 372 Z " /><path fill="rgb(254,254,254)" stroke="rgb(254,254,254)" stroke-width="0" opacity="1" d="M 713.5 374 L 716 383 Q 718.5 383.5 719.5 381 L 720 382.5 L 719 383.5 L 719 386.5 L 715 398.5 L 708 408.5 L 702.5 414 L 696.5 418 L 689.5 419 L 689 418.5 L 693 414.5 L 706 395.5 L 706 393.5 L 708 390.5 L 713.5 374 Z " /><path fill="rgb(254,254,254)" stroke="rgb(254,254,254)" stroke-width="0" opacity="1" d="M 406.5 380 Q 416.4 380.6 420 387.5 L 417 390.5 L 417 392.5 L 419.5 396 L 429.5 403 L 433 404 L 433 400.5 L 428.5 396 L 422 392.5 L 425.5 392 L 437.5 397 L 452 409.5 L 465 424.5 L 480 446.5 L 494 474.5 L 495 477.5 L 495 483.5 L 494 484.5 L 494 506.5 L 495 507.5 L 495 511.5 L 499 523.5 L 506.5 532 L 510 534.5 L 506 539.5 L 506 543.5 L 510.5 547 L 513 546 Q 513.5 548.5 511 549.5 L 511 552.5 Q 512.8 553.2 512 556.5 L 511 557.5 L 511 568.5 Q 512.8 569.3 512 572.5 L 511.5 573 L 509.5 571 L 502.5 566 L 495.5 563 Q 492.2 563.8 491.5 562 L 484.5 562 L 483.5 561 L 478.5 561 L 477.5 562 L 468.5 562 L 467.5 563 L 463.5 563 L 462.5 564 L 459.5 564 L 457 565 Q 456 561.6 458 560.5 L 458 556.5 L 459 555.5 L 459 550.5 L 461 546.5 L 461 543.5 L 469 528.5 L 478.5 519 L 483 516.5 L 479.5 516 Q 472.4 519.4 468 525.5 L 465 529.5 L 458.5 543 L 458 541.5 L 466 524.5 L 479.5 511 L 488 506.5 L 482.5 506 Q 474.1 509.6 469 516.5 L 462 524.5 L 459 533.5 L 453.5 545 L 452 538.5 L 447 529.5 L 435.5 517 L 430.5 514 L 419.5 511 L 416.5 509 L 410.5 508 L 409 506.5 Q 412.5 499 418.5 494 L 437.5 480 L 447 475.5 L 442.5 475 L 427.5 483 L 411 497.5 L 404.5 507 L 403 504.5 L 404 503.5 L 404 496.5 L 405 495.5 L 406 449.5 L 405 448.5 L 405 431.5 Q 403 430.5 404 426.5 Q 405.8 425.8 405 422.5 L 404 421.5 L 404 415.5 L 403 414.5 L 403 405.5 L 402 404.5 L 402 400 L 404.5 401 L 407.5 401 L 411.5 403 L 426 416.5 L 448 443.5 L 458 461.5 L 450.5 462 L 443.5 465 L 419 482.5 L 408 494.5 L 405 503 Q 407.7 504.1 407 501.5 L 421.5 485 L 441.5 471 L 449.5 467 L 452.5 466 L 458.5 466 L 459.5 465 L 465.5 473 L 467 473 L 467 468.5 L 456 447.5 L 446 432.5 L 422.5 406 L 412.5 398 L 409.5 397 L 404.5 397 L 403.5 396 L 399.5 396 L 398 394.5 L 404.5 394 L 413.5 397 Q 415.8 396.3 415 392.5 L 412 385.5 L 408.5 382 Q 404.7 381.3 406.5 380 Z M 419 420 L 419 422 L 442 446 L 448 455 Q 449 457 450 456 L 449 452 L 436 434 L 424 421 L 419 420 Z " /><path fill="rgb(254,254,254)" stroke="rgb(254,254,254)" stroke-width="0" opacity="1" d="M 767.5 392 L 769 392.5 L 763 400.5 L 759 412.5 Q 760.2 415.3 761.5 413 L 772.5 408 L 776.5 408 L 777.5 407 L 782.5 407 L 785.5 406 L 786 406.5 L 783.5 409 L 781.5 409 L 775.5 412 L 763 421.5 Q 762.2 424.1 765.5 423 L 766.5 424 L 778.5 424 Q 779.4 425.8 782 425 Q 783.4 428.7 777.5 427 L 776.5 428 L 761.5 429 L 738.5 439 L 719.5 452 L 693 476.5 L 670 503.5 L 663 514.5 L 663 516.5 L 665.5 518 Q 670.1 514.1 672 507.5 L 675.5 504 L 676 505.5 L 675 506.5 L 675 513.5 Q 673 514.5 674 518.5 L 675 519.5 L 675 533.5 L 676 534.5 L 677 547.5 L 678 548.5 L 679 556.5 L 680 557.5 L 680 560.5 L 683 569.5 L 682 572.5 L 688 583.5 L 686.5 583 L 681.5 581 L 672.5 574 L 663.5 570 L 660.5 570 L 655.5 568 L 651.5 568 L 640.5 564 L 633.5 564 L 632 566.5 L 634.5 569 L 639.5 569 L 650.5 573 L 659.5 574 L 661 575.5 L 664 584.5 L 664 610.5 L 663 611.5 L 662 619.5 L 659.5 624 L 658 621 L 655 621 L 655 622.5 L 664 633.5 L 666 637.5 L 670.5 642 Q 672.5 641.5 672 638.5 L 669 634.5 L 669 631.5 L 683.5 615 Q 685.7 613.2 690.5 614 L 694 617.5 L 698 625.5 L 699 630.5 L 702 635.5 L 703 640.5 L 706 646.5 L 706 650.5 L 704.5 650 L 693 639.5 L 693 634.5 L 691.5 634 L 689 637.5 L 689 639.5 L 680 658.5 L 671.5 668 Q 669.3 669.8 664.5 669 L 657.5 666 L 644 653.5 L 642 649.5 L 631.5 639 L 629 639 L 629 643 Q 631.7 641.9 631 644.5 L 618.5 652 L 612.5 654 L 608.5 654 Q 607 651.5 605.5 655 Q 601.8 654.3 601 656.5 L 602.5 659 L 605 659 L 605 664.5 L 607 669.5 L 607 675.5 L 611 684.5 L 611 686.5 Q 615 695.5 622.5 701 L 630 705.5 L 629 712.5 L 628 713.5 L 628 717.5 L 627 718.5 L 627 726.5 Q 624.8 727.8 626 732.5 L 625 733.5 L 625 737.5 L 623 743.5 L 623 752.5 L 621.5 755 L 618 744.5 L 618 740.5 L 617 739.5 L 616 731.5 L 612.5 725 L 604.5 721 L 595 711.5 L 588 700.5 L 584 690.5 L 584 686.5 L 583 685.5 L 583 682.5 L 582 681.5 L 582 678.5 L 581 677.5 L 581 674.5 L 578 665.5 L 578 657.5 Q 576.3 656.6 577 654 L 568.5 651 L 554.5 642 L 536 623.5 L 528 612.5 L 519 592.5 Q 520 588.5 518 587.5 L 518 580.5 L 516 576.5 L 515 555 L 517.5 556 L 521.5 556 L 523 557.5 L 526.5 562 L 531.5 563 L 534 562 Q 533.5 564.9 536.5 566 L 540.5 568 L 544.5 568 L 550.5 572 L 554.5 572 L 557.5 569 L 558 569.5 L 561.5 574 Q 563.7 575.8 568.5 575 Q 569.5 573 570.5 575 L 577.5 577 L 582.5 573 L 584.5 575 L 588.5 576 L 592.5 573 Q 593.8 575.3 598.5 574 Q 600 570.5 601.5 573 Q 607.8 574.3 609 570.5 L 610 566 L 612.5 567 L 615.5 566 L 618 563.5 L 620 559.5 L 620 556 L 621.5 556 L 625 552.5 L 626 549.5 L 626 544 L 630.5 544 L 632 542.5 L 634 536.5 L 630.5 532 L 629 531.5 L 633 528.5 L 633 525.5 L 632 523 Q 629.3 524.1 630 521.5 L 638 508.5 L 641 498.5 L 665.5 471 L 719.5 425 L 740.5 413 L 751 412 Q 752.1 414.7 749.5 414 L 737 422.5 L 735 426.5 L 736.5 428 L 741.5 423 L 753 417 L 755 411.5 L 754 409 L 749 407.5 Q 756.3 397.8 767.5 392 Z M 672 524 L 671 533 L 672 534 L 672 540 L 673 541 L 674 551 L 675 552 L 675 555 L 676 556 L 678 566 Q 679 568 680 567 L 680 563 L 677 554 L 677 551 L 676 550 L 676 546 L 675 545 L 675 539 Q 673 537 674 533 L 673 532 L 673 526 L 672 524 Z " /><path fill="rgb(254,254,254)" stroke="rgb(254,254,254)" stroke-width="0" opacity="1" d="M 579.5 409 L 581 413.5 L 581 419.5 Q 580 422 579 420.5 L 577 412.5 L 579.5 409 Z " /><path fill="rgb(254,254,254)" stroke="rgb(254,254,254)" stroke-width="0" opacity="1" d="M 573 418 Q 576 416.8 575 420.5 L 576 422.5 L 574.5 422 Q 571.2 423.1 572 420.5 L 573 418 Z " /><path fill="rgb(254,254,254)" stroke="rgb(254,254,254)" stroke-width="0" opacity="1" d="M 585.5 422 Q 588.5 423.1 588 426 Q 585 426.8 584 424.5 L 585.5 422 Z " /><path fill="rgb(254,254,254)" stroke="rgb(254,254,254)" stroke-width="0" opacity="1" d="M 668.5 422 L 683 422.5 L 671.5 429 L 669.5 429 L 661.5 433 L 651.5 442 L 651 439.5 L 655 431.5 L 661.5 425 L 668.5 422 Z " /><path fill="rgb(254,254,254)" stroke="rgb(254,254,254)" stroke-width="0" opacity="1" d="M 783.5 430 L 786.5 431 L 792.5 431 L 809.5 439 Q 824.6 448.4 836 461.5 L 850 486.5 L 849.5 487 L 842.5 480 L 830.5 472 L 809.5 462 L 806.5 462 L 802.5 460 L 791.5 458 L 787.5 456 L 778.5 455 L 777.5 454 L 763.5 454 L 762.5 453 L 754.5 453 L 753.5 454 L 737.5 454 L 736.5 455 L 723.5 455 L 722.5 456 L 722 455.5 L 724.5 453 L 739.5 443 L 759.5 434 L 762.5 433 L 768.5 433 L 769.5 432 L 777.5 432 L 783.5 430 Z " /><path fill="rgb(254,254,254)" stroke="rgb(254,254,254)" stroke-width="0" opacity="1" d="M 512.5 448 L 516 449 L 516 455.5 L 519.5 459 L 523 456.5 L 523.5 454 L 526 457.5 Q 524.3 462.8 515.5 461 L 510 456.5 L 507 451.5 L 512.5 448 Z " /><path fill="rgb(254,254,254)" stroke="rgb(254,254,254)" stroke-width="0" opacity="1" d="M 537.5 457 L 538 459.5 L 537 460.5 L 537 465 L 539.5 465 L 546.5 458 L 548.5 458 L 551 461.5 L 552 468.5 L 548 480.5 L 544.5 485 L 532.5 484 L 528.5 482 L 525.5 482 L 520 480 L 519 476.5 Q 520.8 475.8 520 472.5 L 523 467.5 L 529.5 461 L 537.5 457 Z M 531 468 L 528 469 Q 529 471 526 473 L 526 476 L 529 477 L 532 472 Q 533 469 531 468 Z M 543 471 Q 539 473 540 479 L 543 480 Q 542 477 544 477 L 544 472 L 543 471 Z " /><path fill="rgb(254,254,254)" stroke="rgb(254,254,254)" stroke-width="0" opacity="1" d="M 752.5 457 L 768.5 457 L 769.5 458 L 779.5 458 L 780.5 459 L 784.5 459 L 795.5 463 L 798.5 463 L 799.5 464 L 809.5 466 L 835.5 479 L 848 489.5 L 846.5 489 L 831.5 489 L 830.5 490 L 827.5 490 L 815.5 494 L 791.5 507 L 779 519.5 L 772 531.5 L 767 547.5 L 762.5 556 L 759 543.5 L 748 520.5 L 737 504.5 L 728.5 496 L 716.5 488 L 702.5 481 L 696.5 480 L 695 481.5 L 697.5 484 L 701.5 485 L 718.5 494 Q 728.9 500.1 736 509.5 L 744 520.5 L 748 529.5 L 750 531.5 L 758 549.5 L 760 557.5 L 758.5 557 L 744.5 545 L 742.5 545 L 735.5 541 L 732.5 541 L 727.5 539 L 720.5 539 L 719.5 540 L 713.5 541 L 710.5 543 L 700 553.5 L 694 564.5 L 691 573.5 L 691 576.5 L 689.5 579 L 687 573.5 L 687 570.5 L 684 562.5 L 684 559.5 L 682 554.5 L 682 550.5 L 680 545.5 L 679 526.5 L 678 525.5 L 678 510.5 Q 680.2 509.2 679 504.5 L 681 500.5 L 681 495.5 L 709.5 466 L 713.5 463 L 768.5 462 L 769.5 463 L 779.5 463 Q 780.7 465.3 785.5 464 L 786.5 465 L 790.5 465 L 799.5 468 L 803.5 468 Q 805 467 802.5 466 L 793.5 463 L 786.5 462 L 785.5 461 L 774.5 460 L 773.5 459 L 739 458.5 L 751.5 458 L 752.5 457 Z M 701 476 L 701 478 L 704 480 L 720 487 L 727 492 Q 749 510 760 539 Q 761 541 762 540 L 761 534 L 756 523 L 749 514 L 748 511 L 735 496 L 719 483 L 713 481 L 704 476 L 701 476 Z " /><path fill="rgb(254,254,254)" stroke="rgb(254,254,254)" stroke-width="0" opacity="1" d="M 526.5 494 L 529 495.5 Q 527.9 498.5 525 498 Q 524.3 495 526.5 494 Z " /><path fill="rgb(254,254,254)" stroke="rgb(254,254,254)" stroke-width="0" opacity="1" d="M 547.5 496 Q 551.3 494.8 550 498.5 L 548.5 502 L 546 497.5 L 547.5 496 Z " /><path fill="rgb(254,254,254)" stroke="rgb(254,254,254)" stroke-width="0" opacity="1" d="M 272.5 499 L 275 503.5 L 275 516.5 L 276 517.5 L 276 533.5 L 275 534.5 L 275 552.5 L 274 553.5 L 273.5 559 L 271 546.5 L 268 540.5 L 267 535.5 L 258 520.5 L 264 506.5 L 270.5 500 L 272.5 499 Z " /><path fill="rgb(254,254,254)" stroke="rgb(254,254,254)" stroke-width="0" opacity="1" d="M 278.5 504 L 282 513.5 L 282 517.5 L 283 518.5 L 283 522.5 L 285 528.5 L 285 537.5 L 286 538.5 L 286 547.5 L 287 548.5 L 287 559.5 L 288 560.5 L 288 578.5 L 289 579.5 L 289 624.5 L 290 626.5 Q 288 627.5 290 628.5 Q 291.3 633.3 289 634.5 L 290 635.5 L 290 646.5 Q 288 647.5 289 651.5 L 290 653.5 L 289 656 L 295.5 656 L 296.5 657 L 300.5 657 L 301.5 658 L 315.5 660 L 323.5 664 L 325.5 664 L 329.5 667 L 333 667 L 333 665.5 L 328.5 661 L 326 659.5 L 327 655.5 L 335 640.5 L 336 635.5 L 338 632.5 L 338 629.5 L 340 625.5 L 340 622.5 L 342 618.5 L 342 615.5 L 344 611.5 L 344 608.5 L 347 599.5 L 347 595.5 L 348 594.5 L 348 590.5 L 351 582.5 L 351 579.5 L 360.5 557 L 361 558.5 L 359 562.5 L 359 565.5 L 353 583.5 L 353 588.5 L 352 589.5 L 352 594.5 L 351 595.5 L 351 600.5 L 350 601.5 Q 351.2 606.3 349 607.5 L 348 623.5 L 347 624.5 L 347 629.5 L 346 630.5 Q 347.3 635.3 345 636.5 L 345 647.5 L 346 648.5 L 346 651.5 L 349 660.5 L 356.5 669 Q 358.7 670.8 363.5 670 L 368 666.5 L 371 660.5 L 371 658.5 L 370.5 658 L 368 660.5 L 364.5 665 L 359.5 666 L 355 662.5 L 351 655.5 L 351 652.5 L 349 648.5 L 349 644.5 L 359.5 636 L 380 626 L 380 631.5 L 378 637.5 L 378 642.5 L 375 650.5 L 375 653.5 L 374 654.5 L 374 657.5 L 373 658.5 L 373 661.5 L 372 662.5 L 372 665.5 L 369 674.5 L 369 678.5 L 367 682.5 L 367 688.5 L 371 693.5 L 378 710.5 L 378 716.5 L 379 717.5 L 379 746.5 L 378 747.5 L 378 757.5 L 377 758.5 L 376 764.5 L 372 772.5 L 365.5 780 L 362.5 779 L 361 781.5 Q 362.7 782.4 362 785 L 357 784 Q 356.5 786.5 359 787.5 L 355.5 791 L 343.5 798 L 337.5 799 L 336.5 800 Q 331.8 798.8 330.5 801 L 322.5 801 L 320.5 802 Q 319.5 800 318.5 802 L 316.5 801 L 307.5 801 L 306.5 800 L 295.5 798 L 287.5 794 L 279.5 792 L 269.5 787 L 258 776.5 L 247 762.5 L 239 747.5 L 236 738.5 L 236 735.5 L 235 734.5 L 234 724.5 L 232 721.5 L 231 700.5 L 232 699.5 L 232 686.5 L 233 685.5 L 233 677.5 L 234 676.5 L 234 670.5 L 235 669.5 L 235 663.5 L 236 662.5 L 237 641.5 L 238 640.5 L 238 632.5 L 239 631.5 Q 237.7 626.8 240 625.5 L 240 615.5 L 241 614.5 L 241 607.5 Q 243 606.4 242 603 L 250.5 606 L 264 617.5 L 266 620.5 L 266 629.5 L 265 630.5 L 265 634.5 L 262 641.5 L 261 647.5 L 258.5 651 L 253.5 652 L 250 648.5 L 245 638.5 Q 245.7 635.2 244 634.5 L 244 627.5 L 242.5 624 L 241 625.5 L 241 635.5 L 246 648.5 L 251.5 655 Q 253.7 656.8 258.5 656 L 263 652.5 L 267 642.5 L 267 639.5 L 270 630.5 L 271 616.5 L 272 615.5 L 272 611.5 L 274 605.5 L 274 600.5 L 275 599.5 L 275 588.5 L 276 587.5 L 277 566.5 L 278 565.5 L 278 549.5 L 279 548.5 L 279 507.5 Q 277.1 506.6 278.5 504 Z M 280 681 L 273 684 L 271 684 L 271 687 Q 274 688 276 686 L 284 686 L 285 684 L 282 681 L 280 681 Z M 350 697 L 350 699 L 356 702 Q 359 703 358 700 Q 356 696 350 697 Z M 275 700 L 271 702 L 264 711 L 261 720 L 261 723 L 260 724 L 260 729 L 263 737 L 271 742 L 278 742 L 283 737 L 288 722 L 288 718 L 286 714 L 286 710 L 284 705 L 280 700 L 275 700 Z M 308 707 L 305 709 L 298 717 L 294 729 L 295 735 L 297 738 L 293 740 L 287 741 Q 284 742 285 746 L 290 748 L 298 747 L 303 744 L 311 747 L 320 747 Q 320 745 325 746 Q 327 748 328 752 L 331 754 L 338 757 Q 342 758 342 755 L 342 753 L 335 744 L 335 741 L 338 734 L 338 724 L 335 716 L 329 710 L 323 710 L 318 714 L 316 712 Q 314 707 308 707 Z M 352 712 L 345 725 L 344 728 L 344 733 L 343 734 L 344 744 L 346 748 Q 349 753 356 755 L 361 754 L 365 747 L 366 744 L 366 739 L 367 738 L 365 725 L 362 719 Q 359 713 352 712 Z M 305 747 L 303 749 L 303 752 L 299 763 Q 298 765 301 766 L 303 766 L 312 757 L 316 756 L 319 764 L 324 768 L 325 768 L 327 764 L 327 756 L 326 753 L 324 750 L 321 752 L 314 752 L 307 747 L 305 747 Z " /><path fill="rgb(254,254,254)" stroke="rgb(254,254,254)" stroke-width="0" opacity="1" d="M 257.5 524 L 263 533.5 L 269 551.5 L 269 554.5 L 271 559.5 L 271 563.5 L 273 567.5 L 273 578.5 L 272 579.5 L 272 587.5 L 271 588.5 L 270.5 596 L 263 580.5 L 252.5 569 L 247 568 L 247 562.5 L 248 561.5 L 250 547.5 L 251 546.5 L 253 535.5 L 257.5 524 Z " /><path fill="rgb(254,254,254)" stroke="rgb(254,254,254)" stroke-width="0" opacity="1" d="M 628.5 525 L 630 528 L 627 526.5 L 628.5 525 Z " /><path fill="rgb(254,254,254)" stroke="rgb(254,254,254)" stroke-width="0" opacity="1" d="M 376.5 534 L 379 535.5 L 382 543.5 L 383 556.5 L 362 582.5 L 359 587.5 L 359 589.5 L 355.5 597 L 355 594.5 L 356 593.5 L 356 587.5 L 357 586.5 L 359 575.5 L 363 565.5 L 363 562.5 L 366 555.5 L 367 549.5 L 371 540.5 L 376.5 534 Z " /><path fill="rgb(254,254,254)" stroke="rgb(254,254,254)" stroke-width="0" opacity="1" d="M 626 535 L 629 536.5 Q 630.5 540.9 627.5 540 Q 625 538.8 626 535 Z " /><path fill="rgb(254,254,254)" stroke="rgb(254,254,254)" stroke-width="0" opacity="1" d="M 511.5 538 L 513 538 L 513 543 Q 510 543.8 509 541.5 L 511.5 538 Z " /><path fill="rgb(254,254,254)" stroke="rgb(254,254,254)" stroke-width="0" opacity="1" d="M 619.5 544 Q 622.8 542.9 622 545.5 L 623 548.5 L 620.5 552 Q 615.8 552.8 615 549.5 L 619.5 544 Z " /><path fill="rgb(254,254,254)" stroke="rgb(254,254,254)" stroke-width="0" opacity="1" d="M 125.5 548 Q 135.9 556.8 141 570 L 135 571 L 134 575.5 Q 138.4 584.1 146 589.5 L 148 595 L 151 593.5 L 148 586.5 L 138 575.5 L 138 574 L 145.5 577 L 156 585.5 L 170 601.5 L 187 627.5 L 207 654.5 L 215 667.5 L 218 673.5 L 218 675.5 L 228 694.5 L 228 717.5 Q 230.3 718.8 229 723.5 Q 227.3 724.3 228 727.5 L 229 728.5 L 229 746.5 L 230 747.5 L 230 751.5 L 231 752.5 L 231 755.5 L 234 764.5 L 244 782.5 L 254.5 793 L 265 800.5 L 257.5 804 L 242.5 805 L 241.5 806 L 237.5 806 L 236.5 807 L 222.5 809 L 217 814.5 L 218 825.5 L 221 832.5 L 223.5 835 L 233.5 839 L 245.5 839 Q 246.2 837.3 249.5 838 L 250 838.5 L 240.5 848 L 228.5 855 L 222.5 856 L 220 858.5 L 221.5 861 L 227 862.5 L 220 868.5 L 222.5 872 L 230.5 872 L 236.5 869 L 238.5 869 Q 247.3 865.3 253.5 859 L 255 859 L 255 857.5 L 277 832.5 L 286 814.5 L 286 812.5 L 287.5 811 L 288 815.5 L 287 816.5 L 287 827.5 L 288 828.5 L 288 832.5 L 289 833.5 L 289 837.5 L 290 838.5 L 290 842.5 L 291 843.5 L 292 850.5 L 296 862.5 L 305 881.5 L 301.5 885 L 281.5 896 L 260.5 903 L 257 903 L 257 907 L 263.5 907 L 267.5 905 L 274 911.5 L 281 924.5 L 283.5 927 L 287.5 927 L 294.5 920 L 309 915 L 309 916.5 Q 300.9 923.4 295 932.5 L 280.5 947 L 277.5 949 L 274.5 949 L 268 936.5 L 260 924.5 L 247 909.5 L 249 909 Q 249.5 906.1 246.5 905 L 242.5 905 L 241.5 904 L 233.5 903 L 222.5 898 L 201.5 882 L 187 867.5 L 186 863.5 L 182.5 860 L 176.5 857 L 169.5 857 L 165.5 859 L 162.5 859 L 153.5 862 L 143.5 863 L 137 857.5 L 134 848.5 L 134 842.5 L 132 836.5 L 132 826.5 L 131 825.5 L 131 802.5 Q 129 801.5 130 797.5 L 131 797.5 L 136 807.5 L 139 816.5 L 141 827.5 L 144.5 832 L 148.5 832 L 154.5 829 L 164.5 827 L 165.5 826 Q 169.5 827 170.5 825 L 177.5 825 L 179 823.5 Q 177.3 822.8 178 819.5 L 180 813.5 L 185 804.5 L 186 799.5 L 189.5 794 Q 192 792 197.5 793 L 198.5 794 L 215.5 794 Q 216.5 796 220.5 795 Q 222.8 794 222 791 L 216.5 789 Q 210.3 790.2 207.5 788 Q 206.3 790.3 201.5 789 L 200.5 788 L 191.5 788 Q 190.8 786.3 187.5 787 L 186.5 788 L 181.5 788 L 180.5 789 L 172.5 790 L 161.5 794 L 161 791.5 Q 166.5 788 169 781.5 L 170 774.5 L 174 767.5 L 180 749.5 L 180 746.5 L 182 741.5 L 182 737.5 L 183 736.5 L 183 732.5 L 184 731.5 L 184 727.5 L 185 726.5 L 185 723.5 L 187 719.5 L 188 711.5 L 190 706.5 Q 189 702.5 191 701.5 L 191 694.5 L 192.5 690 L 196 697.5 L 198 706.5 L 200.5 709 L 203 705.5 L 200 696.5 L 198 693.5 L 198 691.5 L 196 688.5 L 196 686.5 L 193 681.5 L 193 679.5 L 176 648.5 L 155 618.5 L 135.5 598 L 126.5 590 L 102 578.5 L 110.5 578 L 118.5 581 L 124 581 L 124 578.5 Q 117.1 573.5 114 566 L 112.5 566 L 104 558.5 Q 103.3 556.3 105.5 557 L 117.5 563 L 125 569.5 L 127.5 573 Q 130.5 573.5 131 571.5 L 130 565.5 L 129 564.5 L 128 555.5 L 125 550.5 L 125.5 548 Z M 192 711 L 190 713 L 189 721 L 186 730 L 186 734 L 184 739 L 184 742 L 182 746 L 182 749 L 172 775 L 173 776 L 175 774 L 178 768 L 181 757 L 184 751 L 184 748 L 188 736 L 189 728 L 190 727 L 191 716 L 192 715 L 192 711 Z " /><path fill="rgb(254,254,254)" stroke="rgb(254,254,254)" stroke-width="0" opacity="1" d="M 613.5 555 Q 616.5 554.5 617 556.5 Q 615.3 557.2 616 560.5 L 613.5 563 Q 609.8 563.8 609 561.5 Q 608.3 557.8 610.5 557 L 613.5 555 Z " /><path fill="rgb(254,254,254)" stroke="rgb(254,254,254)" stroke-width="0" opacity="1" d="M 538.5 557 L 542 558 L 543 564 L 538 563 L 537 558.5 L 538.5 557 Z " /><path fill="rgb(254,254,254)" stroke="rgb(254,254,254)" stroke-width="0" opacity="1" d="M 383.5 562 L 385 584.5 Q 382.7 585.7 384 590.5 L 382.5 592 L 371.5 599 L 355 614.5 L 352.5 618 L 352 613.5 Q 354.2 612.3 353 607.5 Q 359.5 599 363 587.5 L 374 572.5 L 383.5 562 Z " /><path fill="rgb(254,254,254)" stroke="rgb(254,254,254)" stroke-width="0" opacity="1" d="M 549.5 562 Q 553.3 561.3 554 563.5 L 555 565.5 L 554 568 L 549.5 568 L 548 566.5 Q 547.3 562.8 549.5 562 Z " /><path fill="rgb(254,254,254)" stroke="rgb(254,254,254)" stroke-width="0" opacity="1" d="M 604.5 563 Q 606.8 562.3 606 564.5 L 607 566.5 L 606 569 L 602 569 L 602 567.5 Q 600.3 566.6 601 564 Q 603.6 564.8 604.5 563 Z " /><path fill="rgb(254,254,254)" stroke="rgb(254,254,254)" stroke-width="0" opacity="1" d="M 596.5 565 L 598 569.5 L 595.5 571 Q 593 569.8 594 566 L 596.5 565 Z " /><path fill="rgb(254,254,254)" stroke="rgb(254,254,254)" stroke-width="0" opacity="1" d="M 560 566 L 565.5 566 L 567 567.5 L 568 570.5 L 565.5 572 L 560 567.5 L 560 566 Z " /><path fill="rgb(254,254,254)" stroke="rgb(254,254,254)" stroke-width="0" opacity="1" d="M 586 566 Q 588.7 564.9 588 567.5 L 589 570.5 L 587.5 572 L 585 569.5 L 586 566 Z " /><path fill="rgb(254,254,254)" stroke="rgb(254,254,254)" stroke-width="0" opacity="1" d="M 571 567 L 576.5 568 L 580 570.5 L 579 573 L 573.5 573 L 571 570.5 L 571 567 Z " /><path fill="rgb(254,254,254)" stroke="rgb(254,254,254)" stroke-width="0" opacity="1" d="M 246 570 L 249.5 571 L 258 579.5 L 264 588.5 L 264 590.5 L 269 599.5 L 269 608.5 L 266.5 616 L 262.5 611 L 251.5 602 L 243 599 L 243 591.5 L 244 590.5 L 244 584.5 L 245 583.5 L 245 573.5 Q 246.8 572.6 246 570 Z " /><path fill="rgb(254,254,254)" stroke="rgb(254,254,254)" stroke-width="0" opacity="1" d="M 83.5 581 L 95.5 581 Q 96.5 583 100.5 582 L 104.5 585 L 124.5 594 L 147 615.5 L 156 627.5 L 154.5 627 L 142.5 623 L 139.5 621 L 134.5 620 L 131.5 618 L 126.5 617 L 123.5 615 L 117.5 614 L 109.5 611 L 106.5 611 L 105.5 610 L 92.5 609 L 91.5 608 L 68.5 608 L 66.5 607 L 65.5 608 L 57.5 608 L 56.5 609 L 51.5 609 L 50.5 610 L 46.5 610 L 45.5 611 L 38.5 612 L 29.5 615 L 19.5 620 L 19 619.5 L 42.5 596 L 62.5 586 L 71.5 583 L 74.5 583 L 75.5 582 L 82.5 582 L 83.5 581 Z " /><path fill="rgb(254,254,254)" stroke="rgb(254,254,254)" stroke-width="0" opacity="1" d="M 382.5 596 L 383 610.5 L 382 611.5 L 382 617.5 L 379.5 622 L 377.5 622 Q 372.2 626.7 364.5 629 L 353.5 636 L 349.5 640 L 349 634.5 L 350 633.5 L 351 624.5 L 366.5 608 L 382.5 596 Z " /><path fill="rgb(254,254,254)" stroke="rgb(254,254,254)" stroke-width="0" opacity="1" d="M 65.5 611 L 71.5 611 L 72.5 612 L 91.5 612 L 92.5 613 L 99.5 613 L 100.5 614 L 104.5 614 L 105.5 615 L 116.5 617 L 139 625.5 L 136.5 626 L 120.5 620 L 117.5 620 L 109.5 617 L 100.5 616 L 99.5 615 L 93.5 615 L 92.5 614 L 71 614 L 71.5 616 L 80.5 616 L 81.5 617 L 92.5 617 L 93.5 618 L 99.5 618 L 104.5 620 L 108.5 620 L 143.5 632 L 146.5 632 L 150.5 634 L 160.5 636 L 165 639.5 L 177 659.5 L 175.5 659 L 163.5 660 L 162.5 661 L 156.5 661 L 155.5 662 L 148.5 663 L 139.5 667 L 137.5 667 L 123.5 676 L 108 691.5 L 100 702.5 L 93 716.5 L 89.5 728 L 89 721.5 L 88 720.5 L 88 711.5 L 87 710.5 L 87 702.5 L 86 701.5 L 85 692.5 L 84 691.5 L 84 688.5 L 81 679.5 L 77 671.5 L 68 658.5 L 51.5 641 L 40.5 632 L 28.5 626 L 20 623.5 L 27.5 620 L 29.5 620 L 34.5 617 L 37.5 617 L 41.5 615 L 45.5 615 L 51.5 613 L 56.5 613 L 57.5 612 L 64.5 612 L 65.5 611 Z M 170 654 L 169 655 L 163 655 L 162 656 L 154 656 L 139 661 L 119 673 L 112 679 Q 101 686 96 699 L 97 700 L 106 688 L 121 675 L 142 663 L 151 660 L 154 660 L 155 659 L 163 659 L 164 658 L 171 658 L 172 657 Q 174 658 173 656 Q 173 653 170 654 Z " /><path fill="rgb(254,254,254)" stroke="rgb(254,254,254)" stroke-width="0" opacity="1" d="M 500.5 633 L 503 633.5 Q 495.4 636.9 491 643.5 L 488.5 648 L 482 647.5 L 487.5 641 L 500.5 633 Z " /><path fill="rgb(254,254,254)" stroke="rgb(254,254,254)" stroke-width="0" opacity="1" d="M 510.5 646 L 516 646.5 L 513.5 649 L 507.5 652 L 498 660.5 L 494 666.5 L 500.5 671 L 511.5 674 L 516 676.5 L 492.5 677 L 490.5 679 L 481.5 679 L 478.5 680 L 460.5 690 L 448.5 699 L 431 715.5 L 415 734.5 L 415 737.5 L 416.5 739 L 422 733.5 Q 421.1 730.5 425.5 732 L 434.5 736 L 448 749.5 L 457 760.5 L 462 770.5 L 464 772.5 L 469 783.5 L 470 789 Q 466.3 790.4 468 784.5 L 466 778.5 L 462 771.5 Q 456.7 767.3 454 760.5 L 442.5 749 L 437.5 746 L 435.5 746 L 435 746.5 L 440.5 752 L 451 761.5 Q 454.1 768.9 460 773.5 L 464 781.5 L 466 789 L 461.5 789 L 460.5 788 L 459.5 789 L 445.5 789 L 444.5 790 L 440.5 790 L 434.5 792 Q 422.2 798.2 414 808.5 L 410.5 815 L 409 804.5 L 408 803.5 L 407 792.5 L 399 777.5 L 390.5 769 L 389 768.5 Q 391 763 395.5 760 L 399 757.5 Q 398.5 755.5 395.5 756 L 389 761.5 L 386 765.5 L 385 769 L 383.5 769 L 379 773.5 Q 378.5 776.5 380.5 777 L 387.5 771 L 396 779.5 L 403 791.5 L 404 794.5 L 404 799.5 L 405 800.5 L 405 805.5 L 406 806.5 L 406 811.5 L 407 812.5 L 407 816.5 L 406 816.5 L 405 807.5 L 404 806.5 L 404 802.5 L 403 801.5 L 402 795.5 L 396 785.5 L 390.5 780 L 388.5 779 L 388 780.5 L 393 785.5 L 400 798.5 L 401 806.5 L 402 807.5 L 402 812.5 L 403 813.5 L 403 823.5 L 402 824.5 L 402 835 L 397.5 833 L 395.5 833 L 390.5 830 L 384.5 829 L 383.5 828 Q 378.8 829.3 377.5 827 L 361.5 827 L 360.5 828 L 354.5 829 L 350.5 832 L 348.5 832 L 344 834 L 344 831.5 L 346 827.5 L 346 824.5 L 347 823.5 L 347 820.5 L 348 819.5 L 348 807.5 Q 350 806.5 349 802.5 L 348 801.5 L 351.5 798 L 357.5 795 L 361.5 791 L 364.5 793 Q 367.2 791.8 365 790.5 Q 363.5 786.1 366.5 787 Q 367.6 789.8 371 789 L 371 786.5 Q 368.5 786 369 782.5 L 377 772.5 L 382 759.5 L 382 752.5 L 383 751.5 L 384 736.5 L 405 709.5 L 419.5 695 L 451.5 668 L 461.5 663 L 468.5 658 L 481.5 653 L 492.5 653 L 495 654 L 493.5 657 L 483.5 659 L 473.5 663 L 471 663 L 471 667 L 477.5 667 L 480.5 665 L 490.5 663 L 498 660 L 500 654.5 L 499 652.5 L 501.5 650 L 510.5 646 Z " /><path fill="rgb(254,254,254)" stroke="rgb(254,254,254)" stroke-width="0" opacity="1" d="M 177.5 662 L 180 663.5 L 189 681.5 L 188 682.5 L 188 697.5 Q 185.8 698.7 187 703.5 L 186 704.5 L 186 708.5 L 185 709.5 L 185 712.5 L 184 713.5 L 184 716.5 L 183 717.5 L 183 720.5 L 180 729.5 L 180 733.5 L 179 734.5 L 179 739.5 L 178 740.5 L 177 747.5 L 172 762.5 L 168 770.5 L 168 772.5 L 160.5 787 L 160 781.5 L 159 780.5 L 158 762.5 L 154 750.5 L 147 737.5 L 140.5 731 L 135.5 728 L 133.5 728 L 130.5 726 L 126.5 726 L 125.5 725 L 108.5 725 L 92.5 732 L 93 730.5 L 93 727.5 L 96 721.5 L 97 716.5 L 104 703.5 Q 112.5 691 123.5 681 Q 132.2 673.7 143.5 669 L 149.5 667 L 152.5 667 L 153.5 666 L 156.5 666 L 157.5 665 L 163.5 665 L 164.5 664 L 173.5 664 L 177.5 662 Z " /><path fill="rgb(254,254,254)" stroke="rgb(254,254,254)" stroke-width="0" opacity="1" d="M 500.5 681 L 510 681.5 L 489.5 688 L 466.5 698 Q 449 709 435 723.5 Q 434.3 725.8 436.5 725 L 445.5 717 L 466.5 702 L 478.5 696 L 509.5 686 L 510 686.5 L 508 688.5 L 495 705.5 L 484 727.5 L 475 754.5 L 475 758.5 L 472 767.5 L 470.5 779 L 461 759.5 L 450 745.5 L 438.5 734 L 432.5 730 L 426 728.5 L 442.5 711 L 456.5 699 L 474.5 687 L 484.5 683 Q 488.5 684 489.5 682 L 499.5 682 L 500.5 681 Z " /><path fill="rgb(254,254,254)" stroke="rgb(254,254,254)" stroke-width="0" opacity="1" d="M 276.5 704 L 281 707.5 Q 282.7 709.3 282 713.5 L 284 717.5 L 284 723.5 L 281 732.5 L 277.5 737 L 272.5 738 L 266 733.5 L 264 723.5 L 265 722.5 L 265 719.5 L 267 713.5 L 271.5 707 L 276.5 704 Z M 275 714 L 272 715 L 270 720 L 271 724 L 276 727 L 279 723 Q 280 718 278 717 L 275 714 Z " /><path fill="rgb(254,254,254)" stroke="rgb(254,254,254)" stroke-width="0" opacity="1" d="M 308.5 711 Q 312.4 711.6 314 714.5 L 316 720.5 L 317.5 722 L 323.5 714 L 327.5 714 L 332 718.5 L 334 722.5 Q 333 728 335 730.5 L 334 731.5 L 333 737.5 L 330.5 740 L 325.5 742 L 314.5 742 Q 313.8 743.8 310.5 743 L 304.5 741 L 301 737.5 L 299 734.5 L 298 729.5 L 302 717.5 L 308.5 711 Z M 306 721 L 305 724 L 304 732 L 307 733 L 308 731 L 308 727 L 309 726 Q 311 719 306 721 Z M 327 724 L 324 727 L 324 734 L 327 734 L 327 730 L 328 729 L 328 724 L 327 724 Z " /><path fill="rgb(254,254,254)" stroke="rgb(254,254,254)" stroke-width="0" opacity="1" d="M 353.5 717 L 359 721.5 L 361 725.5 L 363 735.5 L 362 736.5 L 362 742.5 L 359 750 L 356.5 751 L 350 746.5 L 348 742.5 L 347 734.5 L 348 733.5 L 348 726.5 L 351 721.5 L 351 719.5 L 353.5 717 Z M 354 728 L 351 732 Q 350 736 352 739 Q 353 742 357 741 L 359 739 L 360 736 L 358 729 L 354 728 Z " /><path fill="rgb(254,254,254)" stroke="rgb(254,254,254)" stroke-width="0" opacity="1" d="M 232.5 742 L 234 747.5 L 240 759.5 L 247 770.5 L 267.5 791 L 275.5 795 L 281 796 Q 282.1 798.7 279.5 798 L 278 801 L 275.5 801 L 261.5 793 L 246 778.5 L 236 758.5 L 235 752.5 L 232 744.5 L 232.5 742 Z " /><path fill="rgb(254,254,254)" stroke="rgb(254,254,254)" stroke-width="0" opacity="1" d="M 306.5 752 L 310 754.5 L 303.5 761 L 303 760.5 L 305 756.5 L 305 753.5 L 306.5 752 Z " /><path fill="rgb(254,254,254)" stroke="rgb(254,254,254)" stroke-width="0" opacity="1" d="M 322.5 755 L 324 759.5 L 322.5 762 L 320 756 L 322.5 755 Z " /><path fill="rgb(254,254,254)" stroke="rgb(254,254,254)" stroke-width="0" opacity="1" d="M 285.5 799 L 286 800.5 L 277 814.5 L 267.5 824 L 256.5 831 L 247.5 834 Q 242.7 833.2 240.5 835 L 239.5 834 L 232.5 834 L 229.5 833 L 223 828.5 L 222 824 Q 224.6 823.3 225.5 825 L 236.5 825 L 237.5 824 L 244.5 824 L 245.5 823 L 251.5 822 L 260.5 817 L 265.5 816 L 271.5 813 L 278 807.5 Q 279.7 802.7 283.5 800 L 285.5 799 Z " /><path fill="rgb(254,254,254)" stroke="rgb(254,254,254)" stroke-width="0" opacity="1" d="M 290.5 800 L 294 802.5 L 293 807 Q 289.2 808 288 805.5 L 290.5 800 Z " /><path fill="rgb(254,254,254)" stroke="rgb(254,254,254)" stroke-width="0" opacity="1" d="M 269.5 803 L 274 805.5 L 264.5 811 L 258.5 813 L 257.5 812 L 246.5 812 L 245.5 813 L 241.5 813 L 235.5 815 L 228.5 820 L 225.5 820 L 221 818 Q 220.3 815 222.5 814 L 226.5 812 L 232.5 812 L 233.5 811 L 243.5 810 L 244.5 809 L 253.5 809 L 254.5 808 L 260.5 808 L 267.5 805 L 269.5 803 Z " /><path fill="rgb(254,254,254)" stroke="rgb(254,254,254)" stroke-width="0" opacity="1" d="M 301.5 804 L 309.5 805 L 310.5 806 L 326.5 806 Q 327.3 804.3 330.5 805 L 330.5 806 L 316.5 811 L 304.5 811 L 303 809.5 L 303 807.5 L 301 804.5 L 301.5 804 Z " /><path fill="rgb(254,254,254)" stroke="rgb(254,254,254)" stroke-width="0" opacity="1" d="M 343.5 804 L 344 817.5 L 343 818.5 L 342 825.5 L 338 837.5 L 335 841.5 L 335 845.5 L 333 851 L 331.5 851 L 327 846.5 L 320 836.5 L 316 828.5 L 314 821.5 L 311 816.5 L 317.5 816 L 326.5 813 L 335.5 808 L 337.5 808 L 343.5 804 Z " /><path fill="rgb(254,254,254)" stroke="rgb(254,254,254)" stroke-width="0" opacity="1" d="M 297.5 805 L 307 833.5 L 318 855.5 L 326.5 866 L 334.5 872 L 345 876.5 Q 344.5 879.5 340.5 879 L 326.5 872 L 321 867.5 L 320 864.5 L 311 854.5 L 309 848.5 L 303 837.5 L 303 835.5 L 299 826.5 L 299 823.5 L 298 822.5 L 298 819.5 L 295 810.5 L 297 808.5 L 297.5 805 Z " /><path fill="rgb(254,254,254)" stroke="rgb(254,254,254)" stroke-width="0" opacity="1" d="M 291.5 814 L 294 819.5 L 294 823.5 L 295 824.5 L 295 827.5 L 297 833.5 L 302 844.5 Q 298.5 846 301 847.5 L 302 853.5 L 306 862.5 L 307 867.5 L 309 870.5 L 309 872.5 Q 313.3 881.7 320.5 888 L 333.5 897 L 339.5 899 L 346.5 903 L 352 904.5 L 349.5 905 L 348.5 904 L 342.5 903 L 327.5 895 Q 323.7 890.3 317.5 888 L 311 881.5 L 306 874.5 L 305 870.5 L 298 856.5 L 297 850.5 L 294 842.5 L 293 834.5 L 292 833.5 L 290 819.5 L 291 818.5 L 291.5 814 Z " /><path fill="rgb(254,254,254)" stroke="rgb(254,254,254)" stroke-width="0" opacity="1" d="M 280.5 815 L 281 816.5 L 271 833.5 Q 264.9 838.4 261 845.5 L 249.5 857 L 242.5 862 L 240.5 862 L 231.5 867 L 228.5 867 L 228.5 866 Q 230.8 866.8 230 864.5 L 234 860.5 L 234 859 L 231 857.5 L 235.5 856 L 241.5 852 L 254 839.5 L 258.5 834 Q 269.5 830 276 821.5 L 280.5 815 Z " /><path fill="rgb(254,254,254)" stroke="rgb(254,254,254)" stroke-width="0" opacity="1" d="M 243.5 816 L 252 816.5 L 245.5 819 L 238.5 819 Q 237.5 821 233.5 820 L 233.5 819 L 239.5 817 L 242.5 817 L 243.5 816 Z " /><path fill="rgb(254,254,254)" stroke="rgb(254,254,254)" stroke-width="0" opacity="1" d="M 306.5 816 L 311 825.5 L 312 830.5 L 320 844.5 L 344 869.5 L 344 871 L 335.5 867 L 326 858.5 L 321 851.5 L 311 832.5 L 311 830.5 L 309 827.5 L 306 818.5 L 306.5 816 Z " /><path fill="rgb(254,254,254)" stroke="rgb(254,254,254)" stroke-width="0" opacity="1" d="M 307.5 856 Q 311.9 864.1 319 869.5 L 314.5 874 L 313 872.5 L 313 870.5 L 307 856.5 L 307.5 856 Z " /><path fill="rgb(254,254,254)" stroke="rgb(254,254,254)" stroke-width="0" opacity="1" d="M 383.5 893 L 386 893.5 L 378.5 901 L 372.5 904 L 366.5 904 Q 365.3 901.8 360.5 903 L 359 901.5 L 364.5 900 L 374.5 894 L 382.5 894 L 383.5 893 Z " /><path fill="rgb(254,254,254)" stroke="rgb(254,254,254)" stroke-width="0" opacity="1" d="M 394.5 895 L 399.5 895 L 407.5 898 L 410.5 898 L 415.5 900 L 419.5 900 L 420.5 901 L 424.5 901 L 425.5 902 L 431.5 900 L 432 900.5 L 427.5 905 L 426 905 L 426 909 L 439.5 909 Q 440.5 907 444.5 908 L 444.5 909 L 433.5 915 L 426.5 915 L 408.5 909 L 395.5 902 L 388.5 901 L 386 899.5 L 388.5 897 L 394.5 895 Z " /></svg>