<svg viewBox="0 0 864 1232" version="1.1" xmlns="http://www.w3.org/2000/svg" desc="Created with imagetracer.js version 1.2.6" ><path fill="rgb(52,52,52)" stroke="rgb(52,52,52)" stroke-width="0" opacity="1" d="M 652.5 200 L 657.5 200 L 660.5 201 L 663.5 203 L 665.5 203 L 669 206.5 Q 667.5 210.9 670.5 210 L 679.5 218 L 698.5 230 Q 705.4 238.1 714.5 244 L 739.5 269 L 741.5 269 L 750.5 261 L 761.5 255 L 763.5 255 L 766.5 253 L 777.5 253 L 780 254 L 781 256.5 L 781 262.5 L 775 275.5 L 763 290.5 L 763 292 Q 760.1 291.5 759 294.5 L 769 309.5 L 777 325.5 L 777 327.5 L 779 330.5 L 780 335.5 L 782 338.5 L 783 343.5 L 787 352.5 L 788 361.5 L 787 362.5 L 786 369 L 790.5 370 L 792.5 372 L 802.5 377 L 814.5 385 L 822 392.5 L 826 400.5 L 826 408.5 L 825 409.5 L 825 413.5 L 823 417.5 L 821 428.5 Q 817.8 436.3 811.5 441 L 804.5 446 L 790 459.5 L 788 462.5 L 788 464.5 Q 797.6 479.4 810 491.5 L 816 501.5 L 819 510.5 L 820 521.5 L 821 522.5 L 821 529.5 L 822 530.5 L 822 547.5 L 821 548.5 L 821 557.5 L 820 558.5 L 820 566.5 L 819 567.5 L 819 573.5 Q 817.3 574.3 818 577.5 L 815 584.5 L 810.5 589 Q 807.9 589.8 809 586.5 L 811 583.5 L 812 576.5 L 814 571.5 L 815 554.5 L 816 553.5 L 816 546.5 L 817 545.5 L 817 532.5 L 816 531.5 L 816 523.5 L 815 522.5 L 814 511.5 L 811 505.5 L 811 503.5 L 806 494.5 L 795 482.5 L 787 471.5 L 783 465.5 L 777 452.5 L 774 443.5 L 774 434.5 L 773 433.5 L 773 418.5 L 768 403.5 L 766.5 402 L 758.5 397 L 749.5 393 L 747.5 393 L 742.5 390 L 736.5 388 L 733.5 388 L 716.5 382 L 713.5 382 L 712.5 381 L 709.5 381 L 708.5 380 L 705.5 380 L 704.5 379 L 701.5 379 L 692.5 376 L 687.5 376 L 686.5 375 L 676.5 374 L 675.5 373 L 660.5 372 L 659.5 371 L 652.5 371 L 651.5 370 L 643.5 370 L 640.5 369 L 639 370.5 L 639 378.5 L 643 390.5 L 653 407.5 L 668 425.5 L 679.5 437 L 692 448.5 L 698 460.5 L 702 472.5 L 702 475.5 L 706 485.5 L 711 493.5 L 718 501.5 L 724 511.5 L 724 514.5 L 726 519.5 L 727 533.5 L 728 534.5 L 728 568.5 L 727 569.5 L 727 597.5 L 728 598.5 L 728 608.5 L 730 612.5 L 730 616.5 L 739 635.5 L 740 640.5 L 744 646.5 L 753 666.5 Q 751.7 671.3 754 672.5 L 754 730.5 L 753 731.5 L 753 741.5 L 754 742.5 L 754 755.5 L 758 765.5 L 759 775.5 L 764 782.5 L 767 789.5 L 779 804.5 L 779 808.5 L 781 814.5 L 781 825.5 L 782 827.5 L 780 829.5 L 779 853.5 L 778 854.5 L 778 870.5 Q 780.6 871.9 780 876.5 L 781.5 878 L 784 876.5 L 786 866.5 L 787 865.5 L 787 862.5 L 788 861.5 L 788 856.5 L 792 844.5 L 793 830.5 L 794 829.5 L 794 818.5 L 795 817.5 L 795 811.5 L 796 810.5 L 797 803.5 L 796 802.5 L 796 794.5 Q 793.8 793.2 795 788.5 L 793.5 787 L 792.5 789 L 792 780.5 L 778 759.5 L 776 751.5 L 771 742.5 L 770 731.5 L 766 720.5 L 766 696.5 L 767 695.5 L 767 670.5 L 766 669.5 L 766 661.5 L 767 659.5 L 766 658.5 L 766 646.5 L 765 645.5 L 765 638.5 L 764 637.5 L 764 631.5 L 763 630.5 L 762 621.5 L 750 593.5 L 749 582.5 L 748 581.5 L 748 567.5 L 749 566.5 L 749 557.5 L 750 556.5 L 750 547.5 L 751 546.5 L 751 530.5 L 750 529.5 L 750 522.5 L 749 521.5 L 749 517.5 L 748 516.5 L 747 509.5 L 744 503.5 L 732 486.5 L 724.5 479 L 721 476.5 L 716 466.5 L 716 453.5 L 715 452.5 L 715 447.5 L 714 446.5 L 713 437.5 Q 710.4 430.6 705.5 426 Q 693 418.5 684 407.5 L 675 394.5 L 675.5 394 L 677.5 396 L 687 404.5 L 695.5 414 Q 706.3 420.3 714 429.5 L 717 435.5 L 718 442.5 L 719 443.5 Q 717.7 448.3 720 449.5 L 720 463.5 L 723 471.5 L 728.5 477 L 735 482.5 L 737 486.5 L 746 497.5 L 751 506.5 L 751 508.5 L 753.5 511 L 761 517.5 L 769 533.5 L 769 549.5 L 768 550.5 L 767 570.5 L 764 579.5 L 764 583.5 L 762 589.5 L 762 597.5 L 761 598.5 Q 762.3 603.3 760 604.5 L 767 621.5 L 768 631.5 L 769 632.5 L 769 639.5 L 770 640.5 L 770 647.5 L 771 648.5 L 771 698.5 L 770 699.5 L 770 719.5 L 771 720.5 L 771 723.5 L 775 735.5 L 774 737.5 Q 775.8 738.2 775 741.5 L 780.5 752 L 781 740.5 L 782 739.5 L 782 732.5 Q 784 731.5 783 727.5 L 795 696.5 L 795 687.5 Q 797.2 686.2 796 681.5 L 795 679.5 Q 797 678.5 796 674.5 L 795 673.5 L 794 662.5 L 792 658.5 L 791 651.5 L 789 647.5 L 789 644.5 L 786 635.5 L 785 625.5 L 784 624.5 L 784 613.5 L 783 611.5 L 784 610.5 L 784 602.5 Q 786 601.5 785 597.5 L 788 588.5 L 788 579.5 L 789 578.5 L 789 571.5 L 790 570.5 L 790 548.5 L 789 547.5 L 789 534.5 L 788 533.5 L 788 525.5 L 787 524.5 L 786 517.5 L 779 501.5 L 775 495.5 L 768.5 489 Q 761.7 485.3 757 479.5 Q 751.9 473.1 749 464.5 L 748 454.5 L 747 453.5 L 747 445.5 L 746 444.5 L 746 440.5 L 745 439.5 L 744 433.5 Q 741.1 426.4 735.5 422 L 727.5 417 L 724 413.5 L 726.5 412 L 736.5 418 L 743 423.5 L 749 433.5 L 750 441.5 L 751 442.5 L 751 448.5 L 752 449.5 L 752 455.5 L 754 461.5 L 754 465.5 Q 756.8 472.7 762 477.5 L 762 479 L 763.5 479 L 768.5 483 L 781 495.5 L 786 504.5 L 787 509.5 L 789 512.5 L 792 521.5 Q 791 525.5 793 526.5 L 793 536.5 L 794 537.5 L 794 551.5 L 795 552.5 L 795 561.5 L 798 567.5 L 800 575.5 L 808 591.5 L 814 599.5 L 820 611.5 L 822 617.5 L 822 620.5 L 823 621.5 L 823 628.5 Q 825 629.5 824 633.5 L 823 634.5 L 823 649.5 L 822 650.5 L 822 658.5 L 821 659.5 L 821 667.5 L 820 668.5 L 819 679.5 L 818 680.5 L 817 688.5 L 816 689.5 L 816 692.5 L 813 701.5 L 811 704.5 L 810 709.5 L 804 719.5 L 801 730.5 L 799 733.5 Q 800 737.5 798 738.5 L 798 745.5 L 797 746.5 L 797 752.5 L 796 753.5 L 796 763.5 L 797 764.5 L 797 774.5 L 796 775.5 L 796 781.5 L 797 782.5 L 798 790.5 L 799 791.5 L 799 802.5 L 800 803.5 L 800 810.5 L 799 811.5 L 799 831.5 L 798 832.5 L 798 842.5 L 795 850.5 L 795 853.5 L 794 854.5 L 793 862.5 L 790 870.5 L 790 873.5 L 787 881 Q 784.5 882.8 779 882 L 778 884.5 L 778 887.5 L 777 888.5 L 777 891.5 L 776 892.5 L 776 895.5 L 775 896.5 L 775 904.5 L 774 905.5 L 773 914.5 L 772 917.5 L 769.5 920 Q 767.3 921.8 762.5 921 L 757 917.5 L 752 904.5 L 752 896.5 L 753 895.5 L 754 879.5 L 755 878.5 L 755 868.5 L 756 867.5 L 756 857.5 L 757 856.5 L 757 839.5 L 756 838.5 L 756 834.5 L 755 833.5 L 755 830.5 L 752 821.5 L 741.5 806 L 741 807.5 L 747 821.5 L 748 834.5 L 747 835.5 L 747 841.5 L 748 842.5 L 748 850.5 L 749 851.5 L 749 865.5 L 748 866.5 L 748 874.5 L 747 877.5 L 743 885.5 L 739.5 889 Q 737 891 731.5 890 L 727 887.5 L 725.5 885 L 724 891.5 L 719 900.5 Q 720.3 905.3 718 906.5 L 718 914.5 L 717 915.5 L 717 922.5 L 718 923.5 L 718 928.5 L 719 929.5 L 719 934.5 L 720 935.5 Q 718.7 940.2 721 941.5 L 721 951.5 L 720 952.5 L 720 959.5 Q 718.3 960.3 719 963.5 L 715.5 968 Q 713.7 969.7 709.5 969 Q 708.8 967.3 705.5 968 L 701 964.5 L 697 958.5 L 691 940.5 L 691 920.5 L 692 919.5 L 693 901.5 L 694 900.5 L 694 895.5 L 695 894.5 L 696 886.5 L 702 873.5 L 704 871.5 L 705 864.5 L 706 863.5 L 706 838.5 L 705 837.5 L 705 831.5 L 704 830.5 L 703.5 818 L 700 824.5 L 699 832.5 L 698 833.5 L 698 841.5 L 697 842.5 L 697 859.5 Q 694.8 860.8 696 865.5 L 689 879 L 684 881.5 L 682 886.5 L 681 895.5 L 679 901.5 L 679 908.5 L 678 909.5 L 678 920.5 L 677 921.5 L 677 930.5 L 678 931.5 L 680 945.5 L 684 957.5 L 688 965.5 L 690.5 968 L 694.5 970 L 698.5 970 Q 699.6 967.2 703 968 Q 704.3 973.5 700.5 975 L 695.5 976 L 687.5 973 L 682 967.5 L 678 959.5 L 675 950.5 L 675 947.5 L 673 943.5 L 673 938.5 L 671 932.5 L 671 919.5 L 672 918.5 L 672 911.5 L 673 910.5 L 673 904.5 L 674 903.5 L 675 894.5 L 676 893.5 L 676 890.5 L 678 884.5 L 680 881.5 L 680 879 Q 676.4 878.9 674.5 876 L 664 896.5 L 662 902.5 L 661 915.5 L 660 916.5 L 660 926.5 L 659 927.5 L 658 938.5 L 656 944.5 L 652.5 949 L 646.5 952 L 642.5 952 L 637.5 949 L 636 949.5 L 631 936.5 L 631 922.5 L 632 921.5 L 633 906.5 L 635 901.5 L 635 896.5 L 636 895.5 L 637 887.5 L 641 879.5 L 643 872.5 L 653 852.5 L 653 846.5 L 654 845.5 L 654 835.5 L 653 834.5 L 653 827.5 L 652 826.5 L 652 822.5 L 651 821.5 L 650 812.5 L 647 803.5 L 645.5 793 L 639.5 802 L 631.5 809 L 623.5 814 L 620 809.5 L 619 804.5 L 613 793.5 L 613 791.5 L 609 783.5 Q 609.8 780.3 608 779.5 L 608 773.5 L 607 772.5 L 607 767.5 L 606 766.5 L 606 758.5 L 605 757.5 L 605 717.5 L 604 716.5 L 604 699.5 L 603 698.5 L 603 667.5 L 601.5 666 Q 599.2 664.2 595 665 Q 594 668.4 596 669.5 L 596 678.5 L 597 679.5 L 597 691.5 L 596 692.5 L 596 700.5 L 595 701.5 L 595 718.5 L 594 719.5 L 594 727.5 L 593 728.5 L 593 735.5 L 592 736.5 L 591 751.5 L 590 752.5 L 589 764.5 L 588 765.5 L 587 784.5 L 586 785.5 L 586 789.5 L 584 793.5 L 583 800.5 Q 581.3 805.3 577.5 808 L 578 806.5 L 580 800.5 L 580 793.5 Q 582 792.5 581 788.5 L 582 787.5 L 583 766.5 L 584 765.5 L 584 758.5 L 586 752.5 L 586 744.5 L 587 743.5 L 587 736.5 L 588 735.5 Q 586.8 730.8 589 729.5 L 589 721.5 L 590 720.5 L 590 708.5 L 591 707.5 L 591 697.5 L 592 696.5 L 592 683.5 L 593 682.5 L 593 667.5 Q 592 666 591 668.5 L 586 680.5 L 582 685.5 L 576 696.5 L 570.5 703 L 563.5 708 L 558 710 L 558 714.5 L 557 715.5 L 557 721.5 L 552 736.5 L 551 743.5 L 548 752.5 L 546 755.5 L 546 757.5 L 542 764.5 L 542 767.5 L 545 770.5 L 550 780.5 L 564 796.5 L 564 798 L 565.5 798 L 572 804.5 L 574 811.5 Q 573 813 572 810.5 Q 571.4 806.6 568.5 805 Q 560.5 802.5 556 796.5 L 546 784.5 L 541 774 L 539 774.5 L 539 780.5 L 538 781.5 L 537 797.5 L 536 798.5 L 536 807.5 L 535 808.5 L 535 839.5 L 534 840.5 L 534 855.5 L 533 856.5 L 533 863.5 L 532 864.5 L 531 873.5 L 526 888.5 L 522 895.5 L 516.5 902 L 511.5 905 L 506 905 L 506 912.5 L 505 913.5 L 505 924.5 L 504 925.5 L 504 935.5 L 502 940.5 L 495.5 947 Q 493 949 487.5 948 L 479 944 L 479 948.5 L 477 952.5 L 477 955.5 L 475 958.5 L 474 963.5 L 471.5 966 L 466.5 967 L 461.5 965 L 456 959.5 L 451 944.5 L 450 932.5 L 449 931.5 L 449 924.5 L 448 923.5 L 448 892.5 L 449 891.5 L 449 884.5 L 450 883.5 L 450 875.5 L 451 874.5 L 452 861.5 L 453 860.5 L 453 856.5 L 455 852.5 L 456 843.5 L 457 842.5 L 457 834.5 L 458 833.5 L 459 820.5 L 454 812.5 L 454 809.5 L 452 804.5 Q 453.3 799.8 451 798.5 L 451 784.5 L 450 783.5 L 450 775.5 Q 452.3 774.3 449.5 773 L 444 769.5 L 436 753.5 L 435 747.5 L 434 746.5 L 433 736.5 L 432 735.5 L 432 720.5 L 433 719.5 L 433 711.5 L 434 710.5 L 435 697.5 L 438 689.5 L 438 684.5 L 440 678.5 L 440 665.5 L 437 660.5 L 436 654.5 L 435 653.5 L 435 645.5 L 434 644.5 L 434 639.5 L 433 638.5 L 432 630.5 L 433 629.5 L 433 621.5 Q 435.2 620.3 434 615.5 L 435 614.5 L 435 610.5 L 437 605.5 L 437 601.5 L 438 600.5 L 441 585.5 L 447 573.5 L 459 558.5 L 463 549.5 Q 462.3 546.3 464 545.5 L 464 538.5 L 465 537.5 L 465 524.5 L 466 523.5 L 466 513 L 461.5 513 L 460.5 512 L 407.5 512 Q 406.3 514.3 401.5 513 L 400.5 512 L 347.5 512 L 346.5 511 L 320.5 511 L 319.5 510 L 297.5 510 L 296.5 511 L 220 511.5 L 238 520.5 Q 238.5 523.5 236.5 524 L 231.5 526 L 222.5 526 L 221.5 527 L 206.5 527 L 205.5 528 L 191.5 529 L 187.5 531 L 182.5 531 L 181 532.5 L 188 538.5 L 197 553.5 L 197 556.5 L 199 562.5 L 204 572.5 L 208 585.5 L 214 594.5 L 215 599.5 L 211.5 602 L 201.5 597 L 185.5 586 L 162.5 565 Q 155.8 562.8 152 557.5 L 148.5 553 L 141 574.5 L 141 577.5 L 138 586.5 L 129 605.5 L 127 611.5 L 127 614.5 L 125 618.5 L 125 621.5 L 120 634 Q 116.2 635 115 632.5 L 115 629.5 L 112 624.5 L 112 606.5 L 111 605.5 L 111 597.5 L 110 596.5 L 110 586.5 L 109 585.5 L 109 581.5 L 106 572.5 L 106 568.5 L 105 567.5 L 105 564.5 L 103 559.5 L 103 555.5 L 102 554.5 L 102 550.5 L 100.5 547 L 58.5 575 L 52.5 580 L 46.5 583 L 43.5 583 L 41 580.5 L 42 579.5 L 45 566.5 L 59 537.5 L 68 510.5 L 66.5 509 L 60.5 508 L 56.5 506 L 51.5 506 L 50.5 505 L 45.5 505 L 44.5 504 L 35.5 503 L 34.5 502 L 31.5 502 L 26 500 Q 25 496.2 27.5 495 L 34.5 492 L 50.5 489 L 65.5 483 L 72 482 Q 70 479 71 471.5 L 70 470.5 L 70 467.5 L 68 462.5 L 68 457.5 L 67 456.5 L 66 444.5 L 65 443.5 L 65 439.5 L 64 438.5 L 62 424.5 L 61 423.5 L 61 420.5 L 59 415.5 L 59 411.5 L 58 410.5 L 58 398.5 Q 58.5 396.5 61.5 397 Q 73.6 413.9 89 427.5 L 94 435.5 L 111.5 457 L 114 455.5 L 120 446.5 L 122 441.5 L 128 433.5 L 133 423.5 L 139 415.5 L 140 412.5 L 143 409.5 L 148 400.5 L 160.5 383 L 163 384.5 L 163 388.5 L 160 397.5 L 160 402.5 L 159 403.5 L 158 414.5 L 156 420.5 L 154 446.5 L 149 461.5 L 150.5 461 L 165.5 452 L 174.5 448 L 176.5 446 L 203.5 433 L 205.5 431 L 235.5 416 L 237.5 414 L 239.5 414 L 241 416.5 L 232 427.5 L 221 447.5 L 197 473.5 L 192 481.5 L 193.5 481 L 212.5 481 L 213.5 482 L 237.5 482 L 238.5 483 L 249.5 483 L 250.5 484 L 324.5 484 L 325.5 485 L 354.5 485 L 355.5 486 L 388.5 486 L 389.5 487 L 409.5 487 L 410.5 486 L 492.5 486 Q 493.6 484 497 485 L 496 482.5 L 496 476.5 L 495 475.5 L 495 464.5 L 496 463.5 L 496 457.5 L 499 449.5 L 501 439.5 L 504 432.5 L 508 428.5 L 508 424.5 L 510 419.5 L 510 415.5 L 513 409.5 L 513 407.5 L 518 399.5 L 519 396.5 L 519 391.5 L 523 383.5 L 524 378 Q 527 377.3 528 379.5 L 528 382.5 L 524 393.5 L 524 398.5 L 519 407.5 L 519 409.5 L 516 414.5 L 515 420.5 L 514 421.5 L 515.5 422 Q 519.9 417.9 526.5 416 L 533 409.5 L 539 398.5 L 542.5 388 L 543 398.5 L 538 410.5 L 529.5 420 L 515.5 427 L 511 431.5 L 506 440.5 L 504 446.5 L 504 449.5 L 501 456.5 Q 502 460.5 500 461.5 L 500 481.5 Q 502 482.6 501 486 L 514.5 486 L 516 484.5 L 516 474.5 L 517 473.5 L 517 470.5 L 520 461.5 L 522 458.5 L 525 449.5 L 533.5 439 L 542.5 432 L 551.5 429 L 555.5 425 L 563.5 420 L 570 413.5 L 582 390.5 L 584 384.5 L 584 378.5 L 585 377.5 L 585 365 Q 582.4 365.8 581.5 364 L 570.5 364 L 569.5 363 L 552.5 363 L 549 368.5 Q 548.5 374.5 545.5 378 L 545 370.5 L 548 363 L 536.5 364 Q 535.5 362 531.5 363 L 530.5 364 L 516.5 364 L 515.5 365 L 509.5 365 L 508 366.5 L 503 373.5 L 500 380.5 Q 501 384.5 499 385.5 L 499 393.5 L 498 394.5 L 498 409.5 L 494 416.5 L 492 422.5 L 488 428.5 Q 478.9 435.4 473 445.5 L 468 460.5 L 467 476.5 L 468 477.5 L 468 484 Q 464.2 485 463 482.5 L 461 471.5 L 462 470.5 L 462 460.5 L 463 459.5 L 463 455.5 L 465 449.5 L 468 442.5 L 477 431.5 L 477 430 L 478.5 430 L 484 424.5 L 492 409.5 L 493 405 L 490.5 404 L 480.5 403 L 471.5 400 L 463 393.5 L 460 387.5 L 460 375.5 L 466 364.5 L 472.5 358 L 487.5 348 L 497.5 344 L 500.5 344 L 502 342.5 L 503 337.5 L 507 330.5 L 520.5 316 L 550.5 296 L 558.5 292 L 590.5 270 L 608.5 256 L 620 244.5 L 638 222.5 L 640 217.5 L 647 208.5 L 648 204.5 L 650.5 201 L 652.5 200 Z M 652 203 L 649 212 L 643 220 L 641 225 Q 636 229 633 237 L 619 254 L 606 266 L 593 276 L 590 277 L 590 278 Q 594 279 596 277 L 613 277 L 614 278 L 625 278 L 626 279 L 633 279 L 634 280 L 642 281 L 657 286 L 660 288 L 662 288 L 682 298 L 684 298 L 700 306 L 711 314 L 712 314 L 712 309 L 715 302 L 721 292 L 731 279 L 736 274 L 736 273 Q 733 274 734 272 L 694 233 L 673 217 L 664 209 L 664 207 L 663 207 L 658 203 L 652 203 Z M 773 257 L 772 258 L 769 258 L 763 260 L 757 263 L 743 273 L 725 292 L 715 308 L 713 316 L 716 317 L 717 313 L 730 300 L 743 284 L 756 271 L 756 272 L 752 280 L 737 296 L 732 303 L 726 308 Q 720 311 718 318 L 720 320 Q 722 321 721 318 L 723 318 L 726 315 L 735 310 Q 744 299 758 291 L 773 273 L 776 268 L 778 259 Q 777 256 773 257 Z M 595 281 L 594 282 L 583 282 L 573 289 L 573 290 Q 576 291 578 289 L 592 289 L 593 290 L 604 290 Q 605 292 610 291 L 619 294 L 622 294 L 637 299 L 640 301 L 645 302 L 679 318 L 701 336 Q 703 334 704 331 L 706 329 L 702 325 Q 702 322 704 321 Q 707 326 713 328 Q 716 329 715 333 L 713 333 L 709 330 L 704 338 L 704 341 L 715 352 L 715 354 L 718 356 L 729 357 L 730 358 L 736 358 L 737 359 L 744 359 L 746 360 L 741 350 L 735 342 L 726 332 L 700 313 L 662 294 L 660 294 L 650 289 L 641 286 L 638 286 L 637 285 L 634 285 L 633 284 Q 628 285 627 283 L 619 283 L 618 282 L 609 282 L 608 281 L 595 281 Z M 572 294 L 571 295 L 564 296 L 556 300 L 522 322 Q 511 330 506 342 L 514 342 L 515 341 L 519 341 L 519 347 Q 516 346 516 348 L 509 348 L 508 349 L 504 349 L 503 350 L 497 351 L 486 356 L 476 363 L 466 374 L 465 380 L 464 381 L 464 386 L 467 392 L 472 396 L 475 397 L 479 397 L 484 399 L 491 399 L 493 400 L 493 392 L 494 391 L 495 380 L 501 369 L 503 367 L 503 366 L 499 366 L 498 367 L 492 368 L 485 372 L 475 384 L 472 383 L 477 374 L 486 366 L 495 362 L 503 361 L 504 360 L 509 360 L 510 359 L 516 359 L 517 358 L 542 358 L 543 357 L 572 357 L 573 358 L 589 358 L 590 359 L 600 359 L 601 360 L 618 360 L 619 361 L 638 362 L 639 363 L 648 363 L 649 364 L 658 364 L 659 365 L 666 365 L 667 366 L 673 366 Q 674 368 679 367 L 680 368 L 685 368 L 686 369 L 695 370 L 704 373 L 707 373 L 708 374 L 711 374 L 712 375 L 715 375 L 716 376 L 719 376 L 723 378 L 726 378 L 750 386 L 770 396 L 778 402 L 783 403 L 786 408 L 788 418 L 789 419 L 789 422 L 790 423 L 788 434 L 783 441 L 786 442 Q 786 444 783 443 Q 781 441 780 444 L 781 451 L 785 459 Q 784 461 787 460 L 787 459 L 790 455 Q 795 449 802 445 L 815 431 L 818 422 L 819 413 L 820 412 L 820 402 L 816 395 L 810 389 L 793 378 L 776 371 L 768 370 L 767 369 L 763 369 L 762 368 L 757 368 L 756 367 L 752 367 L 751 366 L 746 366 L 745 365 L 732 364 L 731 363 L 723 363 L 722 362 L 715 362 L 714 361 L 705 361 L 694 357 L 680 356 L 679 355 L 673 355 L 671 354 L 678 353 L 679 352 L 686 352 L 687 353 L 697 353 L 698 354 L 705 354 L 706 355 L 710 355 L 701 344 Q 697 343 697 346 L 694 346 L 697 341 L 682 327 L 673 321 L 671 321 L 652 311 L 645 309 L 635 304 L 617 298 L 609 297 L 608 296 L 600 296 L 599 295 L 592 295 L 591 294 L 572 294 Z M 755 298 L 735 315 L 721 322 L 732 329 L 743 342 L 753 360 L 758 362 L 763 362 L 769 364 L 773 364 L 774 365 L 778 365 L 783 367 L 783 363 L 784 362 L 784 359 L 783 358 L 783 355 L 781 349 L 778 344 L 773 329 L 770 324 L 770 322 L 759 305 L 757 300 L 755 298 Z M 590 365 L 590 376 L 589 377 L 589 384 Q 587 384 588 389 L 576 415 L 573 419 L 557 431 L 548 434 L 537 442 L 531 449 L 527 457 L 520 478 L 520 486 L 540 486 L 539 484 L 539 473 L 544 463 Q 548 456 557 454 L 569 454 L 570 455 L 577 456 L 580 458 L 584 464 L 588 474 L 588 482 L 587 483 L 594 483 L 595 484 L 607 484 L 607 486 L 605 487 L 601 487 L 600 488 L 589 488 L 588 489 L 561 489 L 560 490 L 505 490 L 504 489 L 419 489 L 418 490 L 384 490 L 383 489 L 341 489 L 340 488 L 313 488 L 312 487 L 282 487 L 281 488 L 257 488 L 256 487 L 241 487 L 240 486 L 225 486 L 224 487 L 197 487 L 196 488 L 155 489 L 157 494 L 157 503 Q 155 503 156 507 L 156 508 L 189 508 L 190 507 L 199 507 L 200 508 L 206 508 L 207 507 L 222 507 L 223 506 L 232 506 L 233 507 L 291 507 L 292 506 L 327 506 L 328 507 L 357 507 L 358 508 L 370 508 L 371 507 L 387 507 L 388 508 L 430 508 L 431 507 L 433 508 L 468 508 L 469 507 L 471 508 L 480 508 L 481 509 L 516 509 L 518 507 L 518 509 L 554 509 L 555 508 L 608 508 L 609 511 L 608 512 L 595 512 L 594 513 L 548 513 L 547 514 L 518 514 L 518 519 L 519 520 L 519 544 L 520 545 L 521 558 L 522 559 L 522 568 L 524 573 L 525 580 L 529 587 L 531 594 L 536 604 L 551 616 L 572 629 L 587 634 L 602 635 L 603 636 L 621 636 L 622 635 L 635 635 L 640 633 L 643 633 L 647 631 L 650 631 L 659 628 L 675 618 L 674 617 L 674 611 L 673 610 L 673 602 L 672 601 L 673 600 L 673 590 L 674 589 L 675 582 L 677 580 L 684 566 L 688 554 L 688 551 L 690 547 L 691 537 L 692 536 L 692 532 L 693 531 L 694 524 L 695 524 L 695 535 L 694 536 L 694 548 Q 692 549 693 553 L 692 554 L 691 561 L 688 570 L 679 587 Q 680 591 678 593 L 678 607 L 679 608 L 679 618 Q 681 618 680 623 L 684 629 L 687 638 L 687 650 L 686 651 L 686 658 L 685 659 L 686 687 L 692 675 L 692 671 L 694 666 L 694 661 L 695 660 L 695 649 L 696 648 L 695 626 L 694 625 Q 693 620 695 620 L 695 616 L 692 608 L 692 592 L 693 591 L 693 584 Q 695 583 694 579 L 697 570 L 698 551 L 699 550 L 699 536 L 698 535 L 698 531 L 695 522 L 695 519 L 694 518 L 694 515 L 693 514 L 693 511 L 692 510 L 692 498 L 693 497 L 693 478 L 692 477 L 692 471 L 689 463 L 688 455 L 686 450 L 672 436 Q 657 421 645 404 L 638 389 L 637 383 L 636 382 L 636 378 L 635 377 L 635 372 L 636 369 Q 633 367 625 368 L 624 367 L 610 367 L 609 366 L 598 366 L 597 365 L 590 365 Z M 156 397 L 140 421 L 125 446 L 123 451 L 117 459 L 116 462 L 113 465 L 111 464 L 98 448 L 93 443 L 83 428 L 79 424 L 66 410 L 64 407 L 63 408 L 63 412 L 64 413 L 66 424 L 67 425 L 67 429 L 68 430 L 68 434 L 69 435 L 69 439 L 70 440 L 71 451 L 72 452 L 72 459 L 73 460 L 73 465 L 75 470 L 75 475 L 76 476 L 76 482 L 75 485 L 74 486 L 62 489 L 53 493 L 45 494 L 44 495 L 40 495 L 32 498 L 37 499 L 41 499 L 42 500 L 47 500 L 48 501 L 58 502 L 62 504 L 68 505 L 74 510 L 67 532 L 63 540 L 63 542 L 52 563 L 52 565 L 49 571 L 49 575 L 48 576 L 49 577 L 59 569 L 74 560 L 91 548 L 103 541 L 105 541 L 106 544 Q 108 545 106 546 L 108 556 L 109 557 L 109 560 L 110 561 L 110 564 L 111 565 L 111 568 L 112 569 L 113 578 L 115 583 L 115 589 L 116 590 L 116 600 L 117 601 L 117 623 L 119 625 L 120 623 L 122 612 L 125 603 L 134 584 L 137 575 L 137 572 L 142 561 L 145 550 L 145 548 L 148 548 L 152 550 L 156 556 L 159 558 L 168 563 L 190 583 L 206 593 L 207 594 L 204 589 L 199 574 L 195 566 L 192 554 L 185 543 L 177 535 Q 175 532 176 528 L 182 526 L 186 526 L 190 524 L 194 524 L 195 523 L 203 523 L 204 522 L 220 522 L 221 521 L 226 521 L 217 516 L 215 516 L 209 512 L 182 512 L 181 513 L 170 513 L 169 512 L 155 512 L 149 521 L 139 529 L 127 533 L 118 533 Q 116 531 113 532 L 104 528 L 100 525 L 92 517 L 87 505 L 87 493 L 90 484 L 93 479 L 102 471 L 111 467 L 119 467 L 120 468 L 123 467 L 131 467 L 132 466 L 136 466 L 142 469 L 151 479 L 152 482 L 154 483 L 161 483 L 162 484 L 173 484 L 174 483 Q 177 482 178 484 L 181 483 L 188 483 L 187 482 L 193 473 L 216 447 L 226 431 L 228 426 L 229 424 L 222 427 L 204 438 L 170 455 L 157 464 L 154 465 Q 147 467 145 463 L 146 455 L 149 448 L 151 422 L 153 416 L 153 412 L 154 411 L 155 400 L 156 399 L 156 397 Z M 772 406 L 777 417 L 777 432 L 780 439 L 785 430 L 785 421 L 782 414 L 774 406 L 772 406 Z M 691 455 L 690 458 L 692 461 L 692 464 L 695 472 L 696 483 L 697 484 L 697 492 L 696 493 L 696 510 L 700 521 L 700 525 L 702 530 L 702 534 L 703 535 L 703 553 L 702 554 L 702 562 L 701 563 L 701 571 L 700 572 L 699 580 L 698 581 L 697 594 L 696 595 L 696 603 L 697 604 L 697 615 Q 699 616 698 621 L 699 622 L 699 634 L 700 635 L 700 651 L 699 652 L 699 663 Q 697 664 698 669 L 697 670 L 697 675 L 689 691 L 689 693 L 686 699 L 686 702 L 687 703 L 685 702 L 679 718 L 679 726 L 677 731 L 677 738 L 676 739 L 676 749 L 675 750 L 675 754 L 678 763 L 678 769 L 681 777 L 682 788 L 683 789 L 683 812 L 681 815 L 680 813 L 672 832 L 671 845 L 670 846 L 671 861 L 677 873 Q 679 876 686 875 L 690 869 L 691 863 L 692 862 L 692 845 L 693 844 L 694 828 L 700 814 L 702 808 L 702 805 L 703 804 L 703 801 L 705 797 L 705 790 Q 703 789 704 785 L 702 780 L 702 776 L 700 772 L 700 759 L 701 758 L 701 750 Q 703 748 702 744 L 703 743 L 703 740 L 704 739 L 704 736 L 705 735 L 705 732 L 706 731 L 708 721 L 717 703 L 718 686 L 719 685 L 718 682 L 718 674 Q 716 673 717 669 L 714 661 L 712 651 L 710 648 L 708 637 L 707 636 L 707 631 L 706 630 L 706 624 L 705 623 Q 704 619 706 619 L 706 611 L 707 610 L 707 603 L 709 597 L 709 593 L 711 588 L 712 579 L 715 572 L 717 561 L 718 560 L 718 555 L 719 554 L 719 522 L 718 521 L 717 510 L 700 483 L 695 465 L 691 455 Z M 559 459 L 553 462 Q 547 465 545 472 Q 546 475 544 476 L 544 483 L 543 484 L 544 485 L 563 485 L 562 483 L 563 478 L 567 474 L 577 474 L 580 477 Q 581 482 578 484 L 584 484 L 584 477 L 579 465 L 576 461 L 573 460 L 559 459 Z M 121 469 L 120 470 L 114 470 L 104 474 L 94 485 L 91 494 L 91 504 L 94 512 L 98 518 L 106 524 L 116 528 L 128 528 L 136 525 L 143 520 L 148 514 L 148 512 L 147 513 L 138 513 L 137 514 Q 133 512 127 513 L 126 512 L 119 512 L 113 510 L 104 505 L 98 499 Q 97 493 99 491 L 105 486 L 108 485 L 113 485 L 114 484 L 124 484 L 125 483 L 147 483 L 145 479 L 139 473 L 133 471 L 131 469 L 121 469 Z M 128 487 L 127 488 L 115 488 L 114 489 L 108 489 L 104 491 L 101 495 L 102 498 L 110 504 L 121 508 L 132 508 L 133 509 L 149 509 L 151 507 Q 150 502 152 502 L 152 495 L 150 490 Q 150 487 150 487 L 128 487 Z M 470 513 L 470 537 L 469 538 L 469 547 Q 467 547 468 551 L 464 561 L 453 575 L 447 587 L 445 597 L 444 598 L 443 606 L 442 607 L 441 616 L 440 617 Q 441 621 439 623 L 439 631 L 438 632 Q 440 634 439 639 L 440 640 L 440 645 L 441 646 L 441 653 L 446 667 L 446 676 L 445 677 L 445 683 L 444 684 L 444 688 L 442 693 L 442 696 L 441 697 L 441 701 L 440 702 L 439 715 L 438 716 L 438 724 L 437 725 L 437 733 L 438 734 L 438 739 L 439 740 L 440 749 L 447 765 L 451 769 L 452 767 L 453 761 L 455 758 L 458 743 L 459 742 L 459 738 L 460 737 L 461 727 L 462 726 L 464 716 L 467 710 Q 466 706 468 706 L 468 699 L 469 698 L 469 688 L 468 687 L 468 682 L 465 673 L 465 670 L 464 669 L 464 665 L 463 664 L 462 652 L 461 651 L 461 643 L 460 642 L 460 619 L 461 618 L 461 613 L 462 612 L 463 604 L 466 597 L 467 591 L 475 573 L 492 547 L 496 539 Q 495 534 497 534 L 497 518 Q 495 517 496 514 Q 493 515 493 513 L 470 513 Z M 500 514 L 501 517 L 501 521 L 502 522 L 502 532 L 501 533 L 501 539 L 499 545 L 485 567 L 479 585 L 479 588 L 478 589 L 478 603 L 479 604 L 479 610 L 477 611 L 475 610 Q 476 606 474 606 L 474 588 L 468 605 L 467 614 L 466 615 L 466 622 L 465 623 L 465 637 L 466 638 L 466 647 L 467 648 L 467 654 L 468 655 L 468 660 L 469 661 L 469 666 L 471 672 L 471 676 L 473 678 L 473 671 L 474 670 L 474 662 L 475 661 L 475 650 L 474 649 L 474 643 L 473 642 L 473 628 L 475 625 L 477 632 L 478 643 L 479 644 L 479 666 L 478 667 L 478 674 L 477 675 L 477 682 L 474 689 Q 473 692 475 693 L 474 696 L 474 704 Q 472 705 473 709 L 467 726 L 466 736 L 464 742 L 464 746 L 463 747 L 463 751 L 457 769 L 457 776 L 456 777 L 456 790 L 457 791 L 457 801 L 458 802 L 458 807 L 460 811 L 460 813 Q 463 814 462 810 L 464 810 L 464 816 L 463 817 Q 464 819 470 818 L 472 816 L 475 808 L 475 799 L 476 798 L 476 789 L 477 788 L 477 776 L 478 775 L 478 767 Q 480 765 479 761 L 480 760 L 480 756 L 481 755 L 481 751 L 482 750 L 482 746 L 483 745 L 484 737 L 490 721 L 492 710 L 494 706 L 497 691 L 498 690 L 498 686 L 501 677 L 501 673 L 502 672 L 502 663 L 503 662 Q 501 659 502 653 L 499 644 L 499 641 L 498 640 L 498 637 L 497 636 L 496 627 L 495 626 L 495 620 L 494 619 L 494 609 L 495 608 L 495 600 L 496 599 L 496 592 Q 498 591 497 587 L 504 566 L 506 563 L 506 560 L 508 554 L 511 549 L 514 538 Q 511 536 515 535 L 514 533 L 515 530 L 514 529 L 514 514 L 500 514 Z M 754 515 Q 752 518 754 519 L 754 525 L 755 526 L 755 536 L 756 537 L 756 544 L 755 545 L 755 555 L 754 556 L 754 565 L 753 566 L 753 582 L 754 583 L 754 589 Q 756 589 755 593 L 758 598 L 759 582 L 762 574 L 762 569 L 763 568 L 763 558 L 764 557 L 764 548 L 765 547 L 765 536 L 764 533 L 757 519 L 754 515 Z M 724 533 L 723 554 L 722 555 L 722 562 L 719 571 L 719 574 L 716 581 L 716 585 L 713 594 L 712 603 L 711 604 L 711 609 L 710 610 L 710 628 L 711 629 L 711 633 L 712 634 L 713 642 L 719 657 L 719 660 L 720 661 L 720 664 L 722 670 L 729 682 L 729 684 L 732 690 L 732 697 L 731 698 L 731 705 L 728 702 L 728 688 L 724 678 L 723 695 L 722 696 L 722 731 L 721 732 L 721 747 L 722 748 L 722 753 L 724 758 L 724 761 L 727 766 L 732 782 L 738 795 L 757 823 L 759 833 L 760 834 L 760 838 L 761 839 L 761 860 L 760 861 L 760 869 L 759 870 L 759 877 L 758 878 L 757 890 L 756 891 L 756 897 L 755 898 L 755 906 L 759 916 Q 761 919 768 918 L 770 916 L 771 913 L 772 897 L 777 882 L 777 879 L 778 878 L 775 870 L 775 851 L 776 850 L 776 840 L 777 839 Q 778 834 776 833 L 776 821 L 775 820 L 775 814 L 776 813 Q 777 807 775 805 L 765 793 L 762 786 L 756 778 L 754 766 L 750 754 L 750 740 L 749 739 Q 748 734 750 733 L 750 715 L 751 714 L 751 706 L 750 705 L 750 689 L 751 688 Q 752 683 750 683 L 750 670 L 747 661 L 742 651 L 737 644 L 736 639 L 726 618 L 725 609 L 724 608 L 723 586 Q 725 585 723 584 L 723 570 L 724 569 L 724 533 Z M 515 549 L 510 560 L 510 563 L 507 570 L 507 573 Q 505 574 507 575 L 507 579 L 505 582 L 503 588 L 503 592 L 502 593 L 502 600 L 501 601 L 501 611 L 500 612 Q 499 615 501 617 L 501 624 L 503 630 L 503 634 L 508 649 L 508 654 L 509 655 L 509 670 L 508 671 L 507 681 L 504 690 L 504 693 L 503 694 L 503 697 L 502 698 L 502 701 L 501 702 L 501 705 L 500 706 L 500 709 L 498 713 L 497 720 L 495 724 L 495 727 L 490 738 L 488 749 L 487 750 L 487 754 L 484 763 L 486 763 Q 485 766 487 767 L 487 772 L 488 773 L 487 775 L 487 787 L 486 788 L 486 796 L 485 797 L 485 805 L 484 806 L 483 816 L 481 820 L 481 823 L 478 832 L 475 837 L 473 848 L 471 852 L 471 856 L 470 857 L 470 863 L 469 864 L 469 882 L 473 889 L 482 896 Q 486 897 489 895 Q 493 892 495 887 L 497 881 L 497 877 L 498 876 L 498 863 L 497 862 L 498 859 L 498 855 L 496 861 L 495 861 L 495 851 L 496 850 L 496 844 L 497 843 L 497 837 L 500 828 L 500 825 L 502 821 L 503 814 L 504 813 L 504 807 L 505 806 L 505 796 L 506 795 L 505 783 L 504 782 L 504 769 L 503 768 L 503 758 L 502 757 L 502 741 L 503 740 L 503 732 L 505 726 L 505 722 L 509 712 L 517 699 L 519 693 Q 517 687 521 688 L 522 686 L 522 683 L 523 682 L 523 678 L 524 677 L 524 668 L 525 667 L 525 661 L 524 660 L 524 653 Q 522 651 523 648 L 522 647 L 522 644 L 519 635 L 515 627 Q 516 622 514 622 L 514 615 L 513 614 L 513 597 L 514 596 L 514 592 L 515 591 L 516 583 L 519 577 L 517 571 L 517 563 L 516 562 L 516 556 L 515 555 L 515 549 Z M 795 571 L 793 575 L 793 584 L 792 585 L 792 591 L 789 598 L 789 602 L 797 619 L 799 625 L 799 628 L 800 629 L 800 632 L 801 633 L 801 637 L 802 638 L 802 660 L 798 665 L 799 668 L 799 676 L 800 677 L 800 685 L 799 686 L 799 697 L 787 729 Q 788 732 786 734 L 786 741 L 785 742 L 785 749 Q 783 750 784 754 L 782 757 L 793 774 L 793 770 L 794 769 L 793 767 L 793 746 L 794 745 L 794 738 Q 796 736 795 733 L 798 727 L 799 719 L 805 709 L 811 691 L 812 682 L 814 677 L 814 673 L 815 672 L 816 656 L 817 655 L 817 646 L 818 645 L 818 624 L 816 619 L 816 616 L 809 601 L 801 588 L 800 584 L 798 582 L 795 571 Z M 521 583 L 520 588 L 519 589 L 519 595 L 518 596 L 518 612 L 519 613 L 519 620 L 520 621 L 521 628 L 526 639 L 527 646 L 528 647 L 528 651 L 529 652 L 529 674 L 528 675 L 527 685 L 524 692 Q 529 695 531 701 L 532 708 L 533 709 L 533 718 L 534 719 L 533 720 L 533 731 L 532 732 L 532 739 L 524 763 L 524 766 L 523 767 L 522 785 L 521 786 L 521 801 L 522 802 L 522 815 L 523 816 L 523 829 L 524 830 L 523 845 L 522 846 L 522 853 L 510 881 L 509 888 L 508 889 L 508 895 L 507 896 L 507 900 L 512 899 L 518 892 L 523 880 L 525 869 L 526 868 L 526 864 L 527 863 L 527 854 L 528 853 L 528 837 L 529 836 L 529 826 L 528 825 L 528 818 L 529 817 L 529 803 L 530 802 L 530 793 L 531 792 L 531 784 L 532 783 L 533 771 L 534 770 L 534 767 L 536 761 L 542 749 L 545 740 L 547 729 L 550 721 L 550 716 L 551 715 L 551 691 L 550 690 L 549 681 L 546 672 L 546 669 L 545 668 L 545 665 L 540 651 L 538 637 L 537 636 L 537 632 L 536 631 L 536 613 L 530 605 L 529 601 L 521 583 Z M 788 609 L 787 616 L 788 617 L 789 630 L 790 631 L 790 635 L 791 636 L 791 639 L 792 640 L 792 643 L 793 644 L 793 647 L 794 648 L 794 651 L 796 657 Q 797 659 798 658 L 798 641 L 797 640 L 796 630 L 792 618 L 790 615 L 790 613 L 788 609 Z M 541 615 L 540 625 Q 542 626 541 631 L 542 632 L 542 636 L 544 641 L 544 644 L 546 646 L 546 645 L 554 637 L 562 633 L 564 633 L 565 632 L 554 625 L 541 615 Z M 676 624 L 672 632 Q 673 635 671 637 L 671 647 L 670 648 L 670 654 L 671 655 L 671 664 L 672 665 L 672 671 L 673 672 L 674 686 L 675 687 L 675 702 Q 673 702 674 706 L 665 722 L 660 738 L 657 744 L 656 751 L 654 755 L 654 759 L 653 760 Q 654 764 652 766 L 652 774 L 651 775 L 652 794 L 653 795 L 653 800 L 656 809 L 656 812 L 657 813 L 657 818 L 659 824 L 659 829 L 660 830 L 660 850 Q 658 850 659 855 L 643 889 L 642 897 L 641 898 L 641 902 L 640 903 L 640 908 L 639 909 L 639 914 L 638 915 L 638 925 L 637 926 L 637 934 L 640 941 L 639 944 Q 640 947 647 946 L 650 943 L 652 937 Q 651 932 653 932 L 653 925 L 654 924 L 654 916 L 655 915 L 655 909 L 656 908 L 656 903 L 659 894 L 669 876 L 669 873 L 671 870 L 669 868 L 667 866 Q 665 865 667 864 L 666 861 L 666 853 L 665 852 Q 664 847 666 846 L 666 837 L 667 836 L 668 828 L 677 806 L 676 801 L 666 781 L 666 773 L 667 772 L 667 768 L 668 767 L 670 757 Q 672 756 670 755 Q 669 750 671 750 L 671 742 L 672 741 L 672 733 L 674 727 L 674 722 L 675 721 L 675 714 L 677 710 L 677 707 L 679 701 L 682 695 L 681 692 L 681 676 L 680 675 L 681 649 L 682 648 L 682 640 Q 680 639 681 636 L 678 630 L 678 628 L 676 624 Z M 671 625 Q 667 630 661 633 L 659 633 L 653 636 L 646 637 L 642 639 L 632 641 L 637 642 L 651 651 L 656 657 Q 657 662 655 663 L 653 661 L 647 654 L 638 648 L 624 642 L 615 642 L 614 644 L 622 646 L 636 656 L 644 666 L 647 671 L 648 677 L 649 678 Q 650 681 648 682 L 644 681 L 636 673 L 636 671 L 643 677 L 644 677 L 642 671 L 639 667 L 626 654 L 615 649 L 616 654 L 619 655 L 631 680 L 642 695 L 657 707 L 662 709 L 664 712 L 666 710 L 670 700 L 670 689 L 669 688 L 669 680 L 668 679 L 667 665 L 666 664 L 666 643 L 667 642 L 667 636 L 671 627 L 671 625 Z M 571 635 L 568 637 L 561 639 L 551 645 L 546 651 L 554 675 L 555 683 L 557 687 Q 556 690 558 692 L 558 703 L 564 701 L 574 690 L 575 687 L 583 676 L 589 663 L 586 657 L 586 655 L 585 653 L 577 655 L 568 660 Q 563 663 561 670 Q 560 672 559 671 L 559 664 L 565 657 L 565 655 Q 568 656 570 652 L 579 648 L 584 648 L 586 649 Q 585 645 587 643 Q 588 641 591 641 L 590 643 L 590 654 L 594 660 L 594 661 L 598 661 L 595 653 L 595 647 L 598 642 L 596 640 L 585 639 L 574 635 L 571 635 Z M 600 641 L 599 644 L 599 653 L 603 662 L 606 664 L 608 663 L 610 661 L 612 656 Q 613 651 611 651 Q 612 646 608 648 L 608 646 L 610 643 L 609 641 L 600 641 Z M 616 660 L 614 663 L 607 669 L 608 709 L 609 710 L 609 752 L 610 753 L 610 763 L 611 764 L 611 770 L 612 771 L 612 779 Q 614 779 613 783 L 619 797 L 619 799 L 621 802 L 621 804 L 623 807 L 623 809 L 626 809 L 637 800 L 642 794 L 645 792 L 645 772 L 646 771 L 647 758 L 648 757 L 648 754 L 653 739 L 657 730 L 643 704 L 640 701 L 630 690 L 625 682 L 616 660 Z M 523 697 L 515 710 L 510 721 L 509 728 L 508 729 L 508 737 L 507 738 L 507 759 L 508 760 L 508 770 L 509 771 L 509 783 L 510 784 L 510 791 L 511 792 L 511 798 L 510 799 L 510 811 Q 508 811 509 816 L 504 830 L 503 838 L 502 839 L 502 843 L 499 851 L 499 857 L 502 866 L 502 875 Q 500 876 501 880 L 500 881 L 500 884 L 498 890 L 495 895 L 488 900 Q 481 901 478 899 Q 477 902 479 904 L 479 916 L 480 917 L 480 930 L 484 940 Q 486 944 493 942 L 498 936 L 498 930 L 499 929 L 499 916 L 500 915 L 500 904 L 501 903 L 501 897 L 502 896 L 502 888 L 503 887 L 504 880 L 507 874 L 507 872 L 513 861 L 513 859 L 516 853 Q 515 849 517 849 L 517 840 L 518 839 L 517 816 L 516 815 L 516 802 L 515 801 L 515 786 L 516 785 L 517 767 L 525 743 L 526 736 L 527 735 L 527 727 L 528 726 L 528 709 L 525 700 L 523 697 Z M 654 712 L 653 713 L 659 724 L 663 716 L 654 712 Z M 715 713 L 710 725 L 708 739 L 707 740 L 707 745 L 706 746 L 706 751 L 705 752 L 705 760 L 704 761 L 704 773 L 706 777 L 707 773 L 707 754 L 708 753 L 708 746 L 711 737 L 711 734 L 712 733 L 712 730 L 713 729 L 714 719 L 715 718 L 715 713 Z M 719 724 L 716 737 L 714 741 L 714 745 L 713 746 Q 714 750 712 752 L 712 768 L 711 769 L 711 795 L 712 796 L 712 803 Q 714 804 713 808 L 720 823 L 722 831 L 726 840 L 727 848 L 728 849 L 728 867 L 727 868 L 727 880 Q 729 880 728 884 L 731 886 Q 735 887 737 885 L 739 883 L 742 877 L 743 874 L 743 868 L 744 867 L 744 849 L 743 848 L 743 826 L 740 818 L 740 815 L 736 807 L 735 802 L 731 793 L 730 787 L 727 781 L 727 778 L 720 758 L 719 748 L 718 747 L 718 737 L 719 736 L 719 724 Z M 673 762 L 671 765 L 671 773 L 670 774 L 670 780 L 677 794 L 678 794 L 678 789 L 676 783 L 676 778 L 673 770 L 673 762 Z M 482 786 L 481 790 L 482 790 L 482 786 Z M 481 794 L 480 802 L 481 802 L 481 794 Z M 480 803 L 479 809 L 480 809 L 480 803 Z M 479 810 L 478 814 L 479 814 L 479 810 Z M 710 811 L 708 815 L 709 831 L 710 832 L 710 840 L 711 841 L 711 858 L 710 859 L 710 868 L 708 874 L 705 878 L 701 887 L 700 895 L 699 896 L 699 901 L 698 902 L 697 921 L 696 922 L 696 942 L 697 943 L 697 946 L 700 955 L 704 962 Q 706 966 714 965 L 716 961 L 716 955 L 717 954 L 717 942 L 716 941 L 715 933 L 714 932 L 714 927 L 713 926 L 713 909 L 714 908 L 714 901 L 724 881 L 724 861 L 725 860 L 724 849 L 722 844 L 722 841 L 715 825 L 714 820 L 710 811 Z M 477 816 L 475 819 L 471 822 L 463 822 L 463 831 L 462 832 L 462 844 L 461 845 L 461 851 L 459 856 L 459 860 L 458 861 L 457 872 L 456 873 L 456 882 L 455 883 L 455 891 L 454 892 L 454 903 L 453 904 L 453 914 L 454 915 L 454 926 L 455 927 L 456 941 L 457 942 L 458 950 L 461 957 Q 464 960 469 962 L 471 960 L 475 948 L 475 943 L 476 942 L 476 936 L 474 931 L 474 899 L 472 894 L 467 888 L 464 880 L 464 871 L 465 870 L 465 860 Q 467 858 466 854 L 469 845 L 469 842 L 470 841 L 470 838 L 477 819 L 477 816 Z M 780 822 L 779 829 L 780 829 L 780 822 Z " /><path fill="rgb(52,52,52)" stroke="rgb(52,52,52)" stroke-width="0" opacity="1" d="M 548.5 339 L 577.5 340 L 578.5 341 L 589.5 341 L 590.5 342 L 607.5 343 Q 608.8 345.2 613.5 344 L 619.5 346 L 621 347.5 L 599.5 348 L 598.5 347 L 589.5 347 L 588.5 346 L 579.5 346 L 578.5 345 L 564.5 345 L 563.5 344 L 533.5 344 Q 532.4 346 529 345 Q 527.8 342 531.5 343 L 535.5 341 Q 539.5 342 540.5 340 L 547.5 340 L 548.5 339 Z " /><path fill="rgb(52,52,52)" stroke="rgb(52,52,52)" stroke-width="0" opacity="1" d="M 702 380 Q 705 378.8 704 382.5 L 714.5 394 L 719 397.5 L 718.5 399 L 712.5 396 L 708 391.5 L 702 384.5 L 702 380 Z " /><path fill="rgb(52,52,52)" stroke="rgb(52,52,52)" stroke-width="0" opacity="1" d="M 621.5 424 L 641.5 434 L 650 441.5 L 651 444.5 Q 650.5 446.5 647.5 446 Q 640.7 439.8 631.5 436 L 624 429.5 L 621 425.5 L 621.5 424 Z " /><path fill="rgb(52,52,52)" stroke="rgb(52,52,52)" stroke-width="0" opacity="1" d="M 562.5 431 Q 566.3 430.3 567 432.5 L 566 435 L 560.5 437 L 544.5 447 L 539 448 Q 538.5 445.1 541.5 444 L 544.5 443 Q 552.2 435.7 562.5 431 Z " /><path fill="rgb(52,52,52)" stroke="rgb(52,52,52)" stroke-width="0" opacity="1" d="M 632.5 454 L 636.5 454 L 642.5 458 L 649.5 459 L 656 464.5 L 663 474.5 L 665 480.5 L 665 486.5 L 664 487.5 L 663 496.5 L 657.5 503 L 647.5 507 L 644.5 507 L 643.5 506 L 637.5 506 L 636.5 505 L 630.5 504 Q 623.1 501.4 619 495.5 L 615 486.5 L 615 473.5 L 616 472.5 L 617 466.5 L 624.5 458 L 632.5 454 Z M 634 458 L 629 461 L 623 467 L 620 476 L 620 485 L 623 492 L 629 497 L 636 500 Q 640 499 642 501 L 650 501 L 656 498 L 658 496 L 661 488 L 661 480 L 658 474 L 646 462 L 641 461 L 638 458 L 634 458 Z " /><path fill="rgb(52,52,52)" stroke="rgb(52,52,52)" stroke-width="0" opacity="1" d="M 627.5 474 L 638.5 474 L 640 475.5 L 644 482.5 L 644 485.5 L 640.5 492 L 634.5 493 L 628.5 491 L 625 487.5 L 623 483.5 L 623 479.5 L 627.5 474 Z " /><path fill="rgb(52,52,52)" stroke="rgb(52,52,52)" stroke-width="0" opacity="1" d="M 588.5 538 L 604.5 538 L 606 539.5 Q 606.4 543.1 605.5 543 L 595.5 543 L 593.5 542 Q 592.5 544 588.5 543 Q 587.3 540.8 582.5 542 L 580 540.5 L 583.5 539 L 587.5 539 L 588.5 538 Z " /><path fill="rgb(254,254,254)" stroke="rgb(254,254,254)" stroke-width="0" opacity="1" d="M 0 0 L 864 0 L 864 1232 L 0 1232 L 0 0 Z M 653 200 L 651 201 L 648 205 L 647 209 L 640 218 L 638 223 L 620 245 L 609 256 L 591 270 L 559 292 L 551 296 L 521 316 L 507 331 L 503 338 L 502 343 L 501 344 L 498 344 L 488 348 L 473 358 L 466 365 L 460 376 L 460 388 L 463 394 L 472 400 L 481 403 L 491 404 L 493 405 L 492 410 L 484 425 L 479 430 L 477 430 L 477 432 L 468 443 L 465 450 L 463 456 L 463 460 L 462 461 L 462 471 L 461 472 L 463 483 Q 464 485 468 484 L 468 478 L 467 477 L 468 461 L 473 446 Q 479 435 488 429 L 492 423 L 494 417 L 498 410 L 498 395 L 499 394 L 499 386 Q 501 385 500 381 L 503 374 L 508 367 L 510 365 L 516 365 L 517 364 L 531 364 L 532 363 Q 535 362 537 364 L 548 363 L 545 371 L 546 378 Q 548 374 549 369 L 553 363 L 570 363 L 571 364 L 582 364 Q 582 366 585 365 L 585 378 L 584 379 L 584 385 L 582 391 L 570 414 L 564 420 L 556 425 L 552 429 L 543 432 L 534 439 L 525 450 L 522 459 L 520 462 L 517 471 L 517 474 L 516 475 L 516 485 L 515 486 L 501 486 Q 502 483 500 482 L 500 462 Q 502 461 501 457 L 504 450 L 504 447 L 506 441 L 511 432 L 516 427 L 530 420 L 538 411 L 543 399 L 543 388 L 539 399 L 533 410 L 527 416 Q 520 418 516 422 L 514 422 L 515 421 L 516 415 L 519 410 L 519 408 L 524 399 L 524 394 L 528 383 L 528 380 Q 527 377 524 378 L 523 384 L 519 392 L 519 397 L 518 400 L 513 408 L 513 410 L 510 416 L 510 420 L 508 425 L 508 429 L 504 433 L 501 440 L 499 450 L 496 458 L 496 464 L 495 465 L 495 476 L 496 477 L 496 483 L 497 485 Q 494 484 493 486 L 411 486 L 410 487 L 390 487 L 389 486 L 356 486 L 355 485 L 326 485 L 325 484 L 251 484 L 250 483 L 239 483 L 238 482 L 214 482 L 213 481 L 194 481 L 192 482 L 197 474 L 221 448 L 232 428 L 241 417 L 240 414 L 238 414 L 236 416 L 206 431 L 204 433 L 177 446 L 175 448 L 166 452 L 151 461 L 149 462 L 154 447 L 156 421 L 158 415 L 159 404 L 160 403 L 160 398 L 163 389 L 163 385 L 161 383 L 148 401 L 143 410 L 140 413 L 139 416 L 133 424 L 128 434 L 122 442 L 120 447 L 114 456 L 112 457 L 94 436 L 89 428 Q 74 414 62 397 Q 59 397 58 399 L 58 411 L 59 412 L 59 416 L 61 421 L 61 424 L 62 425 L 64 439 L 65 440 L 65 444 L 66 445 L 67 457 L 68 458 L 68 463 L 70 468 L 70 471 L 71 472 Q 70 479 72 482 L 66 483 L 51 489 L 35 492 L 28 495 Q 25 496 26 500 L 32 502 L 35 502 L 36 503 L 45 504 L 46 505 L 51 505 L 52 506 L 57 506 L 61 508 L 67 509 L 68 511 L 59 538 L 45 567 L 42 580 L 41 581 L 44 583 L 47 583 L 53 580 L 59 575 L 101 547 L 102 551 L 102 555 L 103 556 L 103 560 L 105 565 L 105 568 L 106 569 L 106 573 L 109 582 L 109 586 L 110 587 L 110 597 L 111 598 L 111 606 L 112 607 L 112 625 L 115 630 L 115 633 Q 116 635 120 634 L 125 622 L 125 619 L 127 615 L 127 612 L 129 606 L 138 587 L 141 578 L 141 575 L 149 553 L 152 558 Q 156 563 163 565 L 186 586 L 202 597 L 212 602 L 215 600 L 214 595 L 208 586 L 204 573 L 199 563 L 197 557 L 197 554 L 188 539 L 181 533 L 183 531 L 188 531 L 192 529 L 206 528 L 207 527 L 222 527 L 223 526 L 232 526 L 237 524 Q 239 524 238 521 L 220 512 L 297 511 L 298 510 L 320 510 L 321 511 L 347 511 L 348 512 L 401 512 L 402 513 Q 406 514 408 512 L 461 512 L 462 513 L 466 513 L 466 524 L 465 525 L 465 538 L 464 539 L 464 546 Q 462 546 463 550 L 459 559 L 447 574 L 441 586 L 438 601 L 437 602 L 437 606 L 435 611 L 435 615 L 434 616 Q 435 620 433 622 L 433 630 L 432 631 L 433 639 L 434 640 L 434 645 L 435 646 L 435 654 L 436 655 L 437 661 L 440 666 L 440 679 L 438 685 L 438 690 L 435 698 L 434 711 L 433 712 L 433 720 L 432 721 L 432 736 L 433 737 L 434 747 L 435 748 L 436 754 L 444 770 L 450 773 Q 452 774 450 776 L 450 784 L 451 785 L 451 799 Q 453 800 452 805 L 454 810 L 454 813 L 459 821 L 458 834 L 457 835 L 457 843 L 456 844 L 455 853 L 453 857 L 453 861 L 452 862 L 451 875 L 450 876 L 450 884 L 449 885 L 449 892 L 448 893 L 448 924 L 449 925 L 449 932 L 450 933 L 451 945 L 456 960 L 462 965 L 467 967 L 472 966 L 474 964 L 475 959 L 477 956 L 477 953 L 479 949 L 479 944 L 488 948 Q 493 949 496 947 L 502 941 L 504 936 L 504 926 L 505 925 L 505 914 L 506 913 L 506 905 L 512 905 L 517 902 L 522 896 L 526 889 L 531 874 L 532 865 L 533 864 L 533 857 L 534 856 L 534 841 L 535 840 L 535 809 L 536 808 L 536 799 L 537 798 L 538 782 L 539 781 L 539 775 L 541 774 L 546 785 L 556 797 Q 561 803 569 805 Q 571 807 572 811 Q 573 813 574 812 L 572 805 L 566 798 L 564 798 L 564 797 L 550 781 L 545 771 L 542 768 L 542 765 L 546 758 L 546 756 L 548 753 L 551 744 L 552 737 L 557 722 L 557 716 L 558 715 L 558 710 L 564 708 L 571 703 L 576 697 L 582 686 L 586 681 L 591 669 Q 592 666 593 668 L 593 683 L 592 684 L 592 697 L 591 698 L 591 708 L 590 709 L 590 721 L 589 722 L 589 730 Q 587 731 588 736 L 587 737 L 587 744 L 586 745 L 586 753 L 584 759 L 584 766 L 583 767 L 582 788 L 580 794 L 580 801 L 578 805 L 579 807 L 583 801 L 584 794 L 586 790 L 586 786 L 587 785 L 588 766 L 589 765 L 590 753 L 591 752 L 592 737 L 593 736 L 593 729 L 594 728 L 594 720 L 595 719 L 595 702 L 596 701 L 596 693 L 597 692 L 597 680 L 596 679 L 596 670 Q 594 668 595 665 Q 599 664 602 666 L 603 668 L 603 699 L 604 700 L 604 717 L 605 718 L 605 758 L 606 759 L 606 767 L 607 768 L 607 773 L 608 774 L 608 780 Q 610 780 609 784 L 613 792 L 613 794 L 619 805 L 620 810 L 624 814 L 632 809 L 640 802 L 646 793 L 647 804 L 650 813 L 651 822 L 652 823 L 652 827 L 653 828 L 653 835 L 654 836 L 654 846 L 653 847 L 653 853 L 643 873 L 641 880 L 637 888 L 636 896 L 635 897 L 635 902 L 633 907 L 632 922 L 631 923 L 631 937 L 636 950 L 638 949 L 643 952 L 647 952 L 653 949 L 656 945 L 658 939 L 659 928 L 660 927 L 660 917 L 661 916 L 662 903 L 664 897 L 675 876 Q 676 879 680 879 L 680 882 L 678 885 L 676 891 L 676 894 L 675 895 L 674 904 L 673 905 L 673 911 L 672 912 L 672 919 L 671 920 L 671 933 L 673 939 L 673 944 L 675 948 L 675 951 L 678 960 L 682 968 L 688 973 L 696 976 L 701 975 Q 704 974 703 968 Q 700 967 699 970 L 695 970 L 691 968 L 688 966 L 684 958 L 680 946 L 678 932 L 677 931 L 677 922 L 678 921 L 678 910 L 679 909 L 679 902 L 681 896 L 682 887 L 684 882 L 689 879 L 696 866 Q 695 861 697 860 L 697 843 L 698 842 L 698 834 L 699 833 L 700 825 L 704 818 L 704 831 L 705 832 L 705 838 L 706 839 L 706 864 L 705 865 L 704 872 L 702 874 L 696 887 L 695 895 L 694 896 L 694 901 L 693 902 L 692 920 L 691 921 L 691 941 L 697 959 L 701 965 L 706 968 Q 709 967 710 969 Q 714 970 716 968 L 719 964 Q 718 960 720 960 L 720 953 L 721 952 L 721 942 Q 719 940 720 936 L 719 935 L 719 930 L 718 929 L 718 924 L 717 923 L 717 916 L 718 915 L 718 907 Q 720 905 719 901 L 724 892 L 726 885 L 727 888 L 732 890 Q 737 891 740 889 L 743 886 L 747 878 L 748 875 L 748 867 L 749 866 L 749 852 L 748 851 L 748 843 L 747 842 L 747 836 L 748 835 L 747 822 L 741 808 L 742 806 L 752 822 L 755 831 L 755 834 L 756 835 L 756 839 L 757 840 L 757 857 L 756 858 L 756 868 L 755 869 L 755 879 L 754 880 L 753 896 L 752 897 L 752 905 L 757 918 L 763 921 Q 767 922 770 920 L 772 918 L 773 915 L 774 906 L 775 905 L 775 897 L 776 896 L 776 893 L 777 892 L 777 889 L 778 888 L 778 885 L 779 882 Q 784 883 787 881 L 790 874 L 790 871 L 793 863 L 794 855 L 795 854 L 795 851 L 798 843 L 798 833 L 799 832 L 799 812 L 800 811 L 800 804 L 799 803 L 799 792 L 798 791 L 797 783 L 796 782 L 796 776 L 797 775 L 797 765 L 796 764 L 796 754 L 797 753 L 797 747 L 798 746 L 798 739 Q 800 737 799 734 L 801 731 L 804 720 L 810 710 L 811 705 L 813 702 L 816 693 L 816 690 L 817 689 L 818 681 L 819 680 L 820 669 L 821 668 L 821 660 L 822 659 L 822 651 L 823 650 L 823 635 L 824 634 Q 825 629 823 629 L 823 622 L 822 621 L 822 618 L 820 612 L 814 600 L 808 592 L 800 576 L 798 568 L 795 562 L 795 553 L 794 552 L 794 538 L 793 537 L 793 527 Q 791 525 792 522 L 789 513 L 787 510 L 786 505 L 781 496 L 769 483 L 764 479 L 762 479 L 762 478 Q 757 473 754 466 L 754 462 L 752 456 L 752 450 L 751 449 L 751 443 L 750 442 L 749 434 L 743 424 L 737 418 L 727 412 L 724 414 L 728 417 L 736 422 Q 741 426 744 434 L 745 440 L 746 441 L 746 445 L 747 446 L 747 454 L 748 455 L 749 465 Q 752 473 757 480 Q 762 485 769 489 L 775 496 L 779 502 L 786 518 L 787 525 L 788 526 L 788 534 L 789 535 L 789 548 L 790 549 L 790 571 L 789 572 L 789 579 L 788 580 L 788 589 L 785 598 Q 786 601 784 603 L 784 611 L 783 612 L 784 614 L 784 625 L 785 626 L 786 636 L 789 645 L 789 648 L 791 652 L 792 659 L 794 663 L 795 674 L 796 675 Q 797 678 795 680 L 796 682 Q 797 686 795 688 L 795 697 L 783 728 Q 784 731 782 733 L 782 740 L 781 741 L 781 752 L 775 742 Q 776 738 774 738 L 775 736 L 771 724 L 771 721 L 770 720 L 770 700 L 771 699 L 771 649 L 770 648 L 770 641 L 769 640 L 769 633 L 768 632 L 767 622 L 760 605 Q 762 603 761 599 L 762 598 L 762 590 L 764 584 L 764 580 L 767 571 L 768 551 L 769 550 L 769 534 L 761 518 L 754 511 L 751 509 L 751 507 L 746 498 L 737 487 L 735 483 L 729 477 L 723 472 L 720 464 L 720 450 Q 718 448 719 444 L 718 443 L 717 436 L 714 430 Q 706 420 696 414 L 687 405 L 678 396 L 676 394 L 675 395 L 684 408 Q 693 419 706 426 Q 710 431 713 438 L 714 447 L 715 448 L 715 453 L 716 454 L 716 467 L 721 477 L 725 479 L 732 487 L 744 504 L 747 510 L 748 517 L 749 518 L 749 522 L 750 523 L 750 530 L 751 531 L 751 547 L 750 548 L 750 557 L 749 558 L 749 567 L 748 568 L 748 582 L 749 583 L 750 594 L 762 622 L 763 631 L 764 632 L 764 638 L 765 639 L 765 646 L 766 647 L 766 659 L 767 660 L 766 662 L 766 670 L 767 671 L 767 696 L 766 697 L 766 721 L 770 732 L 771 743 L 776 752 L 778 760 L 792 781 L 793 789 L 794 787 L 795 789 Q 794 793 796 795 L 796 803 L 797 804 L 796 811 L 795 812 L 795 818 L 794 819 L 794 830 L 793 831 L 792 845 L 788 857 L 788 862 L 787 863 L 787 866 L 786 867 L 784 877 L 782 878 L 780 877 Q 781 872 778 871 L 778 855 L 779 854 L 779 842 L 780 841 L 780 830 L 779 829 L 780 822 L 780 829 Q 781 830 782 828 L 781 826 L 781 815 L 779 809 L 779 805 L 767 790 L 764 783 L 759 776 L 758 766 L 754 756 L 754 743 L 753 742 L 753 732 L 754 731 L 754 673 Q 752 671 753 667 L 744 647 L 740 641 L 739 636 L 730 617 L 730 613 L 728 609 L 728 599 L 727 598 L 727 570 L 728 569 L 728 535 L 727 534 L 726 520 L 724 515 L 724 512 L 718 502 L 711 494 L 706 486 L 702 476 L 702 473 L 698 461 L 692 449 L 680 437 L 668 426 L 653 408 L 643 391 L 639 379 L 639 371 L 641 369 L 644 370 L 652 370 L 653 371 L 660 371 L 661 372 L 676 373 L 677 374 L 687 375 L 688 376 L 693 376 L 702 379 L 705 379 L 706 380 L 709 380 L 710 381 L 713 381 L 714 382 L 717 382 L 734 388 L 737 388 L 743 390 L 748 393 L 750 393 L 759 397 L 767 402 L 768 404 L 773 419 L 773 434 L 774 435 L 774 444 L 777 453 L 783 466 L 787 472 L 795 483 L 806 495 L 811 504 L 811 506 L 814 512 L 815 523 L 816 524 L 816 532 L 817 533 L 817 546 L 816 547 L 816 554 L 815 555 L 814 572 L 812 577 L 811 584 L 809 587 Q 808 590 811 589 L 815 585 L 818 578 Q 817 574 819 574 L 819 568 L 820 567 L 820 559 L 821 558 L 821 549 L 822 548 L 822 531 L 821 530 L 821 523 L 820 522 L 819 511 L 816 502 L 810 492 Q 798 479 788 465 L 788 463 L 790 460 L 805 446 L 812 441 Q 818 436 821 429 L 823 418 L 825 414 L 825 410 L 826 409 L 826 401 L 822 393 L 815 385 L 803 377 L 793 372 L 791 370 L 786 369 L 787 363 L 788 362 L 787 353 L 783 344 L 782 339 L 780 336 L 779 331 L 777 328 L 777 326 L 769 310 L 759 295 Q 760 292 763 292 L 763 291 L 775 276 L 781 263 L 781 257 L 780 254 L 778 253 L 767 253 L 764 255 L 762 255 L 751 261 L 742 269 L 740 269 L 715 244 Q 705 238 699 230 L 680 218 L 671 210 Q 667 211 669 207 L 666 203 L 664 203 L 661 201 L 658 200 L 653 200 Z M 702 380 L 702 385 L 708 392 L 713 396 L 719 399 L 719 398 L 715 394 L 704 383 Q 705 379 702 380 Z " /><path fill="rgb(254,254,254)" stroke="rgb(254,254,254)" stroke-width="0" opacity="1" d="M 652 203 L 657.5 203 L 662.5 207 L 664 207 L 664 208.5 L 672.5 217 L 693.5 233 L 734 271.5 Q 733.3 273.8 735.5 273 L 736 273.5 L 731 278.5 L 721 291.5 L 715 301.5 L 712 308.5 L 712 314 L 710.5 314 L 699.5 306 L 683.5 298 L 681.5 298 L 661.5 288 L 659.5 288 L 656.5 286 L 641.5 281 L 633.5 280 L 632.5 279 L 625.5 279 L 624.5 278 L 613.5 278 L 612.5 277 L 595.5 277 Q 594.3 279.3 589.5 278 L 589.5 277 L 592.5 276 L 605.5 266 L 619 253.5 L 633 236.5 Q 635.8 229.3 641 224.5 L 643 219.5 L 649 211.5 L 652 203 Z " /><path fill="rgb(254,254,254)" stroke="rgb(254,254,254)" stroke-width="0" opacity="1" d="M 772.5 257 Q 777 256 778 258.5 L 776 267.5 L 773 272.5 L 757.5 291 Q 744.1 298.6 734.5 310 L 725.5 315 L 722.5 318 L 721 318 Q 722.1 320.7 719.5 320 L 718 317.5 Q 720.3 311.3 725.5 308 L 732 302.5 L 737 295.5 L 752 279.5 L 756 271.5 L 755.5 271 L 743 283.5 L 730 299.5 L 717 312.5 L 716 317 L 713 315.5 L 715 307.5 L 725 291.5 L 742.5 273 L 756.5 263 L 762.5 260 L 768.5 258 L 771.5 258 L 772.5 257 Z " /><path fill="rgb(254,254,254)" stroke="rgb(254,254,254)" stroke-width="0" opacity="1" d="M 594.5 281 L 607.5 281 L 608.5 282 L 617.5 282 L 618.5 283 L 626.5 283 Q 627.7 285.3 632.5 284 L 633.5 285 L 636.5 285 L 637.5 286 L 640.5 286 L 649.5 289 L 659.5 294 L 661.5 294 L 699.5 313 L 725.5 332 L 735 341.5 L 741 349.5 L 746 360 L 743.5 359 L 736.5 359 L 735.5 358 L 729.5 358 L 728.5 357 L 717.5 356 L 715 353.5 L 715 351.5 L 704 340.5 L 704 337.5 L 708.5 330 L 712.5 333 L 715 333 Q 715.8 329.2 712.5 328 Q 706.7 325.8 703.5 321 Q 701.5 321.5 702 324.5 L 706 328.5 L 704 330.5 Q 703.4 334.4 700.5 336 L 678.5 318 L 644.5 302 L 639.5 301 L 636.5 299 L 621.5 294 L 618.5 294 L 609.5 291 Q 604.7 292.3 603.5 290 L 592.5 290 L 591.5 289 L 577.5 289 Q 576.5 291 572.5 290 L 572.5 289 L 582.5 282 L 593.5 282 L 594.5 281 Z " /><path fill="rgb(254,254,254)" stroke="rgb(254,254,254)" stroke-width="0" opacity="1" d="M 571.5 294 L 590.5 294 L 591.5 295 L 598.5 295 L 599.5 296 L 607.5 296 L 608.5 297 L 616.5 298 L 634.5 304 L 644.5 309 L 651.5 311 L 670.5 321 L 672.5 321 L 681.5 327 L 697 340.5 L 694 345.5 L 696.5 346 Q 697 343.5 700.5 344 L 710 354.5 L 705.5 355 L 704.5 354 L 697.5 354 L 696.5 353 L 686.5 353 L 685.5 352 L 678.5 352 L 677.5 353 L 671 353.5 L 672.5 355 L 678.5 355 L 679.5 356 L 693.5 357 L 704.5 361 L 713.5 361 L 714.5 362 L 721.5 362 L 722.5 363 L 730.5 363 L 731.5 364 L 744.5 365 L 745.5 366 L 750.5 366 L 751.5 367 L 755.5 367 L 756.5 368 L 761.5 368 L 762.5 369 L 766.5 369 L 767.5 370 L 775.5 371 L 792.5 378 L 809.5 389 L 816 394.5 L 820 401.5 L 820 411.5 L 819 412.5 L 818 421.5 L 815 430.5 L 801.5 445 Q 794.7 448.7 790 454.5 L 787 458.5 L 787 460 Q 784.3 461.1 785 458.5 L 781 450.5 L 780 443.5 L 785 438.5 L 788 433.5 L 790 422.5 L 789 421.5 L 789 418.5 L 788 417.5 L 786 407.5 L 782.5 403 L 777.5 402 L 769.5 396 L 749.5 386 L 725.5 378 L 722.5 378 L 718.5 376 L 715.5 376 L 714.5 375 L 711.5 375 L 710.5 374 L 707.5 374 L 706.5 373 L 703.5 373 L 694.5 370 L 685.5 369 L 684.5 368 L 679.5 368 L 678.5 367 Q 673.8 368.2 672.5 366 L 666.5 366 L 665.5 365 L 658.5 365 L 657.5 364 L 648.5 364 L 647.5 363 L 638.5 363 L 637.5 362 L 618.5 361 L 617.5 360 L 600.5 360 L 599.5 359 L 589.5 359 L 588.5 358 L 572.5 358 L 571.5 357 L 542.5 357 L 541.5 358 L 516.5 358 L 515.5 359 L 509.5 359 L 508.5 360 L 503.5 360 L 502.5 361 L 494.5 362 L 485.5 366 L 477 373.5 L 472 382.5 L 474.5 384 L 484.5 372 L 491.5 368 L 497.5 367 L 498.5 366 L 502.5 366 L 503 366.5 L 501 368.5 L 495 379.5 L 494 390.5 L 493 391.5 L 493 400 L 490.5 399 L 483.5 399 L 478.5 397 L 474.5 397 L 471.5 396 L 467 391.5 L 464 385.5 L 464 380.5 L 465 379.5 L 466 373.5 L 475.5 363 L 485.5 356 L 496.5 351 L 502.5 350 L 503.5 349 L 507.5 349 L 508.5 348 L 515.5 348 Q 516.4 346.3 519 347 L 519 341 L 514.5 341 L 513.5 342 L 506 342 Q 510.8 329.6 521.5 322 L 555.5 300 L 563.5 296 L 570.5 295 L 571.5 294 Z M 549 339 L 548 340 L 541 340 Q 540 342 536 341 L 532 343 Q 528 342 529 345 Q 532 346 534 344 L 564 344 L 565 345 L 579 345 L 580 346 L 589 346 L 590 347 L 599 347 L 600 348 L 621 348 L 620 346 L 614 344 Q 609 345 608 343 L 591 342 L 590 341 L 579 341 L 578 340 L 549 339 Z M 784 441 Q 781 442 783 443 Q 786 444 786 442 L 784 441 Z " /><path fill="rgb(254,254,254)" stroke="rgb(254,254,254)" stroke-width="0" opacity="1" d="M 754.5 298 L 757 299.5 L 759 304.5 L 770 321.5 L 770 323.5 L 773 328.5 L 778 343.5 L 781 348.5 L 783 354.5 L 783 357.5 L 784 358.5 L 784 361.5 L 783 362.5 L 783 367 L 777.5 365 L 773.5 365 L 772.5 364 L 768.5 364 L 762.5 362 L 757.5 362 L 753 359.5 L 743 341.5 L 731.5 329 L 721 321.5 L 734.5 315 L 754.5 298 Z " /><path fill="rgb(254,254,254)" stroke="rgb(254,254,254)" stroke-width="0" opacity="1" d="M 590 365 L 596.5 365 L 597.5 366 L 608.5 366 L 609.5 367 L 623.5 367 L 624.5 368 Q 632.7 366.9 636 369 L 635 371.5 L 635 376.5 L 636 377.5 L 636 381.5 L 637 382.5 L 638 388.5 L 645 403.5 Q 656.9 421.1 671.5 436 L 686 449.5 L 688 454.5 L 689 462.5 L 692 470.5 L 692 476.5 L 693 477.5 L 693 496.5 L 692 497.5 L 692 509.5 L 693 510.5 L 693 513.5 L 694 514.5 L 694 517.5 L 695 518.5 L 695 521.5 L 698 530.5 L 698 534.5 L 699 535.5 L 699 549.5 L 698 550.5 L 697 569.5 L 694 578.5 Q 695 582.5 693 583.5 L 693 590.5 L 692 591.5 L 692 607.5 L 695 615.5 L 695 619.5 Q 693 620.5 694 624.5 L 695 625.5 L 696 647.5 L 695 648.5 L 695 659.5 L 694 660.5 L 694 665.5 L 692 670.5 L 692 674.5 L 685.5 687 L 685 658.5 L 686 657.5 L 686 650.5 L 687 649.5 L 687 637.5 L 684 628.5 L 680 622.5 Q 681 618.5 679 617.5 L 679 607.5 L 678 606.5 L 678 592.5 Q 680.2 591.3 679 586.5 L 688 569.5 L 691 560.5 L 692 553.5 L 693 552.5 Q 692 548.5 694 547.5 L 694 535.5 L 695 534.5 L 695 523.5 L 694 523.5 L 693 530.5 L 692 531.5 L 692 535.5 L 691 536.5 L 690 546.5 L 688 550.5 L 688 553.5 L 684 565.5 L 677 579.5 L 675 581.5 L 674 588.5 L 673 589.5 L 673 599.5 L 672 600.5 L 673 601.5 L 673 609.5 L 674 610.5 L 674 616.5 L 675 617.5 L 658.5 628 L 649.5 631 L 646.5 631 L 642.5 633 L 639.5 633 L 634.5 635 L 621.5 635 L 620.5 636 L 602.5 636 L 601.5 635 L 586.5 634 L 571.5 629 L 550.5 616 L 536 603.5 L 531 593.5 L 529 586.5 L 525 579.5 L 524 572.5 L 522 567.5 L 522 558.5 L 521 557.5 L 520 544.5 L 519 543.5 L 519 519.5 L 518 518.5 L 518 514 L 546.5 514 L 547.5 513 L 593.5 513 L 594.5 512 L 607.5 512 L 609 510.5 L 607.5 508 L 554.5 508 L 553.5 509 L 518 509 L 517.5 507 L 515.5 509 L 480.5 509 L 479.5 508 L 470.5 508 L 468.5 507 L 467.5 508 L 432.5 508 L 430.5 507 L 429.5 508 L 387.5 508 L 386.5 507 L 370.5 507 L 369.5 508 L 357.5 508 L 356.5 507 L 327.5 507 L 326.5 506 L 291.5 506 L 290.5 507 L 232.5 507 L 231.5 506 L 222.5 506 L 221.5 507 L 206.5 507 L 205.5 508 L 199.5 508 L 198.5 507 L 189.5 507 L 188.5 508 L 155.5 508 L 156 506.5 Q 155.3 503.2 157 502.5 L 157 493.5 L 155 488.5 L 195.5 488 L 196.5 487 L 223.5 487 L 224.5 486 L 239.5 486 L 240.5 487 L 255.5 487 L 256.5 488 L 280.5 488 L 281.5 487 L 311.5 487 L 312.5 488 L 339.5 488 L 340.5 489 L 382.5 489 L 383.5 490 L 417.5 490 L 418.5 489 L 503.5 489 L 504.5 490 L 559.5 490 L 560.5 489 L 587.5 489 L 588.5 488 L 599.5 488 L 600.5 487 L 604.5 487 L 607 486 L 606.5 484 L 594.5 484 L 593.5 483 L 587 482.5 L 588 481.5 L 588 473.5 L 584 463.5 L 579.5 458 L 576.5 456 L 569.5 455 L 568.5 454 L 556.5 454 Q 548.5 456.5 544 462.5 L 539 472.5 L 539 483.5 L 540 486 L 520 486 L 520 477.5 L 527 456.5 L 531 448.5 L 536.5 442 L 547.5 434 L 556.5 431 L 573 418.5 L 576 414.5 L 588 388.5 Q 587 384.5 589 383.5 L 589 376.5 L 590 375.5 L 590 365 Z M 622 424 L 621 426 L 624 430 L 632 436 Q 641 440 648 446 Q 651 447 651 445 L 650 442 L 642 434 L 622 424 Z M 563 431 Q 552 436 545 443 L 542 444 Q 539 445 539 448 L 545 447 L 561 437 L 566 435 L 567 433 Q 566 430 563 431 Z M 633 454 L 625 458 L 617 467 L 616 473 L 615 474 L 615 487 L 619 496 Q 623 501 631 504 L 637 505 L 638 506 L 644 506 L 645 507 L 648 507 L 658 503 L 663 497 L 664 488 L 665 487 L 665 481 L 663 475 L 656 465 L 650 459 L 643 458 L 637 454 L 633 454 Z M 589 538 L 588 539 L 584 539 L 580 541 L 583 542 Q 587 541 589 543 Q 592 544 594 542 L 596 543 L 606 543 Q 606 543 606 540 L 605 538 L 589 538 Z " /><path fill="rgb(254,254,254)" stroke="rgb(254,254,254)" stroke-width="0" opacity="1" d="M 155.5 397 L 156 398.5 L 155 399.5 L 154 410.5 L 153 411.5 L 153 415.5 L 151 421.5 L 149 447.5 L 146 454.5 L 145 462.5 Q 146.5 466.5 153.5 465 L 156.5 464 L 169.5 455 L 203.5 438 L 205.5 436 L 212.5 433 L 214.5 431 L 229.5 423 L 230 423.5 L 228 425.5 L 226 430.5 L 216 446.5 L 193 472.5 L 187 481.5 L 187.5 483 L 180.5 483 L 177.5 484 Q 176.8 482.3 173.5 483 L 172.5 484 L 161.5 484 L 160.5 483 L 153.5 483 L 152 481.5 L 151 478.5 L 141.5 469 L 135.5 466 L 131.5 466 L 130.5 467 L 122.5 467 L 119.5 468 L 118.5 467 L 110.5 467 L 101.5 471 L 93 478.5 L 90 483.5 L 87 492.5 L 87 504.5 L 92 516.5 L 99.5 525 L 103.5 528 L 112.5 532 Q 116.5 531 117.5 533 L 126.5 533 L 138.5 529 L 149 520.5 L 154.5 512 L 168.5 512 L 169.5 513 L 180.5 513 L 181.5 512 L 208.5 512 L 214.5 516 L 216.5 516 L 226 520.5 L 220.5 521 L 219.5 522 L 203.5 522 L 202.5 523 L 194.5 523 L 193.5 524 L 189.5 524 L 185.5 526 L 181.5 526 L 176 528 Q 175.2 532.2 177 534.5 L 185 542.5 L 192 553.5 L 195 565.5 L 199 573.5 L 204 588.5 L 207 593.5 L 205.5 593 L 189.5 583 L 167.5 563 L 158.5 558 L 156 555.5 L 151.5 550 L 147.5 548 L 144.5 548 L 145 549.5 L 142 560.5 L 137 571.5 L 137 574.5 L 134 583.5 L 125 602.5 L 122 611.5 L 120 622.5 L 118.5 625 L 117 622.5 L 117 600.5 L 116 599.5 L 116 589.5 L 115 588.5 L 115 582.5 L 113 577.5 L 112 568.5 L 111 567.5 L 111 564.5 L 110 563.5 L 110 560.5 L 109 559.5 L 109 556.5 L 108 555.5 L 106 545.5 Q 108 544.5 106 543.5 L 104.5 541 L 102.5 541 L 90.5 548 L 73.5 560 L 58.5 569 L 48.5 577 L 48 575.5 L 49 574.5 L 49 570.5 L 52 564.5 L 52 562.5 L 63 541.5 L 63 539.5 L 67 531.5 L 74 509.5 L 67.5 505 L 61.5 504 L 57.5 502 L 47.5 501 L 46.5 500 L 41.5 500 L 40.5 499 L 36.5 499 L 32 497.5 L 39.5 495 L 43.5 495 L 44.5 494 L 52.5 493 L 61.5 489 L 73.5 486 L 75 484.5 L 76 481.5 L 76 475.5 L 75 474.5 L 75 469.5 L 73 464.5 L 73 459.5 L 72 458.5 L 72 451.5 L 71 450.5 L 70 439.5 L 69 438.5 L 69 434.5 L 68 433.5 L 68 429.5 L 67 428.5 L 67 424.5 L 66 423.5 L 64 412.5 L 63 411.5 L 63 407.5 L 63.5 407 L 66 409.5 L 78.5 424 L 83 427.5 L 93 442.5 L 98 447.5 L 110.5 464 L 112.5 465 L 116 461.5 L 117 458.5 L 123 450.5 L 125 445.5 L 140 420.5 L 155.5 397 Z " /><path fill="rgb(254,254,254)" stroke="rgb(254,254,254)" stroke-width="0" opacity="1" d="M 771.5 405 L 782 413.5 L 785 420.5 L 785 429.5 L 779.5 439 L 777 431.5 L 777 416.5 L 771 405.5 L 771.5 405 Z " /><path fill="rgb(254,254,254)" stroke="rgb(254,254,254)" stroke-width="0" opacity="1" d="M 689.5 454 L 695 464.5 L 700 482.5 L 717 509.5 L 718 520.5 L 719 521.5 L 719 553.5 L 718 554.5 L 718 559.5 L 717 560.5 L 715 571.5 L 712 578.5 L 711 587.5 L 709 592.5 L 709 596.5 L 707 602.5 L 707 609.5 L 706 610.5 L 706 618.5 Q 704.3 619.3 705 622.5 L 706 623.5 L 706 629.5 L 707 630.5 L 707 635.5 L 708 636.5 L 710 647.5 L 712 650.5 L 714 660.5 L 717 668.5 Q 716 672.5 718 673.5 L 718 681.5 L 719 684.5 L 718 685.5 L 717 702.5 L 708 720.5 L 706 730.5 L 705 731.5 L 705 734.5 L 704 735.5 L 704 738.5 L 703 739.5 L 703 742.5 L 702 743.5 Q 703.3 748.2 701 749.5 L 701 757.5 L 700 758.5 L 700 771.5 L 702 775.5 L 702 779.5 L 704 784.5 Q 703 788.5 705 789.5 L 705 796.5 L 703 800.5 L 703 803.5 L 702 804.5 L 702 807.5 L 700 813.5 L 694 827.5 L 693 843.5 L 692 844.5 L 692 861.5 L 691 862.5 L 690 868.5 L 685.5 875 Q 679 876 677 872.5 L 671 860.5 L 670 845.5 L 671 844.5 L 672 831.5 L 679.5 813 L 680.5 815 L 683 811.5 L 683 788.5 L 682 787.5 L 681 776.5 L 678 768.5 L 678 762.5 L 675 753.5 L 675 749.5 L 676 748.5 L 676 738.5 L 677 737.5 L 677 730.5 L 679 725.5 L 679 717.5 L 684.5 702 L 686.5 703 L 686 701.5 L 686 698.5 L 689 692.5 L 689 690.5 L 697 674.5 L 697 669.5 L 698 668.5 Q 696.7 663.8 699 662.5 L 699 651.5 L 700 650.5 L 700 634.5 L 699 633.5 L 699 621.5 L 698 620.5 Q 699.2 615.8 697 614.5 L 697 603.5 L 696 602.5 L 696 594.5 L 697 593.5 L 698 580.5 L 699 579.5 L 700 571.5 L 701 570.5 L 701 562.5 L 702 561.5 L 702 553.5 L 703 552.5 L 703 534.5 L 702 533.5 L 702 529.5 L 700 524.5 L 700 520.5 L 696 509.5 L 696 492.5 L 697 491.5 L 697 483.5 L 696 482.5 L 696 476.5 L 695 475.5 L 694 467.5 L 689 454.5 L 689.5 454 Z " /><path fill="rgb(254,254,254)" stroke="rgb(254,254,254)" stroke-width="0" opacity="1" d="M 633.5 458 L 637.5 458 L 640.5 461 L 645.5 462 L 658 473.5 L 661 479.5 L 661 487.5 L 658 495.5 L 655.5 498 L 649.5 501 L 641.5 501 Q 640.3 498.7 635.5 500 L 628.5 497 L 623 491.5 L 620 484.5 L 620 475.5 L 623 466.5 L 628.5 461 L 633.5 458 Z M 628 474 L 623 480 L 623 484 L 625 488 L 629 491 L 635 493 L 641 492 L 644 486 L 644 483 L 640 476 L 639 474 L 628 474 Z " /><path fill="rgb(254,254,254)" stroke="rgb(254,254,254)" stroke-width="0" opacity="1" d="M 558.5 459 L 572.5 460 L 575.5 461 L 579 464.5 L 584 476.5 L 584 484 L 578 483.5 Q 581.3 482.3 580 476.5 L 576.5 474 L 566.5 474 L 563 477.5 L 562 482.5 L 563 485 L 543.5 485 L 543 483.5 L 544 482.5 L 544 475.5 Q 545.8 474.8 545 471.5 Q 547.3 465.3 552.5 462 L 558.5 459 Z " /><path fill="rgb(254,254,254)" stroke="rgb(254,254,254)" stroke-width="0" opacity="1" d="M 120.5 469 L 130.5 469 L 132.5 471 L 138.5 473 L 145 478.5 L 147 483 L 124.5 483 L 123.5 484 L 113.5 484 L 112.5 485 L 107.5 485 L 104.5 486 L 99 490.5 Q 97 493 98 498.5 L 103.5 505 L 112.5 510 L 118.5 512 L 125.5 512 L 126.5 513 Q 133.3 511.7 136.5 514 L 137.5 513 L 146.5 513 L 147.5 512 L 148 513.5 L 142.5 520 L 135.5 525 L 127.5 528 L 115.5 528 L 105.5 524 L 98 517.5 L 94 511.5 L 91 503.5 L 91 493.5 L 94 484.5 L 103.5 474 L 113.5 470 L 119.5 470 L 120.5 469 Z " /><path fill="rgb(254,254,254)" stroke="rgb(254,254,254)" stroke-width="0" opacity="1" d="M 127.5 487 L 149.5 487 Q 150.3 486.8 150 489.5 L 152 494.5 L 152 501.5 Q 150 502.5 151 506.5 L 148.5 509 L 132.5 509 L 131.5 508 L 120.5 508 L 109.5 504 L 102 497.5 L 101 494.5 L 103.5 491 L 107.5 489 L 113.5 489 L 114.5 488 L 126.5 488 L 127.5 487 Z " /><path fill="rgb(254,254,254)" stroke="rgb(254,254,254)" stroke-width="0" opacity="1" d="M 470 513 L 492.5 513 Q 493.4 514.8 496 514 Q 495.3 516.6 497 517.5 L 497 533.5 Q 495 534.5 496 538.5 L 492 546.5 L 475 572.5 L 467 590.5 L 466 596.5 L 463 603.5 L 462 611.5 L 461 612.5 L 461 617.5 L 460 618.5 L 460 641.5 L 461 642.5 L 461 650.5 L 462 651.5 L 463 663.5 L 464 664.5 L 464 668.5 L 465 669.5 L 465 672.5 L 468 681.5 L 468 686.5 L 469 687.5 L 469 697.5 L 468 698.5 L 468 705.5 Q 466.3 706.3 467 709.5 L 464 715.5 L 462 725.5 L 461 726.5 L 460 736.5 L 459 737.5 L 459 741.5 L 458 742.5 L 455 757.5 L 453 760.5 L 452 766.5 L 450.5 769 L 447 764.5 L 440 748.5 L 439 739.5 L 438 738.5 L 438 733.5 L 437 732.5 L 437 724.5 L 438 723.5 L 438 715.5 L 439 714.5 L 440 701.5 L 441 700.5 L 441 696.5 L 442 695.5 L 442 692.5 L 444 687.5 L 444 683.5 L 445 682.5 L 445 676.5 L 446 675.5 L 446 666.5 L 441 652.5 L 441 645.5 L 440 644.5 L 440 639.5 L 439 638.5 Q 439.8 633.7 438 631.5 L 439 630.5 L 439 622.5 Q 441.2 621.3 440 616.5 L 441 615.5 L 442 606.5 L 443 605.5 L 444 597.5 L 445 596.5 L 447 586.5 L 453 574.5 L 464 560.5 L 468 550.5 Q 467.2 547.3 469 546.5 L 469 537.5 L 470 536.5 L 470 513 Z " /><path fill="rgb(254,254,254)" stroke="rgb(254,254,254)" stroke-width="0" opacity="1" d="M 500 514 L 514 514 L 514 528.5 L 515 529.5 L 514 532.5 L 515 534.5 Q 511.5 536 514 537.5 L 511 548.5 L 508 553.5 L 506 559.5 L 506 562.5 L 504 565.5 L 497 586.5 Q 498 590.5 496 591.5 L 496 598.5 L 495 599.5 L 495 607.5 L 494 608.5 L 494 618.5 L 495 619.5 L 495 625.5 L 496 626.5 L 497 635.5 L 498 636.5 L 498 639.5 L 499 640.5 L 499 643.5 L 502 652.5 Q 500.8 658.7 503 661.5 L 502 662.5 L 502 671.5 L 501 672.5 L 501 676.5 L 498 685.5 L 498 689.5 L 497 690.5 L 494 705.5 L 492 709.5 L 490 720.5 L 484 736.5 L 483 744.5 L 482 745.5 L 482 749.5 L 481 750.5 L 481 754.5 L 480 755.5 L 480 759.5 L 479 760.5 Q 480.3 765.3 478 766.5 L 478 774.5 L 477 775.5 L 477 787.5 L 476 788.5 L 476 797.5 L 475 798.5 L 475 807.5 L 472 815.5 L 469.5 818 Q 464.3 819.3 463 816.5 L 464 815.5 L 464 810 L 462 810 Q 463.3 814.1 460 813 L 460 810.5 L 458 806.5 L 458 801.5 L 457 800.5 L 457 790.5 L 456 789.5 L 456 776.5 L 457 775.5 L 457 768.5 L 463 750.5 L 463 746.5 L 464 745.5 L 464 741.5 L 466 735.5 L 467 725.5 L 473 708.5 Q 472 704.5 474 703.5 L 474 695.5 L 475 692.5 Q 473.2 691.8 474 688.5 L 477 681.5 L 477 674.5 L 478 673.5 L 478 666.5 L 479 665.5 L 479 643.5 L 478 642.5 L 477 631.5 L 474.5 625 L 473 627.5 L 473 641.5 L 474 642.5 L 474 648.5 L 475 649.5 L 475 660.5 L 474 661.5 L 474 669.5 L 473 670.5 L 472.5 678 L 471 675.5 L 471 671.5 L 469 665.5 L 469 660.5 L 468 659.5 L 468 654.5 L 467 653.5 L 467 647.5 L 466 646.5 L 466 637.5 L 465 636.5 L 465 622.5 L 466 621.5 L 466 614.5 L 467 613.5 L 468 604.5 L 474.5 586 L 475 587.5 L 474 588.5 L 474 605.5 Q 475.8 606.3 475 609.5 L 476.5 611 L 479 609.5 L 479 603.5 L 478 602.5 L 478 588.5 L 479 587.5 L 479 584.5 L 485 566.5 L 499 544.5 L 501 538.5 L 501 532.5 L 502 531.5 L 502 521.5 L 501 520.5 L 501 516.5 L 500 514 Z " /><path fill="rgb(254,254,254)" stroke="rgb(254,254,254)" stroke-width="0" opacity="1" d="M 753.5 515 L 757 518.5 L 764 532.5 L 765 535.5 L 765 546.5 L 764 547.5 L 764 556.5 L 763 557.5 L 763 567.5 L 762 568.5 L 762 573.5 L 759 581.5 L 757.5 598 L 755 592.5 Q 755.8 589.3 754 588.5 L 754 582.5 L 753 581.5 L 753 565.5 L 754 564.5 L 754 555.5 L 755 554.5 L 755 544.5 L 756 543.5 L 756 536.5 L 755 535.5 L 755 525.5 L 754 524.5 L 754 518.5 Q 752.1 517.6 753.5 515 Z " /><path fill="rgb(254,254,254)" stroke="rgb(254,254,254)" stroke-width="0" opacity="1" d="M 723.5 533 L 724 568.5 L 723 569.5 L 723 583.5 Q 725 584.5 723 585.5 L 724 607.5 L 725 608.5 L 726 617.5 L 736 638.5 L 737 643.5 L 742 650.5 L 747 660.5 L 750 669.5 L 750 682.5 Q 752 683.5 751 687.5 L 750 688.5 L 750 704.5 L 751 705.5 L 751 713.5 L 750 714.5 L 750 732.5 Q 747.7 733.8 749 738.5 L 750 739.5 L 750 753.5 L 754 765.5 L 756 777.5 L 762 785.5 L 765 792.5 L 775 804.5 L 777 814.5 L 776 814.5 L 775.5 813 L 775 819.5 L 776 820.5 L 776 832.5 Q 778.2 833.8 777 838.5 L 776 839.5 L 776 849.5 L 775 850.5 L 775 869.5 L 778 877.5 L 777 878.5 L 777 881.5 L 772 896.5 L 771 912.5 L 770 915.5 L 767.5 918 Q 761 919 759 915.5 L 755 905.5 L 755 897.5 L 756 896.5 L 756 890.5 L 757 889.5 L 758 877.5 L 759 876.5 L 759 869.5 L 760 868.5 L 760 860.5 L 761 859.5 L 761 838.5 L 760 837.5 L 760 833.5 L 759 832.5 L 757 822.5 L 738 794.5 L 732 781.5 L 727 765.5 L 724 760.5 L 724 757.5 L 722 752.5 L 722 747.5 L 721 746.5 L 721 731.5 L 722 730.5 L 722 695.5 L 723 694.5 L 723.5 678 L 728 687.5 L 728 701.5 L 730.5 705 L 731 697.5 L 732 696.5 L 732 689.5 L 729 683.5 L 729 681.5 L 722 669.5 L 720 663.5 L 720 660.5 L 719 659.5 L 719 656.5 L 713 641.5 L 712 633.5 L 711 632.5 L 711 628.5 L 710 627.5 L 710 609.5 L 711 608.5 L 711 603.5 L 712 602.5 L 713 593.5 L 716 584.5 L 716 580.5 L 719 573.5 L 719 570.5 L 722 561.5 L 722 554.5 L 723 553.5 L 723.5 533 Z " /><path fill="rgb(254,254,254)" stroke="rgb(254,254,254)" stroke-width="0" opacity="1" d="M 514.5 549 L 515 554.5 L 516 555.5 L 516 561.5 L 517 562.5 L 517 570.5 L 519 576.5 L 516 582.5 L 515 590.5 L 514 591.5 L 514 595.5 L 513 596.5 L 513 613.5 L 514 614.5 L 514 621.5 Q 516 622.5 515 626.5 L 519 634.5 L 522 643.5 L 522 646.5 L 523 647.5 Q 522 651.5 524 652.5 L 524 659.5 L 525 660.5 L 525 666.5 L 524 667.5 L 524 676.5 L 523 677.5 L 523 681.5 L 522 682.5 L 522 685.5 L 521 688 Q 517.3 686.6 519 692.5 L 517 698.5 L 509 711.5 L 505 721.5 L 505 725.5 L 503 731.5 L 503 739.5 L 502 740.5 L 502 756.5 L 503 757.5 L 503 767.5 L 504 768.5 L 504 781.5 L 505 782.5 L 506 794.5 L 505 795.5 L 505 805.5 L 504 806.5 L 504 812.5 L 503 813.5 L 502 820.5 L 500 824.5 L 500 827.5 L 497 836.5 L 497 842.5 L 496 843.5 L 496 849.5 L 495 850.5 L 495 860.5 L 496 860.5 L 497.5 855 L 498 858.5 L 497 861.5 L 498 862.5 L 498 875.5 L 497 876.5 L 497 880.5 L 495 886.5 Q 493 892 488.5 895 Q 486.3 896.8 481.5 896 L 473 888.5 L 469 881.5 L 469 863.5 L 470 862.5 L 470 856.5 L 471 855.5 L 471 851.5 L 473 847.5 L 475 836.5 L 478 831.5 L 481 822.5 L 481 819.5 L 483 815.5 L 484 805.5 L 485 804.5 L 485 796.5 L 486 795.5 L 486 787.5 L 487 786.5 L 487 774.5 L 488 772.5 L 487 771.5 L 487 766.5 Q 485.3 765.6 486 763 L 484 762.5 L 487 753.5 L 487 749.5 L 488 748.5 L 490 737.5 L 495 726.5 L 495 723.5 L 497 719.5 L 498 712.5 L 500 708.5 L 500 705.5 L 501 704.5 L 501 701.5 L 502 700.5 L 502 697.5 L 503 696.5 L 503 693.5 L 504 692.5 L 504 689.5 L 507 680.5 L 508 670.5 L 509 669.5 L 509 654.5 L 508 653.5 L 508 648.5 L 503 633.5 L 503 629.5 L 501 623.5 L 501 616.5 Q 499 615.5 500 611.5 L 501 610.5 L 501 600.5 L 502 599.5 L 502 592.5 L 503 591.5 L 503 587.5 L 505 581.5 L 507 578.5 L 507 574.5 Q 505 573.5 507 572.5 L 507 569.5 L 510 562.5 L 510 559.5 L 514.5 549 Z " /><path fill="rgb(254,254,254)" stroke="rgb(254,254,254)" stroke-width="0" opacity="1" d="M 794.5 571 L 798 581.5 L 800 583.5 L 801 587.5 L 809 600.5 L 816 615.5 L 816 618.5 L 818 623.5 L 818 644.5 L 817 645.5 L 817 654.5 L 816 655.5 L 815 671.5 L 814 672.5 L 814 676.5 L 812 681.5 L 811 690.5 L 805 708.5 L 799 718.5 L 798 726.5 L 795 732.5 Q 796 736.5 794 737.5 L 794 744.5 L 793 745.5 L 793 766.5 L 794 768.5 L 793 769.5 L 792.5 774 L 782 756.5 L 784 753.5 Q 783 749.5 785 748.5 L 785 741.5 L 786 740.5 L 786 733.5 Q 788 732.5 787 728.5 L 799 696.5 L 799 685.5 L 800 684.5 L 800 676.5 L 799 675.5 L 799 667.5 L 798 664.5 L 802 659.5 L 802 637.5 L 801 636.5 L 801 632.5 L 800 631.5 L 800 628.5 L 799 627.5 L 799 624.5 L 797 618.5 L 789 601.5 L 789 597.5 L 792 590.5 L 792 584.5 L 793 583.5 L 793 574.5 L 794.5 571 Z " /><path fill="rgb(254,254,254)" stroke="rgb(254,254,254)" stroke-width="0" opacity="1" d="M 520.5 583 L 529 600.5 L 530 604.5 L 536 612.5 L 536 630.5 L 537 631.5 L 537 635.5 L 538 636.5 L 540 650.5 L 545 664.5 L 545 667.5 L 546 668.5 L 546 671.5 L 549 680.5 L 550 689.5 L 551 690.5 L 551 714.5 L 550 715.5 L 550 720.5 L 547 728.5 L 545 739.5 L 542 748.5 L 536 760.5 L 534 766.5 L 534 769.5 L 533 770.5 L 532 782.5 L 531 783.5 L 531 791.5 L 530 792.5 L 530 801.5 L 529 802.5 L 529 816.5 L 528 817.5 L 528 824.5 L 529 825.5 L 529 835.5 L 528 836.5 L 528 852.5 L 527 853.5 L 527 862.5 L 526 863.5 L 526 867.5 L 525 868.5 L 523 879.5 L 518 891.5 L 511.5 899 L 507 900 L 507 895.5 L 508 894.5 L 508 888.5 L 509 887.5 L 510 880.5 L 522 852.5 L 522 845.5 L 523 844.5 L 524 829.5 L 523 828.5 L 523 815.5 L 522 814.5 L 522 801.5 L 521 800.5 L 521 785.5 L 522 784.5 L 523 766.5 L 524 765.5 L 524 762.5 L 532 738.5 L 532 731.5 L 533 730.5 L 533 719.5 L 534 718.5 L 533 717.5 L 533 708.5 L 532 707.5 L 531 700.5 Q 528.8 694.7 524 691.5 L 527 684.5 L 528 674.5 L 529 673.5 L 529 651.5 L 528 650.5 L 528 646.5 L 527 645.5 L 526 638.5 L 521 627.5 L 520 620.5 L 519 619.5 L 519 612.5 L 518 611.5 L 518 595.5 L 519 594.5 L 519 588.5 L 520 587.5 L 520.5 583 Z " /><path fill="rgb(254,254,254)" stroke="rgb(254,254,254)" stroke-width="0" opacity="1" d="M 787.5 609 L 790 612.5 L 790 614.5 L 792 617.5 L 796 629.5 L 797 639.5 L 798 640.5 L 798 657.5 Q 797 659 796 656.5 L 794 650.5 L 794 647.5 L 793 646.5 L 793 643.5 L 792 642.5 L 792 639.5 L 791 638.5 L 791 635.5 L 790 634.5 L 790 630.5 L 789 629.5 L 788 616.5 L 787 615.5 L 787.5 609 Z " /><path fill="rgb(254,254,254)" stroke="rgb(254,254,254)" stroke-width="0" opacity="1" d="M 540.5 615 L 553.5 625 L 565 631.5 L 563.5 633 L 561.5 633 L 553.5 637 L 546 644.5 L 545.5 646 L 544 643.5 L 544 640.5 L 542 635.5 L 542 631.5 L 541 630.5 Q 542.3 625.7 540 624.5 L 540.5 615 Z " /><path fill="rgb(254,254,254)" stroke="rgb(254,254,254)" stroke-width="0" opacity="1" d="M 675.5 624 L 678 627.5 L 678 629.5 L 681 635.5 Q 680.3 638.8 682 639.5 L 682 647.5 L 681 648.5 L 680 674.5 L 681 675.5 L 681 691.5 L 682 694.5 L 679 700.5 L 677 706.5 L 677 709.5 L 675 713.5 L 675 720.5 L 674 721.5 L 674 726.5 L 672 732.5 L 672 740.5 L 671 741.5 L 671 749.5 Q 669 750.5 670 754.5 Q 672 755.5 670 756.5 L 668 766.5 L 667 767.5 L 667 771.5 L 666 772.5 L 666 780.5 L 676 800.5 L 677 805.5 L 668 827.5 L 667 835.5 L 666 836.5 L 666 845.5 Q 663.8 846.7 665 851.5 L 666 852.5 L 666 860.5 L 667 863.5 Q 665 864.5 667 865.5 L 668.5 868 L 671 869.5 L 669 872.5 L 669 875.5 L 659 893.5 L 656 902.5 L 656 907.5 L 655 908.5 L 655 914.5 L 654 915.5 L 654 923.5 L 653 924.5 L 653 931.5 Q 651 932.5 652 936.5 L 650 942.5 L 646.5 946 Q 640.3 947.3 639 943.5 L 640 940.5 L 637 933.5 L 637 925.5 L 638 924.5 L 638 914.5 L 639 913.5 L 639 908.5 L 640 907.5 L 640 902.5 L 641 901.5 L 641 897.5 L 642 896.5 L 643 888.5 L 659 854.5 Q 658 850.5 660 849.5 L 660 829.5 L 659 828.5 L 659 823.5 L 657 817.5 L 657 812.5 L 656 811.5 L 656 808.5 L 653 799.5 L 653 794.5 L 652 793.5 L 651 774.5 L 652 773.5 L 652 765.5 Q 654.3 764.3 653 759.5 L 654 758.5 L 654 754.5 L 656 750.5 L 657 743.5 L 660 737.5 L 665 721.5 L 674 705.5 Q 673.3 702.3 675 701.5 L 675 686.5 L 674 685.5 L 673 671.5 L 672 670.5 L 672 664.5 L 671 663.5 L 671 654.5 L 670 653.5 L 670 647.5 L 671 646.5 L 671 636.5 Q 673 635.5 672 631.5 L 675.5 624 Z " /><path fill="rgb(254,254,254)" stroke="rgb(254,254,254)" stroke-width="0" opacity="1" d="M 670.5 625 L 671 626.5 L 667 635.5 L 667 641.5 L 666 642.5 L 666 663.5 L 667 664.5 L 668 678.5 L 669 679.5 L 669 687.5 L 670 688.5 L 670 699.5 L 666 709.5 L 663.5 712 L 661.5 709 L 656.5 707 L 642 694.5 L 631 679.5 L 619 655 L 616 653.5 L 615 649 L 625.5 654 L 639 666.5 L 642 670.5 L 644 676.5 L 642.5 677 L 635.5 671 L 636 672.5 L 643.5 681 L 647.5 682 Q 649.8 681.3 649 677.5 L 648 676.5 L 647 670.5 L 644 665.5 L 635.5 656 L 621.5 646 L 614 644 L 614.5 642 L 623.5 642 L 637.5 648 L 646.5 654 L 653 660.5 L 654.5 663 Q 657.3 661.8 656 656.5 L 650.5 651 L 636.5 642 L 632 640.5 L 641.5 639 L 645.5 637 L 652.5 636 L 658.5 633 L 660.5 633 Q 666.6 630.1 670.5 625 Z " /><path fill="rgb(254,254,254)" stroke="rgb(254,254,254)" stroke-width="0" opacity="1" d="M 570.5 635 L 573.5 635 L 584.5 639 L 595.5 640 L 598 641.5 L 595 646.5 L 595 652.5 L 598 660.5 L 594 661 L 594 659.5 L 590 653.5 L 590 642.5 L 590.5 641 Q 587.5 640.5 587 642.5 Q 585.2 644.8 586 649 L 583.5 648 L 578.5 648 L 569.5 652 Q 568.3 655.5 565 655 L 565 656.5 L 559 663.5 L 559 670.5 Q 560 672 561 669.5 Q 562.9 663.4 567.5 660 L 576.5 655 L 584.5 653 L 586 654.5 L 586 656.5 L 589 662.5 L 583 675.5 L 575 686.5 L 574 689.5 L 563.5 701 L 558 703 L 558 691.5 Q 556 690.5 557 686.5 L 555 682.5 L 554 674.5 L 546 650.5 L 550.5 645 L 560.5 639 L 567.5 637 L 570.5 635 Z " /><path fill="rgb(254,254,254)" stroke="rgb(254,254,254)" stroke-width="0" opacity="1" d="M 600 641 L 608.5 641 L 610 642.5 L 608 645.5 L 608 648 Q 612.1 646.3 611 650.5 Q 613 651.5 612 655.5 L 610 660.5 L 607.5 663 L 605.5 664 L 603 661.5 L 599 652.5 L 599 643.5 L 600 641 Z " /><path fill="rgb(254,254,254)" stroke="rgb(254,254,254)" stroke-width="0" opacity="1" d="M 615.5 660 L 625 681.5 L 630 689.5 L 639.5 701 L 643 703.5 L 657 729.5 L 653 738.5 L 648 753.5 L 648 756.5 L 647 757.5 L 646 770.5 L 645 771.5 L 645 792 L 642 793.5 L 636.5 800 L 625.5 809 L 623 809 L 623 806.5 L 621 803.5 L 621 801.5 L 619 798.5 L 619 796.5 L 613 782.5 Q 613.8 779.3 612 778.5 L 612 770.5 L 611 769.5 L 611 763.5 L 610 762.5 L 610 752.5 L 609 751.5 L 609 709.5 L 608 708.5 L 607 668.5 L 614 662.5 L 615.5 660 Z " /><path fill="rgb(254,254,254)" stroke="rgb(254,254,254)" stroke-width="0" opacity="1" d="M 522.5 697 L 525 699.5 L 528 708.5 L 528 725.5 L 527 726.5 L 527 734.5 L 526 735.5 L 525 742.5 L 517 766.5 L 516 784.5 L 515 785.5 L 515 800.5 L 516 801.5 L 516 814.5 L 517 815.5 L 518 838.5 L 517 839.5 L 517 848.5 Q 515.3 849.3 516 852.5 L 513 858.5 L 513 860.5 L 507 871.5 L 507 873.5 L 504 879.5 L 503 886.5 L 502 887.5 L 502 895.5 L 501 896.5 L 501 902.5 L 500 903.5 L 500 914.5 L 499 915.5 L 499 928.5 L 498 929.5 L 498 935.5 L 492.5 942 Q 485.5 943.5 484 939.5 L 480 929.5 L 480 916.5 L 479 915.5 L 479 903.5 Q 477 902.4 478 899 Q 480.7 900.9 487.5 900 L 495 894.5 L 498 889.5 L 500 883.5 L 500 880.5 L 501 879.5 Q 500 875.5 502 874.5 L 502 865.5 L 499 856.5 L 499 850.5 L 502 842.5 L 502 838.5 L 503 837.5 L 504 829.5 L 509 815.5 Q 508 811.5 510 810.5 L 510 798.5 L 511 797.5 L 511 791.5 L 510 790.5 L 510 783.5 L 509 782.5 L 509 770.5 L 508 769.5 L 508 759.5 L 507 758.5 L 507 737.5 L 508 736.5 L 508 728.5 L 509 727.5 L 510 720.5 L 515 709.5 L 522.5 697 Z " /><path fill="rgb(254,254,254)" stroke="rgb(254,254,254)" stroke-width="0" opacity="1" d="M 653.5 712 L 663 715.5 L 658.5 724 L 653 712.5 L 653.5 712 Z " /><path fill="rgb(254,254,254)" stroke="rgb(254,254,254)" stroke-width="0" opacity="1" d="M 715.5 712 L 715 713.5 L 713 728.5 L 712 729.5 L 712 732.5 L 711 733.5 L 711 736.5 L 708 745.5 L 708 752.5 L 707 753.5 L 707 772.5 L 705.5 777 L 704 772.5 L 704 760.5 L 705 759.5 L 705 751.5 L 706 750.5 L 706 745.5 L 707 744.5 L 707 739.5 L 708 738.5 L 710 724.5 L 713 718.5 L 714 713.5 L 715.5 712 Z " /><path fill="rgb(254,254,254)" stroke="rgb(254,254,254)" stroke-width="0" opacity="1" d="M 718.5 724 L 719 735.5 L 718 736.5 L 718 746.5 L 719 747.5 L 720 757.5 L 727 777.5 L 727 780.5 L 730 786.5 L 731 792.5 L 735 801.5 L 736 806.5 L 740 814.5 L 740 817.5 L 743 825.5 L 743 847.5 L 744 848.5 L 744 866.5 L 743 867.5 L 743 873.5 L 742 876.5 L 739 882.5 L 736.5 885 Q 734.7 886.7 730.5 886 L 728 883.5 Q 728.8 880.3 727 879.5 L 727 867.5 L 728 866.5 L 728 848.5 L 727 847.5 L 726 839.5 L 722 830.5 L 720 822.5 L 713 807.5 Q 714 803.5 712 802.5 L 712 795.5 L 711 794.5 L 711 768.5 L 712 767.5 L 712 751.5 Q 714.3 750.3 713 745.5 L 714 744.5 L 714 740.5 L 716 736.5 L 718.5 724 Z " /><path fill="rgb(254,254,254)" stroke="rgb(254,254,254)" stroke-width="0" opacity="1" d="M 672.5 762 L 673 769.5 L 676 777.5 L 676 782.5 L 678 788.5 L 678 793.5 L 677 793.5 L 670 779.5 L 670 773.5 L 671 772.5 L 671 764.5 L 672.5 762 Z " /><path fill="rgb(254,254,254)" stroke="rgb(254,254,254)" stroke-width="0" opacity="1" d="M 481.5 786 L 482 789.5 L 481 789.5 L 481.5 786 Z " /><path fill="rgb(254,254,254)" stroke="rgb(254,254,254)" stroke-width="0" opacity="1" d="M 480.5 794 L 481 801.5 L 480 801.5 L 480.5 794 Z " /><path fill="rgb(254,254,254)" stroke="rgb(254,254,254)" stroke-width="0" opacity="1" d="M 479.5 803 L 480 808.5 L 479 808.5 L 479.5 803 Z " /><path fill="rgb(254,254,254)" stroke="rgb(254,254,254)" stroke-width="0" opacity="1" d="M 478.5 810 L 479 813.5 L 477 816.5 L 470 837.5 L 470 840.5 L 469 841.5 L 469 844.5 L 466 853.5 Q 467.3 858.3 465 859.5 L 465 869.5 L 464 870.5 L 464 879.5 L 467 887.5 L 472 893.5 L 474 898.5 L 474 930.5 L 476 935.5 L 476 941.5 L 475 942.5 L 475 947.5 L 471 959.5 L 468.5 962 Q 463.7 960.3 461 956.5 L 458 949.5 L 457 941.5 L 456 940.5 L 455 926.5 L 454 925.5 L 454 914.5 L 453 913.5 L 453 903.5 L 454 902.5 L 454 891.5 L 455 890.5 L 455 882.5 L 456 881.5 L 456 872.5 L 457 871.5 L 458 860.5 L 459 859.5 L 459 855.5 L 461 850.5 L 461 844.5 L 462 843.5 L 462 831.5 L 463 830.5 L 463 822 L 470.5 822 L 475 818.5 L 478 813.5 L 478.5 810 Z " /><path fill="rgb(254,254,254)" stroke="rgb(254,254,254)" stroke-width="0" opacity="1" d="M 708.5 810 L 714 819.5 L 715 824.5 L 720 834.5 L 722 840.5 L 722 843.5 L 723 844.5 L 723 847.5 L 724 848.5 L 725 859.5 L 724 860.5 L 724 880.5 L 714 900.5 L 714 907.5 L 713 908.5 L 713 925.5 L 714 926.5 L 714 931.5 L 715 932.5 L 716 940.5 L 717 941.5 L 717 953.5 L 716 954.5 L 716 960.5 L 713.5 965 Q 705.5 966.5 704 961.5 L 700 954.5 L 697 945.5 L 697 942.5 L 696 941.5 L 696 921.5 L 697 920.5 L 698 901.5 L 699 900.5 L 699 895.5 L 700 894.5 L 701 886.5 L 705 877.5 L 708 873.5 L 710 867.5 L 710 858.5 L 711 857.5 L 711 840.5 L 710 839.5 L 710 831.5 L 709 830.5 L 708 814.5 L 709 811.5 L 708.5 810 Z " /></svg>